SplineFontDB: 3.2
FontName: thewitcher
FullName: thewitcher
FamilyName: thewitcher
Weight: Medium
Copyright: JVu
Version: 001.000
ItalicAngle: 0
UnderlinePosition: -150
UnderlineWidth: 50
Ascent: 780
Descent: 220
InvalidEm: 0
sfntRevision: 0x00010000
LayerCount: 2
Layer: 0 1 "Back" 1
Layer: 1 1 "Fore" 0
XUID: [1021 963 -2122951158 10975]
StyleMap: 0x0040
FSType: 0
OS2Version: 1
OS2_WeightWidthSlopeOnly: 0
OS2_UseTypoMetrics: 0
CreationTime: 1280473793
ModificationTime: 1656010819
PfmFamily: 17
TTFWeight: 500
TTFWidth: 5
LineGap: 90
VLineGap: 0
Panose: 2 0 6 3 0 0 0 0 0 0
OS2TypoAscent: 780
OS2TypoAOffset: 0
OS2TypoDescent: -220
OS2TypoDOffset: 0
OS2TypoLinegap: 90
OS2WinAscent: 783
OS2WinAOffset: 0
OS2WinDescent: 220
OS2WinDOffset: 0
HheadAscent: 783
HheadAOffset: 0
HheadDescent: -220
HheadDOffset: 0
OS2SubXSize: 650
OS2SubYSize: 699
OS2SubXOff: 0
OS2SubYOff: 140
OS2SupXSize: 650
OS2SupYSize: 699
OS2SupXOff: 0
OS2SupYOff: 479
OS2StrikeYSize: 49
OS2StrikeYPos: 258
OS2Vendor: '2ttf'
OS2CodePages: 00000001.00000000
OS2UnicodeRanges: 80000003.00010000.00000000.00000000
Lookup: 258 0 0 "'kern' Horizontal Kerning in Latin lookup 0" { "'kern' Horizontal Kerning in Latin lookup 0 subtable"  } ['kern' ('DFLT' <'dflt' > 'latn' <'dflt' > ) ]
MarkAttachClasses: 1
DEI: 91125
ShortTable: cvt  2
  33
  633
EndShort
ShortTable: maxp 16
  1
  0
  104
  242
  5
  0
  0
  2
  0
  1
  1
  0
  64
  0
  0
  0
EndShort
LangName: 1033 "" "" "" "JVu:thewitcher"
GaspTable: 1 65535 2 0
Encoding: UnicodeBmp
UnicodeInterp: none
NameList: AGL For New Fonts
DisplaySize: -48
AntiAlias: 1
FitToEm: 0
WinInfo: 0 37 14
BeginChars: 65539 122

StartChar: .notdef
Encoding: 65536 -1 0
Width: 364
Flags: W
LayerCount: 2
Fore
SplineSet
66 33 m 1,0,-1
 265 33 l 1,1,-1
 265 633 l 1,2,-1
 66 633 l 1,3,-1
 66 33 l 1,0,-1
33 0 m 1,4,-1
 33 666 l 1,5,-1
 298 666 l 1,6,-1
 298 0 l 1,7,-1
 33 0 l 1,4,-1
EndSplineSet
EndChar

StartChar: exclam
Encoding: 33 33 4
Width: 279
GlyphClass: 2
Flags: W
LayerCount: 2
Fore
SplineSet
241 0 m 1,0,-1
 124 0 l 1,1,-1
 124 117 l 1,2,-1
 241 117 l 1,3,-1
 241 0 l 1,0,-1
240 643 m 1,4,-1
 240 637 l 1,5,-1
 240 621 l 1,6,-1
 240 572 l 1,7,-1
 240 523 l 1,8,-1
 240 506 l 1,9,-1
 240 500 l 1,10,-1
 240 497 l 1,11,-1
 240 489 l 1,12,-1
 240 465 l 1,13,-1
 240 440 l 1,14,-1
 240 432 l 1,15,-1
 240 425 l 2,16,17
 240 421 240 421 240 415 c 0,18,19
 242 354 242 354 242 212 c 1,20,-1
 188 243 l 1,21,-1
 124 277 l 1,22,-1
 124 429 l 1,23,-1
 124 432 l 2,24,25
 124 513 124 513 124 523 c 2,26,-1
 124 572 l 2,27,28
 124 577 124 577 123.5 583.5 c 128,-1,29
 123 590 123 590 123 595.5 c 128,-1,30
 123 601 123 601 121.5 607 c 128,-1,31
 120 613 120 613 118 618 c 128,-1,32
 116 623 116 623 111 627.5 c 128,-1,33
 106 632 106 632 99.5 635.5 c 128,-1,34
 93 639 93 639 83 641 c 128,-1,35
 73 643 73 643 61 643 c 1,36,-1
 124 643 l 1,37,-1
 240 643 l 1,4,-1
EndSplineSet
EndChar

StartChar: quotedbl
Encoding: 34 34 5
Width: 326
GlyphClass: 2
Flags: W
LayerCount: 2
Fore
SplineSet
138 644 m 1,0,1
 138 643 138 643 138 642 c 0,2,3
 138 639 138 639 138 636 c 0,4,5
 138 628 138 628 138 616 c 0,6,7
 138 588 138 588 138.5 554.5 c 128,-1,8
 139 521 139 521 139 493 c 0,9,10
 139 481 139 481 139 472 c 0,11,12
 139 466 139 466 139 465 c 2,13,-1
 31 464 l 1,14,15
 31 465 31 465 31 472 c 0,16,17
 31 480 31 480 31 492 c 0,18,19
 31 520 31 520 30.5 553.5 c 128,-1,20
 30 587 30 587 30 615 c 0,21,22
 30 627 30 627 30 635 c 0,23,24
 30 642 30 642 30 643 c 2,25,-1
 138 644 l 1,0,1
288 644 m 1,26,-1
 288 636 l 2,27,28
 288 628 288 628 288 616 c 0,29,30
 288 588 288 588 288 554.5 c 128,-1,31
 288 521 288 521 289 493 c 0,32,33
 289 481 289 481 289 472 c 0,34,35
 289 466 289 466 289 465 c 2,36,-1
 181 464 l 1,37,38
 181 465 181 465 181 472 c 0,39,40
 181 480 181 480 181 492 c 0,41,42
 180 520 180 520 180 553.5 c 128,-1,43
 180 587 180 587 180 615 c 0,44,45
 180 627 180 627 180 635 c 0,46,47
 180 642 180 642 180 643 c 2,48,-1
 288 644 l 1,26,-1
EndSplineSet
EndChar

StartChar: numbersign
Encoding: 35 35 6
Width: 683
GlyphClass: 2
Flags: W
LayerCount: 2
Fore
SplineSet
448 367 m 1,0,1
 428 366 428 366 367 366 c 0,2,3
 301 366 301 366 260 366 c 1,4,-1
 260 336 l 1,5,-1
 260 324 l 1,6,-1
 260 314 l 2,7,8
 260 307 260 307 260 298 c 0,9,10
 260 290 260 290 260 248 c 1,11,12
 276 248 276 248 366 248 c 0,13,14
 421 248 421 248 448 248 c 1,15,16
 448 319 448 319 448 367 c 1,0,1
88 457 m 1,17,-1
 95 457 l 2,18,19
 98 457 98 457 102.5 457 c 128,-1,20
 107 457 107 457 112 457 c 0,21,22
 135 457 135 457 159 457 c 1,23,-1
 159 535 l 2,24,25
 159 544 159 544 159 553 c 128,-1,26
 159 562 159 562 159 571 c 128,-1,27
 159 580 159 580 157.5 589 c 128,-1,28
 156 598 156 598 154 605.5 c 128,-1,29
 152 613 152 613 148 619.5 c 128,-1,30
 144 626 144 626 138.5 631 c 128,-1,31
 133 636 133 636 124.5 639.5 c 128,-1,32
 116 643 116 643 105 644 c 1,33,-1
 159 643 l 1,34,-1
 260 643 l 1,35,-1
 260 634 l 1,36,-1
 260 609 l 1,37,-1
 260 535 l 1,38,-1
 260 461 l 1,39,-1
 260 458 l 1,40,41
 287 458 287 458 367 458 c 0,42,43
 392 458 392 458 409 458 c 0,44,45
 440 458 440 458 448 458 c 1,46,-1
 448 509 l 1,47,-1
 448 645 l 1,48,-1
 548 645 l 1,49,-1
 548 633 l 1,50,-1
 548 602 l 1,51,-1
 548 509 l 1,52,-1
 548 458 l 1,53,54
 549 458 549 458 558 459 c 0,55,56
 595 459 595 459 621 459 c 0,57,58
 625 459 625 459 628.5 459 c 128,-1,59
 632 459 632 459 633.5 459 c 128,-1,60
 635 459 635 459 638 459 c 2,61,-1
 645 459 l 1,62,-1
 645 367 l 1,63,-1
 639 367 l 2,64,65
 636 367 636 367 634 367 c 128,-1,66
 632 367 632 367 628.5 367 c 128,-1,67
 625 367 625 367 621 367 c 0,68,69
 595 367 595 367 558 367 c 2,70,-1
 557 367 l 1,71,-1
 556 367 l 1,72,-1
 555 367 l 1,73,-1
 554 367 l 1,74,-1
 553 367 l 1,75,-1
 552 367 l 1,76,-1
 551 367 l 1,77,-1
 550 367 l 1,78,-1
 548 367 l 1,79,-1
 548 353 l 1,80,-1
 548 307 l 1,81,-1
 548 260 l 1,82,-1
 548 249 l 1,83,84
 556 249 556 249 558 249 c 0,85,86
 595 249 595 249 621 249 c 0,87,88
 625 249 625 249 628 249 c 128,-1,89
 631 249 631 249 633 249 c 128,-1,90
 635 249 635 249 638 249 c 2,91,-1
 645 249 l 1,92,-1
 645 160 l 1,93,-1
 639 160 l 2,94,95
 636 160 636 160 634 160 c 128,-1,96
 632 160 632 160 628.5 160 c 128,-1,97
 625 160 625 160 621 160 c 0,98,99
 595 160 595 160 558 160 c 0,100,101
 557 160 557 160 555 160 c 128,-1,102
 553 160 553 160 551.5 160 c 128,-1,103
 550 160 550 160 549 160 c 1,104,105
 549 -105 549 -105 549 -171 c 1,106,-1
 504 -112 l 1,107,-1
 448 -48 l 1,108,-1
 448 160 l 1,109,110
 434 159 434 159 427 159 c 0,111,112
 388 159 388 159 367 159 c 0,113,114
 300 159 300 159 261 159 c 1,115,116
 261 3 261 3 261 -1 c 1,117,-1
 157 -1 l 1,118,119
 157 79 157 79 158 158 c 1,120,121
 141 158 141 158 113 158 c 0,122,123
 108 158 108 158 103.5 158 c 128,-1,124
 99 158 99 158 95 158 c 2,125,-1
 89 158 l 1,126,-1
 88 247 l 1,127,-1
 95 247 l 2,128,129
 98 247 98 247 102.5 247 c 128,-1,130
 107 247 107 247 112 247 c 0,131,132
 131 247 131 247 158 247 c 1,133,-1
 158 366 l 1,134,135
 150 366 150 366 113 365 c 0,136,137
 108 365 108 365 103.5 365 c 128,-1,138
 99 365 99 365 95 365 c 2,139,-1
 89 365 l 1,140,-1
 88 457 l 1,17,-1
EndSplineSet
EndChar

StartChar: dollar
Encoding: 36 36 7
Width: 561
GlyphClass: 2
Flags: W
LayerCount: 2
Fore
SplineSet
338 313 m 1,0,1
 337 245 337 245 337 176 c 1,2,3
 388 226 388 226 406 313 c 1,4,5
 399 313 399 313 338 313 c 1,0,1
248 504 m 1,6,7
 203 479 203 479 189 425 c 1,8,9
 246 424 246 424 248 424 c 1,10,11
 248 464 248 464 248 504 c 1,6,7
60 106 m 1,12,-1
 66 106 l 1,13,-1
 80 106 l 2,14,15
 91 106 91 106 103 106 c 128,-1,16
 115 106 115 106 125 106 c 0,17,18
 136 106 136 106 146.5 106 c 128,-1,19
 157 106 157 106 165 106 c 0,20,21
 210 111 210 111 246 123 c 1,22,23
 246 218 246 218 247 313 c 1,24,25
 235 313 235 313 142 313 c 0,26,27
 126 313 126 313 113 313 c 128,-1,28
 100 313 100 313 91 313 c 2,29,-1
 77 313 l 1,30,-1
 72 313 l 1,31,-1
 72 417 l 2,32,33
 72 424 72 424 73 428 c 0,34,35
 87 517 87 517 129 563.5 c 128,-1,36
 171 610 171 610 249 627 c 1,37,38
 249 657 249 657 249 687 c 1,39,-1
 340 687 l 1,40,41
 340 663 340 663 340 640 c 1,42,43
 380 642 380 642 434 642 c 1,44,-1
 433 530 l 1,45,46
 379 532 379 532 339 528 c 1,47,-1
 338 424 l 1,48,49
 384 424 384 424 453 424 c 0,50,51
 469 424 469 424 481.5 424 c 128,-1,52
 494 424 494 424 504 424 c 2,53,-1
 518 424 l 1,54,-1
 523 424 l 1,55,-1
 522 312 l 2,56,57
 519 257 519 257 500.5 206 c 128,-1,58
 482 155 482 155 440 107 c 128,-1,59
 398 59 398 59 336 32 c 1,60,-1
 336 -45 l 1,61,-1
 245 -45 l 1,62,-1
 245 6 l 1,63,64
 242 5 242 5 238 5 c 0,65,66
 218 2 218 2 190 1 c 2,67,-1
 184 1 l 1,68,-1
 170 1 l 2,69,70
 159 1 159 1 147 1 c 128,-1,71
 135 1 135 1 125 1 c 128,-1,72
 115 1 115 1 103 1 c 128,-1,73
 91 1 91 1 80 1 c 2,74,-1
 66 1 l 1,75,-1
 60 1 l 1,76,-1
 60 106 l 1,12,-1
EndSplineSet
EndChar

StartChar: percent
Encoding: 37 37 8
Width: 666
GlyphClass: 2
Flags: W
LayerCount: 2
Fore
SplineSet
224.5 547 m 128,-1,1
 206 547 206 547 192.5 533.5 c 128,-1,2
 179 520 179 520 179 501 c 128,-1,3
 179 482 179 482 192.5 469 c 128,-1,4
 206 456 206 456 224.5 456 c 128,-1,5
 243 456 243 456 256.5 469 c 128,-1,6
 270 482 270 482 270 501 c 128,-1,7
 270 520 270 520 256.5 533.5 c 128,-1,0
 243 547 243 547 224.5 547 c 128,-1,1
224.5 601 m 128,-1,9
 266 601 266 601 295 572 c 128,-1,10
 324 543 324 543 324 501.5 c 128,-1,11
 324 460 324 460 295 430.5 c 128,-1,12
 266 401 266 401 224.5 401 c 128,-1,13
 183 401 183 401 153.5 430.5 c 128,-1,14
 124 460 124 460 124 501.5 c 128,-1,15
 124 543 124 543 153.5 572 c 128,-1,8
 183 601 183 601 224.5 601 c 128,-1,9
482.5 218 m 128,-1,17
 464 218 464 218 450.5 204.5 c 128,-1,18
 437 191 437 191 437 172.5 c 128,-1,19
 437 154 437 154 450.5 140.5 c 128,-1,20
 464 127 464 127 482.5 127 c 128,-1,21
 501 127 501 127 514.5 140.5 c 128,-1,22
 528 154 528 154 528 172.5 c 128,-1,23
 528 191 528 191 514.5 204.5 c 128,-1,16
 501 218 501 218 482.5 218 c 128,-1,17
482.5 273 m 128,-1,25
 524 273 524 273 553.5 243.5 c 128,-1,26
 583 214 583 214 583 172.5 c 128,-1,27
 583 131 583 131 553.5 102 c 128,-1,28
 524 73 524 73 482.5 73 c 128,-1,29
 441 73 441 73 412 102 c 128,-1,30
 383 131 383 131 383 172.5 c 128,-1,31
 383 214 383 214 412 243.5 c 128,-1,24
 441 273 441 273 482.5 273 c 128,-1,25
37 -6 m 1,32,-1
 537 653 l 1,33,-1
 629 653 l 1,34,-1
 135 -7 l 1,35,-1
 37 -6 l 1,32,-1
EndSplineSet
EndChar

StartChar: ampersand
Encoding: 38 38 9
Width: 661
GlyphClass: 2
Flags: W
LayerCount: 2
Fore
SplineSet
327 249 m 1,0,-1
 224 99 l 1,1,2
 237 99 237 99 269.5 99 c 128,-1,3
 302 99 302 99 339 99 c 0,4,5
 364 99 364 99 432 99 c 1,6,-1
 327 249 l 1,0,-1
322 415 m 1,7,-1
 412 544 l 1,8,-1
 411 544 l 1,9,-1
 410 544 l 1,10,-1
 409 544 l 1,11,-1
 408 544 l 1,12,-1
 407 544 l 1,13,-1
 406 544 l 1,14,-1
 405 544 l 1,15,-1
 404 544 l 1,16,-1
 403 544 l 1,17,-1
 402 544 l 1,18,-1
 401 544 l 1,19,-1
 400 544 l 1,20,-1
 399 544 l 1,21,-1
 398 544 l 1,22,-1
 397 544 l 1,23,-1
 396 544 l 1,24,-1
 395 544 l 1,25,-1
 394 544 l 1,26,-1
 393 544 l 1,27,-1
 392 544 l 1,28,-1
 391 544 l 1,29,-1
 390 544 l 1,30,-1
 389 544 l 1,31,-1
 388 544 l 1,32,-1
 387 544 l 1,33,-1
 386 544 l 1,34,-1
 385 544 l 1,35,-1
 384 544 l 1,36,-1
 383 544 l 1,37,-1
 382 544 l 1,38,-1
 381 544 l 1,39,-1
 380 544 l 1,40,-1
 379 544 l 1,41,-1
 378 544 l 1,42,-1
 376 544 l 1,43,-1
 375 544 l 1,44,-1
 374 544 l 1,45,-1
 373 544 l 1,46,-1
 372 544 l 1,47,-1
 371 544 l 1,48,-1
 370 544 l 1,49,-1
 369 544 l 1,50,-1
 368 544 l 1,51,-1
 367 544 l 1,52,-1
 366 544 l 1,53,-1
 365 544 l 1,54,-1
 364 544 l 1,55,-1
 363 544 l 1,56,-1
 362 544 l 1,57,-1
 361 544 l 1,58,-1
 360 544 l 1,59,-1
 359 544 l 1,60,-1
 358 544 l 1,61,-1
 357 544 l 1,62,-1
 356 544 l 1,63,-1
 355 544 l 1,64,-1
 354 544 l 1,65,-1
 353 544 l 1,66,-1
 352 544 l 1,67,-1
 351 544 l 1,68,-1
 350 544 l 1,69,-1
 349 544 l 1,70,-1
 348 544 l 1,71,-1
 347 544 l 1,72,-1
 346 544 l 1,73,-1
 345 544 l 1,74,-1
 344 544 l 1,75,-1
 343 544 l 1,76,-1
 342 544 l 1,77,-1
 341 544 l 1,78,-1
 340 544 l 1,79,-1
 339 544 l 1,80,-1
 338 544 l 1,81,-1
 337 544 l 1,82,-1
 336 544 l 1,83,-1
 335 544 l 1,84,-1
 334 544 l 1,85,-1
 333 544 l 1,86,-1
 332 544 l 1,87,-1
 331 544 l 1,88,-1
 330 544 l 2,89,90
 286 544 286 544 229 544 c 1,91,-1
 322 415 l 1,7,-1
482 644 m 1,92,-1
 599 644 l 1,93,-1
 530 544 l 1,94,-1
 384 331 l 1,95,-1
 623 1 l 1,96,-1
 538 0 l 1,97,-1
 538 -1 l 1,98,-1
 534 -1 l 1,99,-1
 521 -1 l 1,100,-1
 520 -1 l 1,101,-1
 476 -1 l 1,102,-1
 471 -1 l 2,103,104
 439 -1 439 -1 402.5 -0.5 c 128,-1,105
 366 0 366 0 324 0 c 128,-1,106
 282 0 282 0 245 0 c 128,-1,107
 208 0 208 0 176 0 c 2,108,-1
 156 0 l 1,109,-1
 143 0 l 1,110,-1
 139 0 l 1,111,-1
 127 0 l 1,112,-1
 114 0 l 1,113,-1
 109 0 l 1,114,-1
 109 1 l 1,115,-1
 33 0 l 1,116,-1
 266 335 l 1,117,-1
 47 645 l 1,118,-1
 156 645 l 1,119,-1
 156 644 l 1,120,121
 162 644 162 644 172 644 c 128,-1,122
 182 644 182 644 192 644 c 0,123,124
 255 644 255 644 330 644 c 128,-1,125
 405 644 405 644 468 644 c 0,126,127
 475 644 475 644 481 644 c 2,128,-1
 482 644 l 1,92,-1
EndSplineSet
EndChar

StartChar: quotesingle
Encoding: 39 39 10
Width: 167
GlyphClass: 2
Flags: W
LayerCount: 2
Fore
SplineSet
129 701 m 1,0,-1
 129 458 l 1,1,-1
 33 458 l 1,2,-1
 33 701 l 1,3,-1
 129 701 l 1,0,-1
EndSplineSet
EndChar

StartChar: parenleft
Encoding: 40 40 11
Width: 828
GlyphClass: 2
Flags: W
LayerCount: 2
Fore
SplineSet
488 545 m 1,0,-1
 791 0 l 1,1,-1
 721 0 l 1,2,-1
 674 0 l 1,3,-1
 138 1 l 1,4,-1
 137 0 l 1,5,-1
 17 1 l 1,6,-1
 404 683 l 1,7,-1
 463 577 l 1,8,-1
 196 104 l 1,9,10
 407 103 407 103 618 102 c 1,11,-1
 430 442 l 1,12,-1
 488 545 l 1,0,-1
EndSplineSet
EndChar

StartChar: parenright
Encoding: 41 41 12
Width: 841
GlyphClass: 2
Flags: W
LayerCount: 2
Fore
SplineSet
327 138 m 1,0,-1
 18 690 l 1,1,-1
 136 690 l 1,2,-1
 681 691 l 1,3,-1
 803 691 l 1,4,-1
 412 -2 l 1,5,-1
 352 105 l 1,6,-1
 624 590 l 1,7,8
 409 589 409 589 194 587 c 1,9,-1
 386 242 l 1,10,-1
 327 138 l 1,0,-1
EndSplineSet
EndChar

StartChar: asterisk
Encoding: 42 42 13
Width: 331
GlyphClass: 2
Flags: W
LayerCount: 2
Fore
SplineSet
278 595 m 1,0,-1
 254 530 l 1,1,-1
 294 473 l 1,2,-1
 224 476 l 1,3,-1
 182 420 l 1,4,-1
 163 487 l 1,5,-1
 97 509 l 1,6,-1
 155 548 l 1,7,-1
 156 618 l 1,8,-1
 211 575 l 1,9,-1
 278 595 l 1,0,-1
EndSplineSet
EndChar

StartChar: plus
Encoding: 43 43 14
Width: 565
GlyphClass: 2
Flags: W
LayerCount: 2
Fore
SplineSet
31 458 m 1,0,-1
 36 458 l 1,1,-1
 52 458 l 2,2,3
 65 458 65 458 79.5 458 c 128,-1,4
 94 458 94 458 108 458 c 0,5,6
 203 458 203 458 224 458 c 1,7,8
 224 460 224 460 224 462 c 128,-1,9
 224 464 224 464 224 465 c 2,10,-1
 224 538 l 2,11,12
 225 547 225 547 224.5 556 c 128,-1,13
 224 565 224 565 224 574 c 128,-1,14
 224 583 224 583 222.5 591.5 c 128,-1,15
 221 600 221 600 219 608 c 128,-1,16
 217 616 217 616 212 622.5 c 128,-1,17
 207 629 207 629 200.5 634 c 128,-1,18
 194 639 194 639 184 642 c 128,-1,19
 174 645 174 645 162 646 c 1,20,-1
 224 645 l 1,21,-1
 341 645 l 1,22,-1
 341 636 l 1,23,-1
 341 612 l 1,24,-1
 341 538 l 1,25,-1
 341 465 l 1,26,-1
 341 459 l 1,27,28
 379 459 379 459 450 459 c 0,29,30
 464 459 464 459 478.5 459 c 128,-1,31
 493 459 493 459 506 459 c 2,32,-1
 522 459 l 1,33,-1
 527 459 l 1,34,-1
 527 389 l 1,35,-1
 522 389 l 1,36,-1
 506 389 l 2,37,38
 493 389 493 389 478.5 389 c 128,-1,39
 464 389 464 389 450 389 c 0,40,41
 404 389 404 389 384 389 c 0,42,43
 342 389 342 389 341 389 c 1,44,-1
 341 378 l 1,45,-1
 341 341 l 1,46,-1
 341 329 l 1,47,-1
 341 319 l 2,48,49
 341 312 341 312 341 303 c 0,50,51
 342 212 342 212 342 0 c 1,52,-1
 289 46 l 1,53,-1
 224 97 l 1,54,-1
 224 324 l 1,55,-1
 224 329 l 2,56,57
 224 358 224 358 224 388 c 1,58,59
 159 388 159 388 108 388 c 0,60,61
 94 388 94 388 79.5 388 c 128,-1,62
 65 388 65 388 52 388 c 2,63,-1
 37 388 l 1,64,-1
 31 388 l 1,65,-1
 31 458 l 1,0,-1
EndSplineSet
EndChar

StartChar: comma
Encoding: 44 44 15
Width: 268
GlyphClass: 2
Flags: W
LayerCount: 2
Fore
SplineSet
42 -124 m 0,0,1
 158 -45 158 -45 146 62 c 1,2,3
 115 66 115 66 100 93 c 0,4,5
 86 116 86 116 93 142 c 128,-1,6
 100 168 100 168 123 181.5 c 128,-1,7
 146 195 146 195 171.5 188 c 128,-1,8
 197 181 197 181 211 158 c 0,9,10
 217 148 217 148 219 137 c 0,11,12
 258 22 258 22 162 -71 c 0,13,14
 126 -106 126 -106 59 -125 c 0,15,16
 38 -131 38 -131 39 -127 c 0,17,18
 39 -126 39 -126 42 -124 c 0,0,1
EndSplineSet
EndChar

StartChar: hyphen
Encoding: 45 45 16
Width: 561
GlyphClass: 2
Flags: W
LayerCount: 2
Fore
SplineSet
27 332 m 1,0,-1
 32 332 l 1,1,-1
 48 332 l 2,2,3
 61 332 61 332 75.5 332 c 128,-1,4
 90 332 90 332 104 332 c 0,5,6
 182 332 182 332 275 332 c 128,-1,7
 368 332 368 332 445 332 c 0,8,9
 460 332 460 332 474.5 332 c 128,-1,10
 489 332 489 332 502 332 c 2,11,-1
 517 332 l 1,12,-1
 523 332 l 1,13,-1
 523 262 l 1,14,-1
 517 262 l 1,15,-1
 502 262 l 2,16,17
 489 262 489 262 474.5 262 c 128,-1,18
 460 262 460 262 445 262 c 0,19,20
 368 262 368 262 275 262 c 128,-1,21
 182 262 182 262 104 262 c 0,22,23
 90 262 90 262 75.5 262 c 128,-1,24
 61 262 61 262 48 262 c 2,25,-1
 32 262 l 1,26,-1
 27 262 l 1,27,-1
 27 332 l 1,0,-1
EndSplineSet
EndChar

StartChar: period
Encoding: 46 46 17
Width: 229
GlyphClass: 2
Flags: W
LayerCount: 2
Fore
SplineSet
191 1 m 1,0,-1
 74 1 l 1,1,-1
 74 118 l 1,2,-1
 191 118 l 1,3,-1
 191 1 l 1,0,-1
EndSplineSet
EndChar

StartChar: slash
Encoding: 47 47 18
Width: 425
GlyphClass: 2
Flags: W
LayerCount: 2
Fore
SplineSet
3 -122 m 1,0,-1
 283 691 l 1,1,-1
 387 690 l 1,2,-1
 107 -124 l 1,3,-1
 3 -122 l 1,0,-1
EndSplineSet
EndChar

StartChar: zero
Encoding: 48 48 19
Width: 552
GlyphClass: 2
Flags: W
LayerCount: 2
Fore
SplineSet
188 358 m 0,0,1
 188 357 188 357 188 351 c 128,-1,2
 188 345 188 345 188 337 c 0,3,4
 188 333 188 333 188 329.5 c 128,-1,5
 188 326 188 326 187.5 323 c 128,-1,6
 187 320 187 320 187 318.5 c 128,-1,7
 187 317 187 317 187 316 c 2,8,-1
 187 312 l 1,9,-1
 187 297 l 1,10,-1
 187 252 l 1,11,-1
 187 207 l 1,12,-1
 187 192 l 1,13,-1
 187 189 l 1,14,-1
 187 188 l 2,15,16
 187 186 187 186 188 184 c 0,17,18
 188 179 188 179 188 172 c 0,19,20
 189 156 189 156 189 137 c 0,21,22
 190 124 190 124 190 109 c 1,23,24
 268 121 268 121 320 158.5 c 128,-1,25
 372 196 372 196 396 273 c 1,26,-1
 398 298 l 2,27,28
 400 331 400 331 401 337 c 0,29,30
 401 350 401 350 401.5 366 c 128,-1,31
 402 382 402 382 402 395 c 2,32,-1
 402 405 l 1,33,-1
 402 412 l 1,34,-1
 402 425 l 2,35,36
 402 433 402 433 402 443 c 128,-1,37
 402 453 402 453 402 464 c 128,-1,38
 402 475 402 475 402.5 484.5 c 128,-1,39
 403 494 403 494 403 503 c 2,40,-1
 403 515 l 1,41,-1
 403 525 l 1,42,-1
 403 531 l 1,43,44
 354 531 354 531 319 526.5 c 128,-1,45
 284 522 284 522 261 511 c 128,-1,46
 238 500 238 500 224 487.5 c 128,-1,47
 210 475 210 475 202.5 453 c 128,-1,48
 195 431 195 431 192 410.5 c 128,-1,49
 189 390 189 390 188 358 c 0,0,1
514 643 m 1,50,-1
 514 638 l 1,51,-1
 514 624 l 1,52,-1
 514 582 l 1,53,-1
 514 539 l 1,54,-1
 514 525 l 1,55,-1
 514 520 l 1,56,-1
 514 515 l 1,57,-1
 514 502 l 2,58,59
 514 494 514 494 514 484.5 c 128,-1,60
 514 475 514 475 514 464 c 128,-1,61
 514 453 514 453 514 443 c 128,-1,62
 514 433 514 433 514 425 c 2,63,-1
 514 412 l 1,64,-1
 514 407 l 1,65,-1
 514 406 l 1,66,-1
 514 402 l 2,67,68
 514 398 514 398 514 392 c 0,69,70
 513 379 513 379 513 363 c 128,-1,71
 513 347 513 347 512 334 c 2,72,-1
 512 324 l 1,73,-1
 512 320 l 2,74,75
 509 280 509 280 499 241.5 c 128,-1,76
 489 203 489 203 468.5 163 c 128,-1,77
 448 123 448 123 418 92 c 128,-1,78
 388 61 388 61 342 37 c 128,-1,79
 296 13 296 13 238 5 c 0,80,81
 216 1 216 1 191 1 c 2,82,-1
 186 1 l 1,83,-1
 173 1 l 1,84,-1
 134 0 l 1,85,-1
 95 0 l 1,86,-1
 82 -1 l 1,87,-1
 77 -1 l 1,88,89
 77 42 77 42 76 85 c 0,90,91
 76 86 76 86 76 88 c 128,-1,92
 76 90 76 90 76 91.5 c 128,-1,93
 76 93 76 93 76 96 c 0,94,95
 75 113 75 113 74 132 c 2,96,-1
 73 168 l 2,97,98
 73 175 73 175 73 180 c 0,99,100
 73 182 73 182 72 183 c 2,101,-1
 72 184 l 1,102,-1
 72 187 l 1,103,-1
 72 192 l 1,104,-1
 72 207 l 1,105,-1
 72 252 l 1,106,-1
 72 297 l 1,107,-1
 72 312 l 1,108,-1
 72 318 l 1,109,-1
 72 319 l 1,110,-1
 72 321 l 2,111,112
 72 323 72 323 73 326 c 0,113,114
 73 332 73 332 73 340 c 128,-1,115
 73 348 73 348 73 354 c 0,116,117
 73 359 73 359 73 361 c 0,118,119
 74 366 74 366 73.5 374.5 c 128,-1,120
 73 383 73 383 73 393 c 128,-1,121
 73 403 73 403 75 417 c 0,122,123
 80 482 80 482 103 525.5 c 128,-1,124
 126 569 126 569 169 594.5 c 128,-1,125
 212 620 212 620 267.5 631 c 128,-1,126
 323 642 323 642 403 643 c 2,127,-1
 432 643 l 1,128,-1
 514 643 l 1,50,-1
EndSplineSet
EndChar

StartChar: one
Encoding: 49 49 20
Width: 449
GlyphClass: 2
Flags: W
LayerCount: 2
Fore
SplineSet
31 244 m 1,0,-1
 31 247 l 1,1,-1
 31 256 l 1,2,-1
 31 276 l 1,3,-1
 31 277 l 1,4,-1
 31 282 l 2,5,6
 31 288 31 288 31 297 c 0,7,8
 32 310 32 310 32 321 c 1,9,-1
 33 321 l 1,10,-1
 33 322 l 1,11,-1
 32 322 l 1,12,13
 35 395 35 395 50 442.5 c 128,-1,14
 65 490 65 490 104 533 c 0,15,16
 142 574 142 574 218 615 c 0,17,18
 248 631 248 631 316 664.5 c 128,-1,19
 384 698 384 698 411 710 c 1,20,-1
 386 634 l 2,21,22
 386 633 386 633 386 632 c 0,23,24
 386 630 386 630 386 627 c 0,25,26
 386 619 386 619 386 607 c 2,27,-1
 385 535 l 2,28,29
 384 437 384 437 383 319 c 128,-1,30
 382 201 382 201 381 102 c 2,31,-1
 381 100 l 1,32,-1
 381 99 l 1,33,-1
 381 97 l 1,34,-1
 381 95 l 1,35,-1
 381 94 l 1,36,-1
 381 92 l 1,37,-1
 381 91 l 1,38,-1
 381 89 l 1,39,-1
 381 88 l 1,40,-1
 381 86 l 1,41,-1
 381 85 l 1,42,-1
 381 83 l 1,43,-1
 381 82 l 1,44,-1
 381 81 l 1,45,-1
 381 79 l 1,46,-1
 381 78 l 1,47,-1
 381 77 l 1,48,-1
 381 76 l 1,49,-1
 381 75 l 1,50,-1
 381 73 l 1,51,-1
 381 72 l 1,52,-1
 381 71 l 1,53,-1
 381 70 l 1,54,-1
 381 69 l 1,55,-1
 381 68 l 1,56,-1
 381 67 l 1,57,-1
 381 66 l 1,58,-1
 381 65 l 1,59,-1
 381 64 l 1,60,-1
 381 63 l 1,61,-1
 381 62 l 1,62,-1
 381 61 l 1,63,-1
 381 60 l 1,64,-1
 381 59 l 1,65,-1
 381 58 l 1,66,-1
 381 57 l 1,67,-1
 381 56 l 1,68,-1
 381 55 l 1,69,-1
 381 54 l 1,70,-1
 381 53 l 1,71,-1
 381 52 l 1,72,-1
 381 51 l 1,73,-1
 381 50 l 1,74,-1
 381 49 l 1,75,-1
 381 48 l 1,76,-1
 381 47 l 1,77,-1
 381 46 l 1,78,-1
 381 45 l 1,79,-1
 381 44 l 1,80,-1
 381 43 l 1,81,-1
 381 42 l 1,82,-1
 381 41 l 1,83,-1
 381 40 l 1,84,-1
 381 39 l 1,85,-1
 381 38 l 1,86,-1
 381 37 l 1,87,-1
 381 36 l 1,88,-1
 381 35 l 1,89,-1
 381 34 l 1,90,-1
 381 33 l 1,91,-1
 381 31 l 2,92,93
 381 19 381 19 381 11 c 0,94,95
 380 5 380 5 380 4 c 1,96,-1
 265 5 l 2,97,98
 265 6 265 6 265 12 c 0,99,100
 265 20 265 20 265 32 c 2,101,-1
 266 103 l 2,102,103
 267 201 267 201 268 320 c 0,104,105
 269 440 269 440 269 513 c 1,106,107
 229 491 229 491 201 460 c 0,108,109
 155 409 155 409 147 315 c 1,110,-1
 147 309 l 1,111,-1
 147 282 l 1,112,-1
 147 256 l 1,113,-1
 147 247 l 1,114,-1
 147 244 l 1,115,-1
 31 244 l 1,0,-1
32 322 m 1,116,-1
 31 321 l 1,117,-1
 32 321 l 1,118,-1
 32 322 l 1,116,-1
EndSplineSet
EndChar

StartChar: two
Encoding: 50 50 21
Width: 492
GlyphClass: 2
Flags: W
LayerCount: 2
Fore
SplineSet
454 0 m 1,0,-1
 450 0 l 1,1,-1
 438 0 l 1,2,-1
 394 0 l 2,3,4
 365 0 365 0 331.5 0 c 128,-1,5
 298 0 298 0 260 0 c 128,-1,6
 222 0 222 0 188.5 0 c 128,-1,7
 155 0 155 0 126 0 c 2,8,-1
 82 0 l 1,9,-1
 70 0 l 1,10,-1
 66 0 l 1,11,-1
 68 70 l 2,12,13
 69 92 69 92 73 114 c 0,14,15
 80 158 80 158 97 198 c 128,-1,16
 114 238 114 238 143.5 274.5 c 128,-1,17
 173 311 173 311 220.5 338 c 128,-1,18
 268 365 268 365 328 377 c 1,19,20
 328 388 328 388 328 395 c 0,21,22
 328 443 328 443 328 482 c 0,23,24
 328 490 328 490 328 497 c 128,-1,25
 328 504 328 504 328 511 c 2,26,-1
 328 521 l 1,27,-1
 328 527 l 1,28,-1
 328 536 l 1,29,30
 205 530 205 530 168 409 c 1,31,-1
 155 350 l 2,32,33
 155 347 155 347 155 345 c 1,34,-1
 154 345 l 1,35,-1
 51 345 l 1,36,-1
 69 466 l 1,37,-1
 70 466 l 1,38,39
 96 550 96 550 157 590.5 c 128,-1,40
 218 631 218 631 331 646 c 0,41,42
 339 645 339 645 350 645 c 0,43,44
 397 645 397 645 444 645 c 1,45,-1
 444 641 l 2,46,47
 444 498 444 498 444 481 c 2,48,-1
 444 394 l 1,49,-1
 444 268 l 1,50,51
 418 269 418 269 392 269 c 0,52,53
 390 268 390 268 387 269 c 0,54,55
 357 271 357 271 322.5 257.5 c 128,-1,56
 288 244 288 244 251.5 207 c 128,-1,57
 215 170 215 170 195 116 c 1,58,59
 214 116 214 116 260 116 c 0,60,61
 298 116 298 116 331.5 115.5 c 128,-1,62
 365 115 365 115 394 115 c 2,63,-1
 438 115 l 1,64,-1
 450 115 l 1,65,-1
 454 115 l 1,66,-1
 454 0 l 1,0,-1
EndSplineSet
EndChar

StartChar: three
Encoding: 51 51 22
Width: 515
GlyphClass: 2
Flags: W
LayerCount: 2
Fore
SplineSet
75 116 m 1,0,-1
 80 116 l 2,1,2
 82 116 82 116 83.5 116 c 128,-1,3
 85 116 85 116 87.5 116 c 128,-1,4
 90 116 90 116 93 116 c 0,5,6
 111 116 111 116 132 116 c 0,7,8
 140 116 140 116 147 116 c 128,-1,9
 154 116 154 116 158.5 116 c 128,-1,10
 163 116 163 116 171 116 c 0,11,12
 326 153 326 153 360 314 c 1,13,14
 326 314 326 314 278 314 c 0,15,16
 204 315 204 315 142 315 c 0,17,18
 127 315 127 315 116 315 c 128,-1,19
 105 315 105 315 97 315 c 2,20,-1
 84 315 l 1,21,-1
 80 315 l 1,22,-1
 80 426 l 1,23,-1
 85 426 l 1,24,-1
 97 426 l 2,25,26
 106 426 106 426 117 426 c 128,-1,27
 128 426 128 426 142 426 c 0,28,29
 197 426 197 426 247 426 c 1,30,31
 319 447 319 447 347 531 c 1,32,33
 329 531 329 531 269 531 c 0,34,35
 196 531 196 531 136 531 c 0,36,37
 124 531 124 531 113 531 c 128,-1,38
 102 531 102 531 92 531 c 2,39,-1
 80 531 l 1,40,-1
 75 531 l 1,41,-1
 75 645 l 1,42,-1
 80 645 l 1,43,-1
 92 645 l 2,44,45
 102 645 102 645 113 645 c 128,-1,46
 124 645 124 645 136 645 c 0,47,48
 196 645 196 645 268.5 645 c 128,-1,49
 341 645 341 645 402 645 c 0,50,51
 413 645 413 645 424.5 645 c 128,-1,52
 436 645 436 645 446 645 c 2,53,-1
 458 645 l 1,54,-1
 462 645 l 1,55,-1
 462 530 l 1,56,-1
 461 530 l 1,57,58
 442 460 442 460 419 426 c 1,59,60
 431 426 431 426 441.5 426 c 128,-1,61
 452 426 452 426 460 426 c 2,62,-1
 473 426 l 1,63,-1
 477 426 l 1,64,-1
 477 314 l 1,65,-1
 476 314 l 1,66,67
 473 263 473 263 457 217.5 c 128,-1,68
 441 172 441 172 409 128.5 c 128,-1,69
 377 85 377 85 321 52 c 128,-1,70
 265 19 265 19 190 2 c 1,71,-1
 189 2 l 1,72,-1
 189 1 l 1,73,-1
 187 1 l 2,74,75
 181 1 181 1 172 1 c 1,76,-1
 171 2 l 1,77,78
 153 2 153 2 132 2 c 2,79,-1
 92 2 l 2,80,81
 89 2 89 2 87 2 c 128,-1,82
 85 2 85 2 83.5 2 c 128,-1,83
 82 2 82 2 79 2 c 2,84,-1
 74 2 l 1,85,-1
 75 116 l 1,0,-1
EndSplineSet
EndChar

StartChar: four
Encoding: 52 52 23
Width: 500
GlyphClass: 2
Flags: W
LayerCount: 2
Fore
SplineSet
184 644 m 1,0,-1
 184 634 l 1,1,-1
 184 609 l 1,2,-1
 184 534 l 1,3,-1
 184 458 l 1,4,-1
 184 433 l 1,5,-1
 184 425 l 1,6,7
 190 425 190 425 198 425 c 128,-1,8
 206 425 206 425 216 425 c 0,9,10
 261 424 261 424 314 424 c 2,11,-1
 315 424 l 1,12,-1
 317 424 l 1,13,-1
 318 424 l 1,14,-1
 319 424 l 1,15,-1
 320 424 l 1,16,-1
 321 424 l 1,17,-1
 322 424 l 1,18,-1
 323 424 l 1,19,-1
 324 424 l 1,20,-1
 325 424 l 1,21,-1
 326 424 l 1,22,-1
 328 424 l 1,23,-1
 329 424 l 1,24,-1
 330 424 l 1,25,-1
 331 424 l 1,26,-1
 332 424 l 1,27,-1
 333 424 l 1,28,-1
 334 424 l 1,29,-1
 335 424 l 1,30,-1
 336 424 l 1,31,-1
 337 424 l 1,32,-1
 338 424 l 1,33,-1
 339 424 l 1,34,-1
 340 424 l 1,35,-1
 341 424 l 1,36,-1
 342 424 l 1,37,-1
 343 424 l 1,38,-1
 344 424 l 1,39,40
 344 440 344 440 344 446 c 2,41,-1
 344 528 l 1,42,-1
 344 646 l 1,43,-1
 461 646 l 1,44,-1
 461 636 l 1,45,-1
 461 609 l 1,46,-1
 461 528 l 1,47,-1
 461 446 l 1,48,-1
 461 419 l 1,49,-1
 461 409 l 1,50,-1
 461 404 l 1,51,-1
 461 390 l 1,52,-1
 461 350 l 1,53,-1
 461 309 l 1,54,-1
 461 295 l 1,55,-1
 461 284 l 2,56,57
 461 277 461 277 461 266 c 0,58,59
 462 166 462 166 462 -70 c 1,60,-1
 409 -18 l 1,61,-1
 344 38 l 1,62,-1
 344 290 l 1,63,-1
 344 295 l 1,64,-1
 344 313 l 1,65,-1
 343 313 l 1,66,-1
 342 313 l 1,67,-1
 341 313 l 1,68,-1
 340 313 l 1,69,-1
 339 313 l 1,70,-1
 338 313 l 1,71,-1
 337 313 l 1,72,-1
 336 313 l 1,73,-1
 335 313 l 1,74,-1
 334 313 l 1,75,-1
 333 313 l 1,76,-1
 332 313 l 1,77,-1
 331 313 l 1,78,-1
 330 313 l 1,79,-1
 329 313 l 1,80,-1
 328 313 l 1,81,-1
 327 313 l 1,82,-1
 326 313 l 1,83,-1
 325 313 l 1,84,-1
 324 313 l 1,85,-1
 323 313 l 1,86,-1
 322 313 l 1,87,-1
 321 313 l 1,88,-1
 320 313 l 1,89,-1
 319 313 l 1,90,-1
 318 313 l 1,91,-1
 317 313 l 1,92,-1
 316 313 l 1,93,-1
 314 313 l 2,94,95
 260 313 260 313 215 313 c 0,96,97
 205 313 205 313 197 313 c 128,-1,98
 189 313 189 313 184 313 c 2,99,-1
 69 313 l 1,100,-1
 69 318 l 2,101,102
 69 443 69 443 69 458 c 2,103,-1
 69 534 l 2,104,105
 69 539 69 539 69.5 557.5 c 128,-1,106
 70 576 70 576 69.5 583 c 128,-1,107
 69 590 69 590 66 604 c 128,-1,108
 63 618 63 618 57.5 624.5 c 128,-1,109
 52 631 52 631 40.5 636.5 c 128,-1,110
 29 642 29 642 12 643 c 0,111,112
 3 644 3 644 35.5 644 c 128,-1,113
 68 644 68 644 69 644 c 2,114,-1
 184 644 l 1,0,-1
EndSplineSet
EndChar

StartChar: five
Encoding: 53 53 24
Width: 561
GlyphClass: 2
Flags: W
LayerCount: 2
Fore
SplineSet
60 106 m 1,0,-1
 66 106 l 1,1,-1
 80 106 l 2,2,3
 91 106 91 106 103 106 c 128,-1,4
 115 106 115 106 125 106 c 0,5,6
 136 106 136 106 146.5 106 c 128,-1,7
 157 106 157 106 165 106 c 0,8,9
 262 116 262 116 323.5 164 c 128,-1,10
 385 212 385 212 406 313 c 1,11,12
 402 313 402 313 347 313 c 0,13,14
 281 313 281 313 226 313 c 0,15,16
 213 313 213 313 203 313 c 128,-1,17
 193 313 193 313 186 313 c 2,18,-1
 174 313 l 1,19,-1
 171 313 l 1,20,-1
 69 313 l 1,21,-1
 69 318 l 2,22,23
 69 443 69 443 69 458 c 2,24,-1
 69 534 l 2,25,26
 69 539 69 539 69 557.5 c 128,-1,27
 69 576 69 576 68.5 583 c 128,-1,28
 68 590 68 590 65 604 c 128,-1,29
 62 618 62 618 56.5 624.5 c 128,-1,30
 51 631 51 631 39.5 636.5 c 128,-1,31
 28 642 28 642 11 643 c 1,32,-1
 69 644 l 1,33,-1
 184 644 l 1,34,-1
 185 644 l 1,35,-1
 186 644 l 1,36,-1
 187 644 l 1,37,-1
 188 644 l 1,38,-1
 189 644 l 1,39,-1
 190 644 l 1,40,-1
 191 644 l 1,41,-1
 192 644 l 1,42,-1
 193 644 l 1,43,-1
 194 644 l 1,44,-1
 195 644 l 1,45,-1
 196 644 l 1,46,-1
 197 644 l 1,47,-1
 198 644 l 1,48,-1
 199 644 l 1,49,-1
 200 644 l 1,50,-1
 201 644 l 1,51,-1
 202 644 l 1,52,-1
 203 644 l 1,53,-1
 204 644 l 1,54,-1
 205 644 l 1,55,-1
 206 644 l 1,56,-1
 207 644 l 1,57,-1
 208 644 l 1,58,-1
 209 644 l 1,59,-1
 210 644 l 1,60,-1
 211 644 l 1,61,-1
 212 644 l 1,62,-1
 213 644 l 1,63,-1
 214 644 l 1,64,-1
 215 644 l 1,65,-1
 216 644 l 1,66,-1
 217 644 l 1,67,-1
 218 644 l 1,68,-1
 219 644 l 1,69,-1
 220 644 l 1,70,-1
 221 644 l 1,71,-1
 222 644 l 1,72,-1
 223 644 l 1,73,-1
 224 644 l 1,74,-1
 225 644 l 1,75,-1
 226 644 l 1,76,-1
 227 644 l 1,77,-1
 228 644 l 1,78,-1
 229 644 l 1,79,-1
 230 644 l 1,80,-1
 231 644 l 1,81,-1
 232 644 l 1,82,-1
 233 644 l 1,83,-1
 234 644 l 1,84,-1
 235 644 l 1,85,-1
 236 644 l 1,86,-1
 237 644 l 1,87,-1
 238 644 l 1,88,-1
 239 644 l 1,89,-1
 240 644 l 1,90,-1
 241 644 l 1,91,-1
 242 644 l 1,92,-1
 243 644 l 1,93,-1
 244 644 l 1,94,-1
 245 644 l 1,95,-1
 246 644 l 1,96,-1
 247 644 l 1,97,-1
 248 644 l 1,98,-1
 249 644 l 1,99,-1
 250 644 l 1,100,-1
 251 644 l 1,101,-1
 253 644 l 2,102,103
 310 643 310 643 357 643 c 0,104,105
 366 643 366 643 375 643 c 128,-1,106
 384 643 384 643 391 643 c 2,107,-1
 401 643 l 1,108,-1
 404 643 l 1,109,-1
 404 529 l 1,110,-1
 401 529 l 1,111,-1
 391 529 l 2,112,113
 384 529 384 529 375 529 c 128,-1,114
 366 529 366 529 357 529 c 0,115,116
 310 529 310 529 253 529 c 0,117,118
 216 529 216 529 184 529 c 1,119,-1
 184 458 l 1,120,-1
 184 433 l 1,121,-1
 184 425 l 1,122,-1
 186 425 l 2,123,124
 194 425 194 425 204 425 c 128,-1,125
 214 425 214 425 226 425 c 0,126,127
 281 424 281 424 347 424 c 128,-1,128
 413 424 413 424 468 424 c 0,129,130
 481 424 481 424 491 424 c 128,-1,131
 501 424 501 424 508 424 c 2,132,-1
 519 424 l 1,133,-1
 523 424 l 1,134,-1
 523 312 l 1,135,-1
 522 312 l 1,136,137
 520 272 520 272 509.5 234 c 128,-1,138
 499 196 499 196 477 158 c 128,-1,139
 455 120 455 120 424 89.5 c 128,-1,140
 393 59 393 59 345 36.5 c 128,-1,141
 297 14 297 14 238 5 c 0,142,143
 218 2 218 2 190 1 c 2,144,-1
 184 1 l 1,145,-1
 170 1 l 2,146,147
 159 1 159 1 147 1 c 128,-1,148
 135 1 135 1 125 1 c 128,-1,149
 115 1 115 1 103 1 c 128,-1,150
 91 1 91 1 80 1 c 2,151,-1
 66 1 l 1,152,-1
 60 1 l 1,153,-1
 60 106 l 1,0,-1
EndSplineSet
EndChar

StartChar: six
Encoding: 54 54 25
Width: 534
GlyphClass: 2
Flags: W
LayerCount: 2
Fore
SplineSet
382 222 m 1,0,1
 370 221 370 221 273 220 c 2,2,-1
 171 219 l 1,3,-1
 171 218 l 2,4,5
 171 201 171 201 171 180 c 128,-1,6
 171 159 171 159 172 141 c 0,7,8
 172 134 172 134 172 128 c 2,9,-1
 172 124 l 1,10,-1
 172 119 l 2,11,12
 172 114 172 114 172 113 c 1,13,14
 277 114 277 114 323.5 140.5 c 128,-1,15
 370 167 370 167 382 222 c 1,0,1
491 541 m 1,16,-1
 486 541 l 2,17,18
 481 541 481 541 473 541 c 0,19,20
 456 540 456 540 435 540 c 0,21,22
 411 539 411 539 405 539 c 0,23,24
 308 527 308 527 246.5 479 c 128,-1,25
 185 431 185 431 166 330 c 1,26,27
 183 330 183 330 272 331 c 2,28,-1
 274 331 l 1,29,-1
 276 331 l 1,30,-1
 277 331 l 1,31,-1
 279 331 l 1,32,-1
 280 331 l 1,33,-1
 282 331 l 1,34,-1
 284 331 l 1,35,-1
 285 331 l 1,36,-1
 287 331 l 1,37,-1
 288 331 l 1,38,-1
 289 331 l 1,39,-1
 291 331 l 1,40,-1
 292 331 l 1,41,-1
 294 331 l 1,42,-1
 295 331 l 1,43,-1
 297 331 l 1,44,-1
 298 331 l 1,45,-1
 299 331 l 1,46,-1
 301 331 l 1,47,-1
 302 331 l 1,48,-1
 303 332 l 1,49,-1
 305 332 l 1,50,-1
 306 332 l 1,51,-1
 307 332 l 1,52,-1
 309 332 l 1,53,-1
 310 332 l 1,54,-1
 311 332 l 1,55,-1
 312 332 l 1,56,-1
 313 332 l 1,57,-1
 315 332 l 1,58,-1
 316 332 l 1,59,-1
 317 332 l 1,60,-1
 318 332 l 1,61,-1
 319 332 l 1,62,-1
 320 332 l 1,63,-1
 321 332 l 1,64,-1
 323 332 l 1,65,-1
 324 332 l 1,66,-1
 325 332 l 1,67,-1
 326 332 l 1,68,-1
 327 332 l 1,69,-1
 328 332 l 1,70,-1
 329 332 l 1,71,-1
 330 332 l 1,72,-1
 331 332 l 1,73,-1
 332 332 l 1,74,-1
 333 332 l 1,75,-1
 334 332 l 1,76,-1
 335 332 l 1,77,-1
 336 332 l 1,78,-1
 337 332 l 1,79,-1
 338 332 l 1,80,-1
 339 332 l 1,81,-1
 340 332 l 1,82,-1
 341 332 l 1,83,-1
 342 332 l 1,84,-1
 343 332 l 1,85,-1
 344 332 l 1,86,-1
 345 332 l 1,87,-1
 346 332 l 1,88,-1
 347 332 l 1,89,-1
 348 332 l 1,90,-1
 349 332 l 1,91,-1
 350 332 l 1,92,-1
 351 332 l 1,93,-1
 352 332 l 1,94,-1
 353 332 l 1,95,-1
 354 332 l 1,96,-1
 355 332 l 1,97,-1
 356 332 l 1,98,-1
 357 332 l 1,99,-1
 358 332 l 1,100,-1
 359 332 l 1,101,-1
 360 332 l 1,102,-1
 361 332 l 1,103,-1
 362 332 l 1,104,-1
 363 332 l 1,105,-1
 364 332 l 1,106,-1
 365 332 l 1,107,-1
 366 332 l 1,108,-1
 367 332 l 1,109,-1
 368 332 l 1,110,-1
 369 332 l 1,111,-1
 370 332 l 1,112,-1
 371 332 l 1,113,-1
 372 332 l 1,114,-1
 373 332 l 1,115,-1
 374 332 l 1,116,-1
 375 332 l 1,117,-1
 376 332 l 1,118,-1
 377 332 l 1,119,-1
 378 332 l 1,120,-1
 379 332 l 1,121,-1
 380 332 l 1,122,-1
 381 332 l 1,123,-1
 382 332 l 1,124,-1
 383 332 l 1,125,-1
 384 332 l 1,126,-1
 385 332 l 1,127,-1
 386 332 l 1,128,-1
 387 332 l 1,129,-1
 388 332 l 1,130,-1
 389 332 l 1,131,-1
 390 332 l 1,132,-1
 391 332 l 1,133,-1
 392 333 l 1,134,-1
 393 333 l 1,135,-1
 394 333 l 1,136,-1
 395 333 l 1,137,-1
 396 333 l 1,138,-1
 397 333 l 1,139,-1
 398 333 l 1,140,-1
 399 333 l 1,141,-1
 400 333 l 1,142,-1
 401 333 l 1,143,-1
 402 333 l 1,144,-1
 403 333 l 1,145,-1
 404 333 l 1,146,-1
 405 333 l 1,147,-1
 406 333 l 1,148,-1
 407 333 l 1,149,-1
 408 333 l 1,150,-1
 409 333 l 1,151,-1
 410 333 l 1,152,-1
 411 333 l 1,153,-1
 412 333 l 1,154,-1
 413 333 l 1,155,-1
 414 333 l 1,156,-1
 415 333 l 1,157,-1
 416 333 l 1,158,-1
 417 333 l 1,159,-1
 418 333 l 1,160,-1
 419 333 l 1,161,-1
 421 333 l 2,162,163
 450 333 450 333 470 333 c 0,164,165
 478 333 478 333 484 334 c 2,166,-1
 485 334 l 1,167,-1
 488 334 l 1,168,-1
 489 334 l 1,169,-1
 489 331 l 1,170,171
 499 275 499 275 496 231 c 0,172,173
 492 166 492 166 470 122.5 c 128,-1,174
 448 79 448 79 405.5 53 c 128,-1,175
 363 27 363 27 308 15.5 c 128,-1,176
 253 4 253 4 173 2 c 1,177,-1
 173 1 l 1,178,-1
 145 1 l 1,179,-1
 59 0 l 1,180,-1
 59 1 l 2,181,182
 59 3 59 3 59 5 c 0,183,184
 59 11 59 11 59 19 c 0,185,186
 59 38 59 38 58 61 c 2,187,-1
 58 103 l 2,188,189
 58 111 58 111 58 117 c 0,190,191
 58 119 58 119 58 121 c 2,192,-1
 58 122 l 1,193,-1
 57 127 l 2,194,195
 57 132 57 132 57 140 c 0,196,197
 57 157 57 157 57 178 c 0,198,199
 57 189 57 189 57 199 c 128,-1,200
 57 209 57 209 56 217 c 0,201,202
 56 221 56 221 56 224 c 128,-1,203
 56 227 56 227 56 230 c 0,204,205
 56 234 56 234 56 235 c 2,206,-1
 56 236 l 1,207,-1
 56 237 l 2,208,209
 56 238 56 238 56 240 c 0,210,211
 56 244 56 244 56 249 c 0,212,213
 57 256 57 256 57 263.5 c 128,-1,214
 57 271 57 271 57 278 c 0,215,216
 57 287 57 287 57 294 c 128,-1,217
 57 301 57 301 57 308 c 0,218,219
 57 309 57 309 57 312 c 0,220,221
 57 316 57 316 57 319 c 0,222,223
 57 320 57 320 57 321 c 0,224,225
 60 361 60 361 69.5 399 c 128,-1,226
 79 437 79 437 99.5 477 c 128,-1,227
 120 517 120 517 150 548.5 c 128,-1,228
 180 580 180 580 225.5 604.5 c 128,-1,229
 271 629 271 629 328 638 c 0,230,231
 351 642 351 642 375 642 c 1,232,-1
 380 643 l 2,233,234
 386 643 386 643 393 643 c 0,235,236
 411 643 411 643 432 643.5 c 128,-1,237
 453 644 453 644 471 645 c 0,238,239
 478 645 478 645 483 645 c 2,240,-1
 488 645 l 1,241,-1
 491 541 l 1,16,-1
EndSplineSet
EndChar

StartChar: seven
Encoding: 55 55 26
Width: 637
GlyphClass: 2
Flags: W
LayerCount: 2
Fore
SplineSet
482 644 m 1,0,-1
 599 644 l 1,1,-1
 530 544 l 1,2,-1
 157 1 l 1,3,-1
 33 0 l 1,4,-1
 412 544 l 1,5,-1
 411 544 l 1,6,-1
 410 544 l 1,7,-1
 409 544 l 1,8,-1
 408 544 l 1,9,-1
 407 544 l 1,10,-1
 406 544 l 1,11,-1
 405 544 l 1,12,-1
 404 544 l 1,13,-1
 403 544 l 1,14,-1
 402 544 l 1,15,-1
 401 544 l 1,16,-1
 400 544 l 1,17,-1
 399 544 l 1,18,-1
 398 544 l 1,19,-1
 397 544 l 1,20,-1
 396 544 l 1,21,-1
 395 544 l 1,22,-1
 394 544 l 1,23,-1
 393 544 l 1,24,-1
 392 544 l 1,25,-1
 391 544 l 1,26,-1
 390 544 l 1,27,-1
 389 544 l 1,28,-1
 388 544 l 1,29,-1
 387 544 l 1,30,-1
 386 544 l 1,31,-1
 385 544 l 1,32,-1
 384 544 l 1,33,-1
 383 544 l 1,34,-1
 382 544 l 1,35,-1
 381 544 l 1,36,-1
 380 544 l 1,37,-1
 379 544 l 1,38,-1
 378 544 l 1,39,-1
 376 544 l 1,40,-1
 375 544 l 1,41,-1
 374 544 l 1,42,-1
 373 544 l 1,43,-1
 372 544 l 1,44,-1
 371 544 l 1,45,-1
 370 544 l 1,46,-1
 369 544 l 1,47,-1
 368 544 l 1,48,-1
 367 544 l 1,49,-1
 366 544 l 1,50,-1
 365 544 l 1,51,-1
 364 544 l 1,52,-1
 363 544 l 1,53,-1
 362 544 l 1,54,-1
 361 544 l 1,55,-1
 360 544 l 1,56,-1
 359 544 l 1,57,-1
 358 544 l 1,58,-1
 357 544 l 1,59,-1
 356 544 l 1,60,-1
 355 544 l 1,61,-1
 354 544 l 1,62,-1
 353 544 l 1,63,-1
 352 544 l 1,64,-1
 351 544 l 1,65,-1
 350 544 l 1,66,-1
 349 544 l 1,67,-1
 348 544 l 1,68,-1
 347 544 l 1,69,-1
 346 544 l 1,70,-1
 345 544 l 1,71,-1
 344 544 l 1,72,-1
 343 544 l 1,73,-1
 342 544 l 1,74,-1
 341 544 l 1,75,-1
 340 544 l 1,76,-1
 339 544 l 1,77,-1
 338 544 l 1,78,-1
 337 544 l 1,79,-1
 336 544 l 1,80,-1
 335 544 l 1,81,-1
 334 544 l 1,82,-1
 333 544 l 1,83,-1
 332 544 l 1,84,-1
 331 544 l 1,85,-1
 330 544 l 2,86,87
 231 544 231 544 225 544 c 1,88,-1
 288 452 l 1,89,-1
 238 374 l 1,90,-1
 47 645 l 1,91,-1
 156 645 l 1,92,-1
 156 644 l 1,93,94
 162 644 162 644 172 644 c 128,-1,95
 182 644 182 644 192 644 c 0,96,97
 255 644 255 644 330 644 c 128,-1,98
 405 644 405 644 468 644 c 0,99,100
 475 644 475 644 481 644 c 2,101,-1
 482 644 l 1,0,-1
EndSplineSet
EndChar

StartChar: eight
Encoding: 56 56 27
Width: 555
GlyphClass: 2
Flags: W
LayerCount: 2
Fore
SplineSet
406 313 m 1,0,1
 382 313 382 313 299 313 c 0,2,3
 267 313 267 313 235.5 313 c 128,-1,4
 204 313 204 313 187 313 c 1,5,-1
 187 312 l 1,6,-1
 187 297 l 1,7,-1
 187 252 l 1,8,-1
 187 207 l 1,9,-1
 187 192 l 1,10,-1
 187 189 l 2,11,12
 187 188 187 188 187 187 c 128,-1,13
 187 186 187 186 187 184 c 0,14,15
 188 179 188 179 188 172 c 2,16,-1
 189 137 l 2,17,18
 190 123 190 123 190 109 c 1,19,20
 276 123 276 123 331 171 c 128,-1,21
 386 219 386 219 406 313 c 1,0,1
189 425 m 1,22,23
 272 424 272 424 299 424 c 0,24,25
 376 424 376 424 403 424 c 1,26,-1
 403 425 l 2,27,28
 403 433 403 433 403 443 c 128,-1,29
 403 453 403 453 403 464 c 128,-1,30
 403 475 403 475 403 484.5 c 128,-1,31
 403 494 403 494 403 503 c 2,32,-1
 403 515 l 1,33,-1
 403 520 l 1,34,-1
 403 525 l 1,35,-1
 403 531 l 1,36,37
 297 531 297 531 250 505 c 128,-1,38
 203 479 203 479 189 425 c 1,22,23
518 643 m 1,39,-1
 518 638 l 1,40,-1
 518 624 l 1,41,-1
 518 582 l 1,42,-1
 518 539 l 1,43,-1
 518 525 l 1,44,-1
 518 520 l 1,45,-1
 518 515 l 1,46,-1
 518 502 l 2,47,48
 518 494 518 494 518 484.5 c 128,-1,49
 518 475 518 475 518 464 c 128,-1,50
 518 453 518 453 518 443 c 128,-1,51
 518 433 518 433 517 425 c 2,52,-1
 517 412 l 1,53,-1
 517 407 l 1,54,-1
 517 406 l 1,55,-1
 517 405 l 2,56,57
 517 404 517 404 517 402 c 0,58,59
 517 398 517 398 517 392 c 0,60,61
 517 379 517 379 516.5 363 c 128,-1,62
 516 347 516 347 516 334 c 0,63,64
 516 333 516 333 516 331.5 c 128,-1,65
 516 330 516 330 515 329 c 1,66,-1
 516 329 l 1,67,68
 516 326 516 326 515 322 c 2,69,-1
 515 320 l 2,70,71
 512 280 512 280 502 242 c 128,-1,72
 492 204 492 204 470.5 164 c 128,-1,73
 449 124 449 124 419 92.5 c 128,-1,74
 389 61 389 61 342.5 37 c 128,-1,75
 296 13 296 13 238 5 c 0,76,77
 216 1 216 1 191 1 c 2,78,-1
 186 1 l 1,79,-1
 173 1 l 1,80,-1
 134 0 l 1,81,-1
 95 0 l 1,82,-1
 82 -1 l 1,83,-1
 77 -1 l 1,84,-1
 76 80 l 2,85,86
 76 81 76 81 76 85 c 128,-1,87
 76 89 76 89 76 96 c 2,88,-1
 74 132 l 1,89,-1
 73 168 l 2,90,91
 73 175 73 175 72 180 c 0,92,93
 72 182 72 182 72 183 c 2,94,-1
 72 184 l 1,95,-1
 72 186 l 1,96,-1
 72 192 l 1,97,-1
 72 207 l 1,98,-1
 72 252 l 1,99,-1
 72 297 l 1,100,-1
 72 312 l 1,101,-1
 72 317 l 1,102,-1
 72 319 l 1,103,-1
 72 320 l 2,104,105
 72 322 72 322 72 325 c 0,106,107
 73 332 73 332 73 339.5 c 128,-1,108
 73 347 73 347 73 354 c 0,109,110
 73 359 73 359 73 360 c 2,111,-1
 73 361 l 2,112,113
 74 366 74 366 73.5 374.5 c 128,-1,114
 73 383 73 383 73 393 c 128,-1,115
 73 403 73 403 75 417 c 0,116,117
 80 482 80 482 103 525.5 c 128,-1,118
 126 569 126 569 169 594.5 c 128,-1,119
 212 620 212 620 267.5 631 c 128,-1,120
 323 642 323 642 403 643 c 2,121,-1
 432 643 l 1,122,-1
 518 643 l 1,39,-1
EndSplineSet
EndChar

StartChar: nine
Encoding: 57 57 28
Width: 555
GlyphClass: 2
Flags: W
LayerCount: 2
Fore
SplineSet
189 425 m 1,0,1
 272 424 272 424 299 424 c 0,2,3
 376 424 376 424 403 424 c 1,4,-1
 403 425 l 2,5,6
 403 433 403 433 403 443 c 128,-1,7
 403 453 403 453 403 464 c 128,-1,8
 403 475 403 475 403 484.5 c 128,-1,9
 403 494 403 494 403 503 c 2,10,-1
 403 515 l 1,11,-1
 403 520 l 1,12,-1
 403 525 l 1,13,-1
 403 531 l 1,14,15
 297 531 297 531 250 505 c 128,-1,16
 203 479 203 479 189 425 c 1,0,1
76 104 m 1,17,-1
 81 104 l 2,18,19
 86 105 86 105 94 105 c 0,20,21
 111 105 111 105 133 105 c 0,22,23
 149 105 149 105 163 105 c 0,24,25
 260 116 260 116 322.5 163.5 c 128,-1,26
 385 211 385 211 406 313 c 1,27,28
 382 313 382 313 299 313 c 0,29,30
 217 313 217 313 149 313 c 0,31,32
 134 313 134 313 121.5 313 c 128,-1,33
 109 313 109 313 100 313 c 2,34,-1
 86 313 l 1,35,-1
 85 313 l 1,36,-1
 82 313 l 1,37,-1
 81 313 l 1,38,-1
 81 316 l 1,39,40
 71 372 71 372 75 417 c 0,41,42
 80 482 80 482 103 525.5 c 128,-1,43
 126 569 126 569 169 594.5 c 128,-1,44
 212 620 212 620 267.5 631 c 128,-1,45
 323 642 323 642 403 643 c 2,46,-1
 432 643 l 1,47,-1
 518 643 l 1,48,-1
 518 638 l 1,49,-1
 518 624 l 1,50,-1
 518 582 l 1,51,-1
 518 539 l 1,52,-1
 518 525 l 1,53,-1
 518 520 l 1,54,-1
 518 515 l 1,55,-1
 518 502 l 2,56,57
 518 494 518 494 518 484.5 c 128,-1,58
 518 475 518 475 518 464 c 128,-1,59
 518 453 518 453 518 443 c 128,-1,60
 518 433 518 433 517 425 c 2,61,-1
 517 412 l 1,62,-1
 517 407 l 1,63,-1
 517 406 l 1,64,-1
 517 405 l 2,65,66
 517 404 517 404 517 402 c 0,67,68
 517 398 517 398 517 392 c 0,69,70
 517 379 517 379 516.5 363 c 128,-1,71
 516 347 516 347 516 334 c 0,72,73
 516 333 516 333 516 331.5 c 128,-1,74
 516 330 516 330 515 329 c 1,75,-1
 516 329 l 1,76,77
 516 326 516 326 515 322 c 2,78,-1
 515 320 l 2,79,80
 512 280 512 280 502 242 c 128,-1,81
 492 204 492 204 470.5 164 c 128,-1,82
 449 124 449 124 419 92.5 c 128,-1,83
 389 61 389 61 342.5 37 c 128,-1,84
 296 13 296 13 238 5 c 0,85,86
 216 1 216 1 191 1 c 2,87,-1
 186 1 l 1,88,-1
 173 1 l 1,89,-1
 134 0 l 1,90,-1
 95 0 l 1,91,-1
 82 -1 l 1,92,-1
 77 -1 l 1,93,-1
 76 104 l 1,17,-1
EndSplineSet
EndChar

StartChar: colon
Encoding: 58 58 29
Width: 231
GlyphClass: 2
Flags: W
LayerCount: 2
Fore
SplineSet
191 1 m 5,0,-1
 74 1 l 5,1,-1
 74 118 l 5,2,-1
 191 118 l 5,3,-1
 191 1 l 5,0,-1
193 302 m 5,4,-1
 76 302 l 5,5,-1
 76 419 l 5,6,-1
 193 419 l 5,7,-1
 193 302 l 5,4,-1
EndSplineSet
EndChar

StartChar: semicolon
Encoding: 59 59 30
Width: 268
GlyphClass: 2
Flags: W
LayerCount: 2
Fore
SplineSet
42 -124 m 0,0,1
 158 -45 158 -45 146 62 c 1,2,3
 115 66 115 66 100 93 c 0,4,5
 86 116 86 116 93 142 c 128,-1,6
 100 168 100 168 123 181.5 c 128,-1,7
 146 195 146 195 171.5 188 c 128,-1,8
 197 181 197 181 211 158 c 0,9,10
 217 148 217 148 219 137 c 0,11,12
 258 22 258 22 162 -71 c 0,13,14
 126 -106 126 -106 59 -125 c 0,15,16
 38 -131 38 -131 39 -127 c 0,17,18
 39 -126 39 -126 42 -124 c 0,0,1
209 300 m 1,19,-1
 91 300 l 1,20,-1
 91 417 l 1,21,-1
 209 417 l 1,22,-1
 209 300 l 1,19,-1
EndSplineSet
EndChar

StartChar: less
Encoding: 60 60 31
Width: 575
GlyphClass: 2
Flags: W
LayerCount: 2
Fore
SplineSet
126 371 m 1,0,-1
 532 136 l 1,1,-1
 530 51 l 1,2,-1
 51 331 l 1,3,-1
 126 371 l 1,0,-1
149 389 m 1,4,-1
 538 598 l 1,5,-1
 537 516 l 1,6,-1
 222 347 l 1,7,-1
 149 389 l 1,4,-1
EndSplineSet
EndChar

StartChar: equal
Encoding: 61 61 32
Width: 566
GlyphClass: 2
Flags: W
LayerCount: 2
Fore
SplineSet
32 453 m 1,0,-1
 38 453 l 1,1,-1
 54 453 l 2,2,3
 66 453 66 453 80.5 453 c 128,-1,4
 95 453 95 453 110 453 c 0,5,6
 187 453 187 453 280 453 c 128,-1,7
 373 453 373 453 451 453 c 0,8,9
 466 453 466 453 480.5 453 c 128,-1,10
 495 453 495 453 507 453 c 2,11,-1
 523 453 l 1,12,-1
 529 453 l 1,13,-1
 529 383 l 1,14,-1
 523 383 l 1,15,-1
 507 383 l 2,16,17
 495 383 495 383 480.5 383 c 128,-1,18
 466 383 466 383 451 383 c 0,19,20
 374 383 374 383 280.5 383 c 128,-1,21
 187 383 187 383 110 383 c 0,22,23
 95 383 95 383 80.5 383 c 128,-1,24
 66 383 66 383 54 383 c 2,25,-1
 38 383 l 1,26,-1
 32 383 l 1,27,-1
 32 453 l 1,0,-1
31 251 m 1,28,-1
 36 251 l 1,29,-1
 52 251 l 2,30,31
 65 251 65 251 79.5 251 c 128,-1,32
 94 251 94 251 108 251 c 0,33,34
 186 251 186 251 279 251 c 128,-1,35
 372 251 372 251 450 251 c 0,36,37
 464 251 464 251 478.5 251 c 128,-1,38
 493 251 493 251 506 251 c 2,39,-1
 522 251 l 1,40,-1
 527 251 l 1,41,-1
 527 181 l 1,42,-1
 522 181 l 1,43,-1
 506 181 l 2,44,45
 493 181 493 181 478.5 181 c 128,-1,46
 464 181 464 181 450 181 c 0,47,48
 372 181 372 181 279 181 c 128,-1,49
 186 181 186 181 108 181 c 0,50,51
 94 181 94 181 79.5 181 c 128,-1,52
 65 181 65 181 52 181 c 2,53,-1
 37 181 l 1,54,-1
 31 181 l 1,55,-1
 31 251 l 1,28,-1
EndSplineSet
EndChar

StartChar: greater
Encoding: 62 62 33
Width: 588
GlyphClass: 2
Flags: W
LayerCount: 2
Fore
SplineSet
476 299 m 1,0,-1
 68 526 l 1,1,-1
 68 611 l 1,2,-1
 550 341 l 1,3,-1
 476 299 l 1,0,-1
453 282 m 1,4,-1
 71 66 l 1,5,-1
 70 148 l 1,6,-1
 380 322 l 1,7,-1
 453 282 l 1,4,-1
EndSplineSet
EndChar

StartChar: question
Encoding: 63 63 34
Width: 416
GlyphClass: 2
Flags: W
LayerCount: 2
Fore
SplineSet
71 357 m 1,0,-1
 71 434 l 1,1,-1
 74 434 l 2,2,3
 76 434 76 434 78.5 434 c 128,-1,4
 81 434 81 434 84 434 c 0,5,6
 98 434 98 434 119 434 c 0,7,8
 167 434 167 434 224 434 c 0,9,10
 280 434 280 434 295 434 c 1,11,12
 280 509 280 509 236.5 544.5 c 128,-1,13
 193 580 193 580 125 587 c 1,14,-1
 102 587 l 1,15,-1
 69 587 l 1,16,-1
 58 587 l 1,17,-1
 54 587 l 1,18,-1
 54 665 l 1,19,-1
 58 665 l 1,20,-1
 69 665 l 1,21,-1
 102 665 l 1,22,-1
 135 665 l 1,23,-1
 146 665 l 1,24,-1
 150 665 l 1,25,-1
 150 664 l 1,26,27
 164 664 164 664 176 662 c 0,28,29
 228 654 228 654 267.5 631 c 128,-1,30
 307 608 307 608 329.5 575 c 128,-1,31
 352 542 352 542 364 507 c 128,-1,32
 376 472 376 472 378 435 c 2,33,-1
 378 352 l 1,34,-1
 375 352 l 2,35,36
 373 352 373 352 372 352 c 128,-1,37
 371 352 371 352 369.5 352 c 128,-1,38
 368 352 368 352 365 352 c 0,39,40
 351 352 351 352 331 352 c 0,41,42
 283 352 283 352 225 352 c 0,43,44
 171 351 171 351 155 351 c 1,45,46
 162 304 162 304 189.5 278.5 c 128,-1,47
 217 253 217 253 281 251 c 1,48,-1
 280 175 l 1,49,50
 175 178 175 178 130.5 215 c 128,-1,51
 86 252 86 252 73 348 c 0,52,53
 72 351 72 351 72 356 c 2,54,-1
 71 357 l 1,0,-1
249 116 m 128,-1,56
 273 116 273 116 290.5 99 c 128,-1,57
 308 82 308 82 308 57.5 c 128,-1,58
 308 33 308 33 290.5 16 c 128,-1,59
 273 -1 273 -1 249 -1 c 128,-1,60
 225 -1 225 -1 207.5 16 c 128,-1,61
 190 33 190 33 190 57.5 c 128,-1,62
 190 82 190 82 207.5 99 c 128,-1,55
 225 116 225 116 249 116 c 128,-1,56
EndSplineSet
EndChar

StartChar: at
Encoding: 64 64 35
Width: 864
GlyphClass: 2
Flags: W
LayerCount: 2
Fore
SplineSet
475 130 m 0,0,1
 482 179 482 179 492 255 c 2,2,-1
 506 354 l 1,3,4
 492 356 492 356 482 356 c 0,5,6
 466 356 466 356 454 353 c 0,7,8
 386 332 386 332 355 281 c 0,9,10
 328 238 328 238 338 190 c 0,11,12
 346 147 346 147 379 128 c 0,13,14
 416 107 416 107 473 129 c 0,15,16
 474 129 474 129 475 130 c 0,0,1
608 431 m 0,17,18
 608 430 608 430 608 427 c 0,19,20
 607 422 607 422 606 415 c 0,21,22
 604 397 604 397 600 372 c 1,23,-1
 600 371 l 1,24,-1
 600 369 l 1,25,-1
 600 368 l 1,26,-1
 599 367 l 1,27,-1
 599 365 l 1,28,-1
 599 364 l 1,29,-1
 599 363 l 1,30,-1
 599 362 l 1,31,-1
 599 361 l 1,32,-1
 598 359 l 1,33,-1
 598 358 l 1,34,-1
 598 357 l 1,35,-1
 598 356 l 1,36,-1
 598 355 l 1,37,-1
 598 354 l 1,38,-1
 597 352 l 1,39,-1
 597 351 l 1,40,-1
 597 350 l 1,41,-1
 597 349 l 1,42,-1
 597 348 l 1,43,-1
 597 347 l 1,44,-1
 597 346 l 1,45,-1
 596 345 l 1,46,-1
 596 344 l 1,47,-1
 596 343 l 1,48,-1
 596 342 l 1,49,-1
 596 341 l 1,50,-1
 596 340 l 1,51,-1
 596 339 l 1,52,-1
 596 338 l 1,53,-1
 595 337 l 1,54,-1
 595 336 l 1,55,-1
 595 335 l 1,56,-1
 595 334 l 1,57,-1
 595 333 l 1,58,-1
 595 332 l 1,59,-1
 595 331 l 1,60,-1
 594 331 l 1,61,-1
 594 330 l 1,62,-1
 594 329 l 1,63,-1
 594 328 l 1,64,-1
 594 327 l 1,65,-1
 594 326 l 1,66,-1
 594 325 l 1,67,-1
 594 324 l 1,68,-1
 593 323 l 1,69,-1
 593 322 l 1,70,-1
 593 321 l 1,71,-1
 593 320 l 1,72,-1
 593 319 l 1,73,-1
 593 318 l 1,74,-1
 593 317 l 1,75,-1
 592 316 l 1,76,-1
 592 315 l 1,77,-1
 592 314 l 1,78,-1
 592 313 l 1,79,-1
 592 312 l 1,80,-1
 592 311 l 1,81,-1
 592 310 l 1,82,-1
 591 309 l 1,83,-1
 591 308 l 1,84,-1
 591 307 l 1,85,-1
 591 306 l 1,86,-1
 591 305 l 1,87,-1
 591 304 l 1,88,-1
 591 303 l 1,89,-1
 591 302 l 1,90,-1
 590 301 l 1,91,-1
 590 300 l 1,92,-1
 590 299 l 1,93,-1
 590 298 l 1,94,-1
 590 297 l 1,95,-1
 590 296 l 1,96,-1
 590 295 l 1,97,-1
 589 294 l 1,98,-1
 589 293 l 1,99,-1
 589 292 l 1,100,-1
 589 291 l 1,101,-1
 589 290 l 1,102,-1
 589 289 l 1,103,-1
 589 288 l 1,104,-1
 588 287 l 1,105,-1
 588 286 l 1,106,-1
 588 285 l 1,107,-1
 588 284 l 1,108,-1
 588 283 l 1,109,-1
 588 282 l 1,110,-1
 588 281 l 1,111,-1
 588 280 l 1,112,-1
 587 280 l 1,113,-1
 587 279 l 1,114,-1
 587 278 l 1,115,-1
 587 277 l 1,116,-1
 587 276 l 1,117,-1
 587 275 l 1,118,-1
 587 274 l 1,119,-1
 586 273 l 1,120,-1
 586 272 l 1,121,-1
 586 271 l 1,122,-1
 586 270 l 1,123,-1
 586 269 l 1,124,-1
 586 268 l 1,125,-1
 586 267 l 1,126,-1
 586 266 l 1,127,-1
 585 265 l 1,128,-1
 585 264 l 1,129,-1
 585 263 l 1,130,-1
 585 262 l 1,131,-1
 585 261 l 1,132,-1
 585 260 l 1,133,-1
 585 259 l 1,134,-1
 584 258 l 1,135,-1
 584 257 l 1,136,-1
 584 256 l 1,137,-1
 584 255 l 1,138,-1
 584 254 l 1,139,-1
 584 253 l 1,140,-1
 584 252 l 1,141,-1
 584 251 l 1,142,-1
 583 250 l 1,143,-1
 583 249 l 1,144,-1
 583 248 l 1,145,-1
 583 247 l 1,146,-1
 583 246 l 1,147,-1
 583 245 l 1,148,-1
 582 244 l 1,149,-1
 582 242 l 1,150,151
 571 161 571 161 567 131 c 1,152,-1
 579 128 l 1,153,-1
 589 127 l 2,154,155
 678 121 678 121 715 188 c 0,156,157
 752 256 752 256 724 350 c 0,158,159
 694 452 694 452 608 503 c 0,160,161
 508 564 508 564 364 526 c 0,162,163
 255 497 255 497 197 401 c 0,164,165
 143 311 143 311 151.5 198.5 c 128,-1,166
 160 86 160 86 228 12 c 0,167,168
 300 -68 300 -68 418 -71 c 0,169,170
 491 -73 491 -73 531 -67 c 0,171,172
 563 -62 563 -62 626 -33 c 1,173,-1
 674 -110 l 1,174,175
 621 -145 621 -145 545 -157 c 0,176,177
 497 -164 497 -164 416 -162 c 0,178,179
 259 -158 259 -158 160 -49 c 0,180,181
 72 48 72 48 61 191 c 0,182,183
 50 333 50 333 119 448 c 0,184,185
 196 576 196 576 341 614 c 0,186,187
 522 661 522 661 655 581 c 0,188,189
 712 547 712 547 752 494 c 128,-1,190
 792 441 792 441 811 376 c 0,191,192
 830 315 830 315 825.5 253.5 c 128,-1,193
 821 192 821 192 794 144 c 0,194,195
 763 88 763 88 708.5 59.5 c 128,-1,196
 654 31 654 31 583 36 c 0,197,198
 572 36 572 36 560 39 c 0,199,200
 550 41 550 41 539 45 c 0,201,202
 530 47 530 47 521 50 c 2,203,-1
 518 51 l 1,204,205
 513 47 513 47 506 44 c 0,206,207
 409 6 409 6 334 49 c 0,208,209
 265 89 265 89 248 173 c 0,210,211
 232 255 232 255 277 328 c 0,212,213
 326 409 326 409 428 440 c 0,214,215
 454 448 454 448 485 447 c 0,216,217
 506 446 506 446 542 440 c 0,218,219
 575 436 575 436 608 431 c 0,17,18
EndSplineSet
EndChar

StartChar: A
Encoding: 65 65 36
Width: 583
GlyphClass: 2
Flags: W
LayerCount: 2
Fore
SplineSet
430 556 m 1,0,1
 428 555 428 555 426 554 c 0,2,3
 289 508 289 508 240 455 c 0,4,5
 198 409 198 409 188 337 c 1,6,-1
 428 365 l 1,7,-1
 428 366 l 1,8,-1
 428 367 l 1,9,-1
 428 369 l 1,10,-1
 428 370 l 1,11,-1
 428 371 l 1,12,-1
 428 373 l 1,13,-1
 428 374 l 1,14,-1
 428 375 l 1,15,-1
 428 376 l 1,16,-1
 428 378 l 1,17,-1
 428 379 l 1,18,-1
 428 380 l 1,19,-1
 428 381 l 1,20,-1
 428 383 l 1,21,-1
 428 384 l 1,22,-1
 428 385 l 1,23,-1
 428 386 l 1,24,-1
 428 387 l 1,25,-1
 428 389 l 1,26,-1
 428 390 l 1,27,-1
 428 391 l 1,28,-1
 428 392 l 1,29,-1
 428 393 l 1,30,-1
 428 395 l 1,31,-1
 428 396 l 1,32,-1
 428 397 l 1,33,-1
 428 398 l 1,34,-1
 428 399 l 1,35,-1
 428 400 l 1,36,-1
 428 401 l 1,37,-1
 428 403 l 1,38,-1
 428 404 l 1,39,-1
 428 405 l 1,40,-1
 428 406 l 1,41,-1
 428 407 l 1,42,-1
 428 408 l 1,43,-1
 428 409 l 1,44,-1
 428 410 l 1,45,-1
 429 411 l 1,46,-1
 429 412 l 1,47,-1
 429 414 l 1,48,-1
 429 415 l 1,49,-1
 429 416 l 1,50,-1
 429 417 l 1,51,-1
 429 418 l 1,52,-1
 429 419 l 1,53,-1
 429 420 l 1,54,-1
 429 421 l 1,55,-1
 429 422 l 1,56,-1
 429 423 l 1,57,-1
 429 424 l 1,58,-1
 429 425 l 1,59,-1
 429 426 l 1,60,-1
 429 427 l 1,61,-1
 429 428 l 1,62,-1
 429 429 l 1,63,-1
 429 430 l 1,64,-1
 429 431 l 1,65,-1
 429 432 l 1,66,-1
 429 433 l 1,67,-1
 429 434 l 1,68,-1
 429 435 l 1,69,-1
 429 545 l 2,70,71
 430 552 430 552 430 556 c 1,0,1
68 1 m 1,72,-1
 68 4 l 1,73,-1
 68 13 l 1,74,-1
 68 45 l 1,75,-1
 68 142 l 1,76,-1
 68 239 l 1,77,-1
 68 271 l 1,78,-1
 68 280 l 1,79,-1
 68 282 l 1,80,-1
 68 284 l 2,81,82
 69 377 69 377 83.5 427.5 c 128,-1,83
 98 478 98 478 143 528 c 0,84,85
 181 569 181 569 257 609 c 0,86,87
 287 625 287 625 355 659 c 128,-1,88
 423 693 423 693 450 704 c 1,89,-1
 438 645 l 1,90,91
 492 645 492 645 546 645 c 1,92,93
 546 644 546 644 546 643 c 0,94,95
 546 640 546 640 546 637 c 0,96,97
 546 629 546 629 545 617 c 0,98,99
 545 587 545 587 545 544 c 0,100,101
 544 443 544 443 543 322.5 c 128,-1,102
 542 202 542 202 542 101 c 0,103,104
 541 58 541 58 541 28 c 0,105,106
 541 16 541 16 541 8 c 0,107,108
 541 2 541 2 541 0 c 1,109,-1
 425 1 l 2,110,111
 425 3 425 3 426 8 c 0,112,113
 426 17 426 17 426 29 c 0,114,115
 426 59 426 59 426 102 c 0,116,117
 427 180 427 180 427 249 c 1,118,-1
 184 221 l 1,119,-1
 184 142 l 1,120,-1
 184 45 l 1,121,-1
 184 13 l 1,122,-1
 184 4 l 1,123,-1
 184 1 l 1,124,-1
 68 1 l 1,72,-1
EndSplineSet
EndChar

StartChar: B
Encoding: 66 66 37
Width: 561
GlyphClass: 2
Flags: W
LayerCount: 2
Fore
SplineSet
184 108 m 1,0,1
 272 121 272 121 329 169 c 128,-1,2
 386 217 386 217 406 313 c 1,3,4
 402 313 402 313 347 313 c 0,5,6
 281 313 281 313 226 313 c 0,7,8
 213 313 213 313 203 313 c 128,-1,9
 193 313 193 313 186 313 c 2,10,-1
 184 313 l 1,11,-1
 184 282 l 1,12,-1
 184 234 l 1,13,-1
 184 215 l 1,14,-1
 184 206 l 1,15,-1
 184 182 l 1,16,-1
 184 108 l 1,0,1
184 644 m 2,17,18
 218 644 218 644 305 644 c 0,19,20
 381 643 381 643 445 643 c 0,21,22
 457 643 457 643 469 643 c 128,-1,23
 481 643 481 643 491 643 c 2,24,-1
 504 643 l 1,25,-1
 508 643 l 1,26,-1
 508 529 l 1,27,-1
 507 529 l 1,28,-1
 507 528 l 1,29,30
 487 458 487 458 465 424 c 1,31,-1
 466 424 l 1,32,-1
 468 424 l 2,33,34
 481 424 481 424 491 424 c 128,-1,35
 501 424 501 424 508 424 c 2,36,-1
 519 424 l 1,37,-1
 523 424 l 1,38,-1
 523 312 l 1,39,-1
 522 312 l 1,40,41
 520 272 520 272 509.5 234 c 128,-1,42
 499 196 499 196 477 158 c 128,-1,43
 455 120 455 120 424 89.5 c 128,-1,44
 393 59 393 59 345 36.5 c 128,-1,45
 297 14 297 14 238 5 c 0,46,47
 216 1 216 1 184 1 c 2,48,-1
 69 1 l 1,49,-1
 69 11 l 2,50,51
 69 254 69 254 69 282 c 2,52,-1
 69 430 l 2,53,54
 69 442 69 442 69 469.5 c 128,-1,55
 69 497 69 497 69 511.5 c 128,-1,56
 69 526 69 526 67.5 549.5 c 128,-1,57
 66 573 66 573 62.5 585.5 c 128,-1,58
 59 598 59 598 52.5 612.5 c 128,-1,59
 46 627 46 627 35.5 634 c 128,-1,60
 25 641 25 641 11 643 c 1,61,-1
 69 644 l 1,62,-1
 184 644 l 2,17,18
184 529 m 1,63,-1
 184 430 l 1,64,-1
 184 427 l 1,65,66
 186 427 186 427 187 427 c 0,67,68
 207 425 207 425 220 425 c 0,69,70
 223 425 223 425 226 425 c 0,71,72
 247 425 247 425 255 425 c 0,73,74
 303 427 303 427 338 450 c 128,-1,75
 373 473 373 473 392 529 c 1,76,77
 360 529 360 529 305 529 c 0,78,79
 231 529 231 529 184 529 c 1,63,-1
EndSplineSet
EndChar

StartChar: C
Encoding: 67 67 38
Width: 549
GlyphClass: 2
Flags: W
LayerCount: 2
Fore
SplineSet
93 644 m 1,0,-1
 98 644 l 1,1,-1
 111 644 l 2,2,3
 121 644 121 644 133 644 c 128,-1,4
 145 644 145 644 157 644 c 0,5,6
 221 644 221 644 297 644 c 2,7,-1
 437 644 l 2,8,9
 449 644 449 644 461 644 c 128,-1,10
 473 644 473 644 483 644 c 2,11,-1
 496 644 l 1,12,-1
 501 644 l 1,13,-1
 501 529 l 1,14,-1
 496 529 l 1,15,-1
 483 529 l 2,16,17
 473 529 473 529 461 529 c 128,-1,18
 449 529 449 529 437 529 c 0,19,20
 373 529 373 529 297 529 c 0,21,22
 238 529 238 529 179 529 c 1,23,-1
 179 465 l 1,24,-1
 179 441 l 1,25,-1
 179 432 l 1,26,-1
 179 428 l 1,27,-1
 179 416 l 1,28,-1
 179 379 l 2,29,30
 179 377 179 377 179 375 c 0,31,32
 182 315 182 315 190.5 276.5 c 128,-1,33
 199 238 199 238 219 203.5 c 128,-1,34
 239 169 239 169 275.5 147.5 c 128,-1,35
 312 126 312 126 370 113 c 0,36,37
 377 113 377 113 382 113 c 0,38,39
 406 113 406 113 434.5 112.5 c 128,-1,40
 463 112 463 112 488 112 c 0,41,42
 493 112 493 112 497.5 112 c 128,-1,43
 502 112 502 112 505 112 c 2,44,-1
 510 112 l 1,45,-1
 512 112 l 1,46,-1
 511 0 l 1,47,-1
 510 0 l 1,48,-1
 505 0 l 2,49,50
 501 1 501 1 497 1 c 128,-1,51
 493 1 493 1 487 1 c 2,52,-1
 434 1 l 1,53,-1
 381 1 l 2,54,55
 376 1 376 1 371.5 1 c 128,-1,56
 367 1 367 1 364 1 c 2,57,-1
 359 1 l 1,58,-1
 358 1 l 1,59,-1
 357 1 l 1,60,61
 317 6 317 6 279.5 19 c 128,-1,62
 242 32 242 32 204.5 56.5 c 128,-1,63
 167 81 167 81 138 114 c 128,-1,64
 109 147 109 147 88.5 196.5 c 128,-1,65
 68 246 68 246 63 305 c 0,66,67
 62 313 62 313 63 326 c 2,68,-1
 63 331 l 2,69,70
 63 451 63 451 63 465 c 2,71,-1
 63 538 l 2,72,73
 63 540 63 540 63 552 c 128,-1,74
 63 564 63 564 63 567 c 128,-1,75
 63 570 63 570 62 580.5 c 128,-1,76
 61 591 61 591 60 594.5 c 128,-1,77
 59 598 59 598 56.5 606.5 c 128,-1,78
 54 615 54 615 51 618.5 c 128,-1,79
 48 622 48 622 43 627.5 c 128,-1,80
 38 633 38 633 32 635.5 c 128,-1,81
 26 638 26 638 17.5 640.5 c 128,-1,82
 9 643 9 643 -1 644 c 1,83,-1
 63 644 l 1,84,-1
 93 644 l 1,0,-1
EndSplineSet
EndChar

StartChar: D
Encoding: 68 68 39
Width: 561
GlyphClass: 2
Flags: W
LayerCount: 2
Fore
SplineSet
417 310 m 0,0,1
 418 319 418 319 417 322 c 0,2,3
 417 326 417 326 417 372 c 0,4,5
 417 424 417 424 416 529 c 1,6,7
 375 529 375 529 305 529 c 0,8,9
 231 529 231 529 184 529 c 1,10,-1
 184 430 l 1,11,-1
 184 282 l 1,12,-1
 184 234 l 1,13,-1
 184 215 l 1,14,-1
 184 206 l 1,15,-1
 184 182 l 1,16,-1
 184 108 l 1,17,-1
 184 101 l 1,18,19
 307 116 307 116 370 196 c 0,20,21
 409 246 409 246 415 293 c 0,22,23
 416 303 416 303 417 310 c 0,0,1
522 645 m 1,24,-1
 522 639 l 2,25,26
 522 634 522 634 522 628 c 0,27,28
 522 612 522 612 522 590 c 0,29,30
 522 538 522 538 522.5 475.5 c 128,-1,31
 523 413 523 413 523 361 c 0,32,33
 523 339 523 339 523 323 c 2,34,-1
 523 312 l 1,35,-1
 523 309 l 2,36,37
 523 260 523 260 506.5 212.5 c 128,-1,38
 490 165 490 165 457 121.5 c 128,-1,39
 424 78 424 78 367.5 47 c 128,-1,40
 311 16 311 16 238 5 c 0,41,42
 216 1 216 1 184 1 c 2,43,-1
 69 1 l 1,44,-1
 69 11 l 2,45,46
 69 254 69 254 69 282 c 2,47,-1
 69 430 l 2,48,49
 69 442 69 442 69 469.5 c 128,-1,50
 69 497 69 497 69 511.5 c 128,-1,51
 69 526 69 526 67.5 549.5 c 128,-1,52
 66 573 66 573 62.5 585.5 c 128,-1,53
 59 598 59 598 52.5 612.5 c 128,-1,54
 46 627 46 627 35.5 634 c 128,-1,55
 25 641 25 641 11 643 c 1,56,-1
 69 644 l 1,57,-1
 184 644 l 2,58,59
 218 644 218 644 305 644 c 0,60,61
 381 643 381 643 445 643 c 0,62,63
 458 643 458 643 466 643 c 0,64,65
 494 644 494 644 522 645 c 1,24,-1
EndSplineSet
EndChar

StartChar: E
Encoding: 69 69 40
Width: 496
GlyphClass: 2
Flags: W
LayerCount: 2
Fore
SplineSet
136 644 m 1,0,-1
 140 644 l 1,1,-1
 150 644 l 1,2,-1
 186 644 l 2,3,4
 213 644 213 644 241.5 644 c 128,-1,5
 270 644 270 644 295 644 c 0,6,7
 322 644 322 644 350 644 c 128,-1,8
 378 644 378 644 405 644 c 2,9,-1
 441 644 l 1,10,-1
 451 644 l 1,11,-1
 455 644 l 1,12,-1
 455 549 l 1,13,-1
 451 549 l 1,14,-1
 441 549 l 1,15,-1
 405 549 l 2,16,17
 378 549 378 549 350 549 c 128,-1,18
 322 549 322 549 295 549 c 0,19,20
 270 549 270 549 241.5 549 c 128,-1,21
 213 549 213 549 186 549 c 2,22,-1
 179 549 l 1,23,-1
 179 538 l 1,24,-1
 179 465 l 1,25,-1
 179 441 l 1,26,-1
 179 432 l 1,27,-1
 179 427 l 1,28,-1
 179 419 l 1,29,-1
 376 417 l 1,30,-1
 375 302 l 1,31,32
 280 303 280 303 186 304 c 1,33,34
 198 218 198 218 244.5 172 c 128,-1,35
 291 126 291 126 399 107 c 0,36,37
 403 107 403 107 408 107 c 0,38,39
 427 107 427 107 443 107 c 0,40,41
 447 107 447 107 449.5 107 c 128,-1,42
 452 107 452 107 454 107 c 2,43,-1
 458 107 l 1,44,-1
 459 107 l 1,45,-1
 459 1 l 1,46,-1
 457 1 l 1,47,-1
 454 1 l 2,48,49
 452 1 452 1 449 1 c 128,-1,50
 446 1 446 1 443 1 c 2,51,-1
 408 1 l 1,52,-1
 406 1 l 1,53,-1
 405 1 l 1,54,-1
 404 1 l 1,55,-1
 402 1 l 1,56,-1
 401 1 l 1,57,-1
 400 1 l 1,58,-1
 398 1 l 1,59,-1
 397 1 l 1,60,-1
 396 1 l 1,61,-1
 395 1 l 1,62,-1
 394 1 l 1,63,-1
 393 1 l 1,64,-1
 392 1 l 1,65,-1
 391 1 l 1,66,-1
 390 1 l 1,67,-1
 389 1 l 1,68,-1
 388 1 l 1,69,-1
 387 1 l 1,70,-1
 386 1 l 1,71,-1
 385 1 l 1,72,-1
 384 1 l 1,73,-1
 383 1 l 1,74,-1
 382 1 l 1,75,-1
 381 1 l 1,76,-1
 380 1 l 1,77,-1
 379 1 l 1,78,-1
 378 1 l 1,79,-1
 377 1 l 1,80,-1
 376 1 l 1,81,-1
 375 1 l 1,82,-1
 374 1 l 1,83,-1
 373 1 l 2,84,85
 370 1 370 1 367 1 c 128,-1,86
 364 1 364 1 362 1 c 2,87,-1
 359 1 l 1,88,-1
 358 1 l 1,89,90
 318 6 318 6 280.5 19 c 128,-1,91
 243 32 243 32 205.5 56.5 c 128,-1,92
 168 81 168 81 139.5 114 c 128,-1,93
 111 147 111 147 90.5 196 c 128,-1,94
 70 245 70 245 65 304 c 0,95,96
 65 307 65 307 65 310 c 0,97,98
 64 320 64 320 64 330 c 0,99,100
 64 451 64 451 64 465 c 2,101,-1
 64 538 l 2,102,103
 64 539 64 539 64 553 c 128,-1,104
 64 567 64 567 63.5 569.5 c 128,-1,105
 63 572 63 572 62 584 c 128,-1,106
 61 596 61 596 59.5 599.5 c 128,-1,107
 58 603 58 603 55 612 c 128,-1,108
 52 621 52 621 47 624.5 c 128,-1,109
 42 628 42 628 35.5 633 c 128,-1,110
 29 638 29 638 20 640.5 c 128,-1,111
 11 643 11 643 0 643 c 1,112,-1
 64 644 l 1,113,-1
 136 644 l 1,0,-1
EndSplineSet
EndChar

StartChar: F
Encoding: 70 70 41
Width: 492
GlyphClass: 2
Flags: W
LayerCount: 2
Fore
SplineSet
140 644 m 1,0,-1
 150 644 l 1,1,-1
 184 644 l 1,2,-1
 186 644 l 1,3,-1
 295 644 l 2,4,5
 322 644 322 644 350 644 c 128,-1,6
 378 644 378 644 405 644 c 2,7,-1
 441 644 l 1,8,-1
 451 644 l 1,9,-1
 455 644 l 1,10,-1
 455 549 l 1,11,-1
 451 549 l 1,12,-1
 441 549 l 1,13,-1
 405 549 l 2,14,15
 378 549 378 549 350 549 c 128,-1,16
 322 549 322 549 295 549 c 0,17,18
 270 549 270 549 241.5 549 c 128,-1,19
 213 549 213 549 186 549 c 2,20,-1
 184 549 l 1,21,-1
 184 430 l 1,22,-1
 184 419 l 1,23,24
 280 418 280 418 376 417 c 1,25,-1
 375 302 l 1,26,27
 279 303 279 303 184 304 c 1,28,-1
 184 282 l 1,29,-1
 184 234 l 1,30,-1
 184 215 l 1,31,-1
 184 206 l 1,32,-1
 184 182 l 1,33,-1
 184 108 l 2,34,35
 184 68 184 68 184 1 c 1,36,-1
 69 1 l 1,37,-1
 69 11 l 2,38,39
 69 254 69 254 69 282 c 2,40,-1
 69 430 l 2,41,42
 69 442 69 442 69 469.5 c 128,-1,43
 69 497 69 497 69 511.5 c 128,-1,44
 69 526 69 526 67.5 549.5 c 128,-1,45
 66 573 66 573 62.5 585.5 c 128,-1,46
 59 598 59 598 52.5 612.5 c 128,-1,47
 46 627 46 627 35.5 634 c 128,-1,48
 25 641 25 641 11 643 c 1,49,-1
 69 644 l 1,50,-1
 136 644 l 1,51,-1
 140 644 l 1,0,-1
EndSplineSet
EndChar

StartChar: G
Encoding: 71 71 42
Width: 561
GlyphClass: 2
Flags: W
LayerCount: 2
Fore
SplineSet
293 425 m 1,0,-1
 296 425 l 1,1,-1
 303 425 l 2,2,3
 308 425 308 425 314.5 425 c 128,-1,4
 321 425 321 425 329 425 c 0,5,6
 365 424 365 424 408 424 c 128,-1,7
 451 424 451 424 487 424 c 0,8,9
 496 424 496 424 502.5 424 c 128,-1,10
 509 424 509 424 513 424 c 2,11,-1
 521 424 l 1,12,-1
 523 424 l 1,13,-1
 523 312 l 1,14,-1
 522 312 l 1,15,16
 520 272 520 272 509.5 234 c 128,-1,17
 499 196 499 196 477 158 c 128,-1,18
 455 120 455 120 424 89.5 c 128,-1,19
 393 59 393 59 345 36.5 c 128,-1,20
 297 14 297 14 238 5 c 0,21,22
 216 1 216 1 184 1 c 2,23,-1
 69 1 l 1,24,-1
 69 11 l 2,25,26
 69 254 69 254 69 282 c 2,27,-1
 69 430 l 2,28,29
 69 442 69 442 69 469.5 c 128,-1,30
 69 497 69 497 69 511.5 c 128,-1,31
 69 526 69 526 67.5 549.5 c 128,-1,32
 66 573 66 573 62.5 585.5 c 128,-1,33
 59 598 59 598 52.5 612.5 c 128,-1,34
 46 627 46 627 35.5 634 c 128,-1,35
 25 641 25 641 11 643 c 1,36,-1
 69 644 l 1,37,-1
 184 644 l 2,38,39
 218 644 218 644 305 644 c 0,40,41
 381 643 381 643 445 643 c 0,42,43
 457 643 457 643 469 643 c 128,-1,44
 481 643 481 643 491 643 c 2,45,-1
 504 643 l 1,46,-1
 508 643 l 1,47,-1
 508 529 l 1,48,-1
 504 529 l 1,49,-1
 491 529 l 2,50,51
 480 529 480 529 468.5 529 c 128,-1,52
 457 529 457 529 445 529 c 0,53,54
 381 529 381 529 305 529 c 0,55,56
 231 529 231 529 184 529 c 1,57,-1
 184 430 l 1,58,-1
 184 282 l 1,59,-1
 184 234 l 1,60,-1
 184 215 l 1,61,-1
 184 206 l 1,62,-1
 184 182 l 1,63,-1
 184 108 l 1,64,65
 272 121 272 121 329 169 c 128,-1,66
 386 217 386 217 406 313 c 1,67,-1
 329 313 l 2,68,69
 320 313 320 313 313.5 313 c 128,-1,70
 307 313 307 313 302 313 c 2,71,-1
 295 313 l 1,72,-1
 293 313 l 1,73,-1
 293 425 l 1,0,-1
EndSplineSet
EndChar

StartChar: H
Encoding: 72 72 43
Width: 628
GlyphClass: 2
Flags: W
LayerCount: 2
Fore
SplineSet
590 645 m 1,0,-1
 590 637 l 1,1,-1
 590 617 l 2,2,3
 590 600 590 600 590 581.5 c 128,-1,4
 590 563 590 563 590 543 c 2,5,-1
 590 321 l 2,6,7
 590 277 590 277 590 186 c 128,-1,8
 590 95 590 95 590 61.5 c 128,-1,9
 590 28 590 28 590 4 c 1,10,11
 584 -13 584 -13 575 -29 c 128,-1,12
 566 -45 566 -45 555.5 -57 c 128,-1,13
 545 -69 545 -69 533.5 -80 c 128,-1,14
 522 -91 522 -91 511.5 -99 c 128,-1,15
 501 -107 501 -107 493 -112.5 c 128,-1,16
 485 -118 485 -118 480 -121 c 128,-1,17
 475 -124 475 -124 475 -123 c 0,18,19
 475 -120 475 -120 474.5 -51 c 128,-1,20
 474 18 474 18 474 25 c 0,21,22
 474 55 474 55 474 98 c 0,23,24
 475 195 475 195 475 261 c 1,25,-1
 179 293 l 1,26,27
 180 79 180 79 180 0 c 1,28,-1
 59 0 l 1,29,-1
 61 536 l 2,30,31
 62 545 62 545 61.5 554 c 128,-1,32
 61 563 61 563 61 572 c 128,-1,33
 61 581 61 581 59.5 589.5 c 128,-1,34
 58 598 58 598 56 606 c 128,-1,35
 54 614 54 614 49 620.5 c 128,-1,36
 44 627 44 627 37.5 632 c 128,-1,37
 31 637 31 637 21 640 c 128,-1,38
 11 643 11 643 -1 644 c 1,39,-1
 61 644 l 1,40,-1
 178 644 l 1,41,-1
 178 635 l 1,42,-1
 178 610 l 1,43,-1
 178 536 l 1,44,-1
 178 462 l 1,45,-1
 178 437 l 1,46,-1
 178 428 l 1,47,-1
 178 423 l 1,48,-1
 178 411 l 1,49,-1
 178 403 l 1,50,-1
 475 371 l 1,51,52
 475 480 475 480 475 544 c 0,53,54
 475 563 475 563 475 582 c 128,-1,55
 475 601 475 601 475 617 c 2,56,-1
 475 637 l 1,57,-1
 475 645 l 1,58,-1
 590 645 l 1,0,-1
EndSplineSet
EndChar

StartChar: I
Encoding: 73 73 44
Width: 217
GlyphClass: 2
Flags: W
LayerCount: 2
Fore
SplineSet
178 644 m 1,0,-1
 178 635 l 1,1,-1
 178 611 l 1,2,-1
 178 537 l 1,3,-1
 178 463 l 1,4,-1
 178 439 l 1,5,-1
 178 430 l 1,6,-1
 178 425 l 1,7,-1
 178 413 l 1,8,-1
 178 377 l 1,9,-1
 178 340 l 1,10,-1
 178 328 l 1,11,-1
 178 318 l 2,12,13
 178 311 178 311 178 302 c 0,14,15
 179 211 179 211 179 -2 c 1,16,-1
 126 45 l 1,17,-1
 62 96 l 1,18,-1
 61 323 l 1,19,-1
 61 328 l 2,20,21
 61 449 61 449 61 463 c 2,22,-1
 61 537 l 2,23,24
 62 546 62 546 61.5 555 c 128,-1,25
 61 564 61 564 61 573 c 128,-1,26
 61 582 61 582 59.5 590.5 c 128,-1,27
 58 599 58 599 56 606.5 c 128,-1,28
 54 614 54 614 49 620.5 c 128,-1,29
 44 627 44 627 37.5 632 c 128,-1,30
 31 637 31 637 21 640.5 c 128,-1,31
 11 644 11 644 -1 644 c 1,32,-1
 61 644 l 1,33,-1
 178 644 l 1,0,-1
EndSplineSet
EndChar

StartChar: J
Encoding: 74 74 45
Width: 510
GlyphClass: 2
Flags: W
LayerCount: 2
Fore
SplineSet
130 644 m 1,0,-1
 133 644 l 1,1,-1
 141 644 l 2,2,3
 148 644 148 644 156.5 644 c 128,-1,4
 165 644 165 644 173 644 c 0,5,6
 216 644 216 644 268 644 c 0,7,8
 285 644 285 644 312 644 c 2,9,-1
 419 644 l 1,10,-1
 473 644 l 1,11,12
 458 642 458 642 447 636 c 128,-1,13
 436 630 436 630 430.5 623.5 c 128,-1,14
 425 617 425 617 422.5 603 c 128,-1,15
 420 589 420 589 419.5 581.5 c 128,-1,16
 419 574 419 574 419 555 c 128,-1,17
 419 536 419 536 419 530 c 2,18,-1
 419 452 l 1,19,-1
 419 307 l 1,20,-1
 419 302 l 2,21,22
 418 254 418 254 401.5 207.5 c 128,-1,23
 385 161 385 161 352.5 119 c 128,-1,24
 320 77 320 77 263.5 46.5 c 128,-1,25
 207 16 207 16 134 5 c 0,26,27
 113 2 113 2 85 2 c 2,28,-1
 82 2 l 1,29,-1
 79 2 l 1,30,-1
 73 2 l 2,31,32
 66 2 66 2 59 2 c 128,-1,33
 52 2 52 2 44 2 c 128,-1,34
 36 2 36 2 29 2 c 128,-1,35
 22 2 22 2 16 2 c 2,36,-1
 7 2 l 1,37,-1
 3 2 l 1,38,-1
 4 101 l 1,39,-1
 7 101 l 1,40,-1
 16 101 l 2,41,42
 22 101 22 101 29.5 101 c 128,-1,43
 37 101 37 101 45 101 c 128,-1,44
 53 101 53 101 60 101 c 128,-1,45
 67 101 67 101 73 101 c 2,46,-1
 75 101 l 1,47,48
 201 114 201 114 266 196 c 0,49,50
 304 246 304 246 310 294 c 0,51,52
 311 299 311 299 312 304 c 0,53,54
 312 339 312 339 312 359 c 2,55,-1
 312 399 l 1,56,-1
 312 411 l 1,57,-1
 312 416 l 1,58,-1
 312 426 l 1,59,-1
 312 452 l 1,60,-1
 312 530 l 1,61,-1
 312 550 l 1,62,63
 308 550 308 550 268 550 c 0,64,65
 216 550 216 550 173 550 c 0,66,67
 164 550 164 550 156 550 c 128,-1,68
 148 550 148 550 141 550 c 2,69,-1
 133 550 l 1,70,-1
 129 550 l 1,71,-1
 130 644 l 1,0,-1
EndSplineSet
EndChar

StartChar: K
Encoding: 75 75 46
Width: 703
GlyphClass: 2
Flags: W
LayerCount: 2
Fore
SplineSet
178 645 m 1,0,-1
 178 635 l 1,1,-1
 178 611 l 1,2,-1
 178 537 l 1,3,-1
 178 463 l 1,4,-1
 178 438 l 1,5,-1
 178 429 l 1,6,-1
 178 424 l 1,7,-1
 178 412 l 1,8,-1
 178 389 l 1,9,10
 200 389 200 389 220 388 c 0,11,12
 223 388 223 388 224 388 c 2,13,-1
 387 647 l 1,14,-1
 507 647 l 1,15,-1
 325 345 l 1,16,17
 351 321 351 321 381 291 c 0,18,19
 396 276 396 276 415 257 c 0,20,21
 422 250 422 250 431 240 c 2,22,-1
 447 223 l 2,23,24
 491 178 491 178 527 146 c 0,25,26
 536 138 536 138 547 128 c 128,-1,27
 558 118 558 118 572.5 106 c 128,-1,28
 587 94 587 94 595 87 c 2,29,-1
 665 32 l 1,30,-1
 666 -87 l 1,31,32
 641 -76 641 -76 622 -64 c 0,33,34
 593 -45 593 -45 586 -40 c 0,35,36
 520 6 520 6 466 55 c 0,37,38
 404 110 404 110 367 149 c 0,39,40
 359 158 359 158 296 220 c 0,41,42
 252 264 252 264 240 274 c 0,43,44
 237 277 237 277 235 279 c 2,45,-1
 232 279 l 2,46,47
 228 279 228 279 227 279 c 128,-1,48
 226 279 226 279 222.5 279 c 128,-1,49
 219 279 219 279 217 279 c 2,50,-1
 216 279 l 1,51,-1
 215 279 l 1,52,-1
 213 279 l 1,53,-1
 212 279 l 1,54,-1
 210 279 l 1,55,-1
 209 280 l 1,56,-1
 208 280 l 1,57,-1
 206 280 l 1,58,-1
 205 280 l 1,59,-1
 204 280 l 1,60,-1
 202 280 l 1,61,-1
 201 280 l 1,62,-1
 200 280 l 1,63,-1
 199 280 l 1,64,-1
 198 280 l 1,65,-1
 197 280 l 1,66,-1
 195 280 l 1,67,-1
 194 280 l 1,68,-1
 193 280 l 1,69,-1
 192 280 l 1,70,-1
 191 280 l 1,71,-1
 190 280 l 1,72,-1
 188 280 l 1,73,-1
 187 280 l 1,74,-1
 186 280 l 1,75,-1
 185 280 l 1,76,-1
 184 280 l 1,77,-1
 183 280 l 1,78,-1
 182 280 l 1,79,-1
 181 280 l 1,80,-1
 179 280 l 1,81,82
 180 41 180 41 180 0 c 1,83,-1
 58 1 l 1,84,-1
 61 537 l 2,85,86
 61 546 61 546 61 555 c 128,-1,87
 61 564 61 564 60.5 573 c 128,-1,88
 60 582 60 582 59 590.5 c 128,-1,89
 58 599 58 599 55.5 607 c 128,-1,90
 53 615 53 615 48 621.5 c 128,-1,91
 43 628 43 628 36.5 633 c 128,-1,92
 30 638 30 638 20 641 c 128,-1,93
 10 644 10 644 -3 645 c 1,94,-1
 61 645 l 1,95,-1
 178 645 l 1,0,-1
EndSplineSet
EndChar

StartChar: L
Encoding: 76 76 47
Width: 414
GlyphClass: 2
Flags: W
LayerCount: 2
Fore
SplineSet
184 644 m 1,0,-1
 184 625 l 1,1,-1
 184 577 l 1,2,-1
 184 430 l 1,3,-1
 184 282 l 1,4,-1
 184 234 l 1,5,-1
 184 215 l 1,6,-1
 184 206 l 1,7,-1
 184 182 l 1,8,-1
 184 116 l 1,9,10
 204 116 204 116 245 116 c 0,11,12
 294 115 294 115 335 115 c 0,13,14
 343 115 343 115 350.5 115 c 128,-1,15
 358 115 358 115 365 115 c 2,16,-1
 373 115 l 1,17,-1
 376 115 l 1,18,-1
 376 1 l 1,19,-1
 373 1 l 1,20,-1
 365 1 l 2,21,22
 358 1 358 1 350.5 1 c 128,-1,23
 343 1 343 1 335 1 c 2,24,-1
 245 1 l 1,25,-1
 243 1 l 1,26,-1
 242 1 l 1,27,-1
 240 1 l 1,28,-1
 238 1 l 1,29,-1
 237 1 l 1,30,-1
 235 1 l 1,31,-1
 234 1 l 1,32,-1
 232 1 l 1,33,-1
 231 1 l 1,34,-1
 230 1 l 1,35,-1
 228 1 l 1,36,-1
 227 1 l 1,37,-1
 226 1 l 1,38,-1
 224 1 l 1,39,-1
 223 1 l 1,40,-1
 222 1 l 1,41,-1
 221 1 l 1,42,-1
 219 1 l 1,43,-1
 218 1 l 1,44,-1
 217 1 l 1,45,-1
 216 1 l 1,46,-1
 215 1 l 1,47,-1
 214 1 l 1,48,-1
 213 1 l 1,49,-1
 212 1 l 1,50,-1
 211 1 l 1,51,-1
 210 1 l 1,52,-1
 209 1 l 1,53,-1
 208 1 l 1,54,-1
 207 1 l 1,55,-1
 206 1 l 1,56,-1
 205 1 l 1,57,-1
 204 1 l 1,58,-1
 203 1 l 1,59,-1
 202 1 l 1,60,-1
 201 1 l 1,61,-1
 200 1 l 1,62,-1
 199 1 l 1,63,-1
 198 1 l 1,64,-1
 197 1 l 1,65,-1
 196 1 l 1,66,-1
 195 1 l 1,67,-1
 194 1 l 1,68,-1
 193 1 l 1,69,-1
 192 1 l 1,70,-1
 191 1 l 1,71,-1
 190 1 l 1,72,-1
 189 1 l 1,73,-1
 188 1 l 1,74,-1
 187 1 l 1,75,-1
 186 1 l 1,76,-1
 185 1 l 1,77,-1
 184 1 l 1,78,-1
 183 1 l 1,79,-1
 182 1 l 1,80,-1
 181 1 l 1,81,-1
 180 1 l 1,82,-1
 179 1 l 1,83,-1
 178 1 l 1,84,-1
 177 1 l 1,85,-1
 176 1 l 1,86,-1
 175 1 l 1,87,-1
 174 1 l 1,88,-1
 173 1 l 1,89,-1
 172 1 l 1,90,-1
 171 1 l 1,91,-1
 170 1 l 1,92,-1
 169 1 l 1,93,-1
 168 1 l 1,94,-1
 167 1 l 1,95,-1
 166 1 l 1,96,-1
 165 1 l 1,97,-1
 164 1 l 1,98,-1
 163 1 l 1,99,-1
 162 1 l 1,100,-1
 161 1 l 1,101,-1
 160 1 l 1,102,-1
 159 1 l 1,103,-1
 158 1 l 1,104,-1
 157 1 l 1,105,-1
 156 1 l 1,106,-1
 154 1 l 2,107,108
 147 1 147 1 139 1 c 128,-1,109
 131 1 131 1 125 1 c 2,110,-1
 116 1 l 1,111,-1
 113 1 l 1,112,-1
 69 1 l 1,113,-1
 69 11 l 2,114,115
 69 254 69 254 69 282 c 2,116,-1
 69 430 l 2,117,118
 69 442 69 442 69 469.5 c 128,-1,119
 69 497 69 497 69 511.5 c 128,-1,120
 69 526 69 526 67.5 549.5 c 128,-1,121
 66 573 66 573 62.5 585.5 c 128,-1,122
 59 598 59 598 52.5 612.5 c 128,-1,123
 46 627 46 627 35.5 634 c 128,-1,124
 25 641 25 641 11 643 c 1,125,-1
 69 644 l 1,126,-1
 184 644 l 1,0,-1
EndSplineSet
EndChar

StartChar: M
Encoding: 77 77 48
Width: 710
GlyphClass: 2
Flags: W
LayerCount: 2
Fore
SplineSet
282 218 m 1,0,-1
 282 220 l 1,1,-1
 282 227 l 2,2,3
 282 232 282 232 282 237 c 128,-1,4
 282 242 282 242 282 246.5 c 128,-1,5
 282 251 282 251 282 258 c 0,6,7
 279 331 279 331 266.5 376.5 c 128,-1,8
 254 422 254 422 225 453 c 0,9,10
 196 485 196 485 155 508 c 1,11,12
 155 436 155 436 154 317 c 0,13,14
 153 199 153 199 152 101 c 0,15,16
 152 59 152 59 151 29 c 0,17,18
 151 17 151 17 151 9 c 0,19,20
 151 3 151 3 151 2 c 1,21,-1
 36 3 l 2,22,23
 36 4 36 4 36 10 c 0,24,25
 36 18 36 18 36 30 c 0,26,27
 36 60 36 60 37 102 c 0,28,29
 37 200 37 200 38 318 c 0,30,31
 39 437 39 437 40 535 c 0,32,33
 41 577 41 577 41 606 c 0,34,35
 41 618 41 618 41 626 c 0,36,37
 41 628 41 628 41 629 c 2,38,-1
 16 703 l 1,39,40
 43 692 43 692 111 658 c 128,-1,41
 179 624 179 624 209 608 c 0,42,43
 284 568 284 568 322 526 c 0,44,45
 333 514 333 514 342 502 c 1,46,47
 352 517 352 517 366 531 c 0,48,49
 404 573 404 573 480 613 c 0,50,51
 509 629 509 629 577.5 663 c 128,-1,52
 646 697 646 697 673 708 c 1,53,-1
 647 632 l 1,54,-1
 648 632 l 1,55,-1
 648 630 l 2,56,57
 648 628 648 628 647 625 c 0,58,59
 647 617 647 617 647 605 c 0,60,61
 647 576 647 576 647 534 c 0,62,63
 646 435 646 435 645 317 c 128,-1,64
 644 199 644 199 643 101 c 0,65,66
 643 59 643 59 642 29 c 0,67,68
 642 17 642 17 642 9 c 0,69,70
 642 3 642 3 642 2 c 1,71,-1
 527 3 l 2,72,73
 527 4 527 4 527 10 c 2,74,-1
 527 30 l 2,75,76
 527 60 527 60 528 102 c 0,77,78
 528 200 528 200 529 318 c 0,79,80
 530 439 530 439 531 512 c 1,81,82
 491 489 491 489 463 458 c 0,83,84
 436 429 436 429 423 386 c 128,-1,85
 410 343 410 343 407 276 c 2,86,-1
 407 273 l 1,87,-1
 407 267 l 2,88,89
 407 262 407 262 407 256.5 c 128,-1,90
 407 251 407 251 407 246.5 c 128,-1,91
 407 242 407 242 407 237 c 128,-1,92
 407 232 407 232 407 227 c 2,93,-1
 407 220 l 1,94,-1
 407 218 l 1,95,-1
 282 218 l 1,0,-1
EndSplineSet
EndChar

StartChar: N
Encoding: 78 78 49
Width: 513
GlyphClass: 2
Flags: W
LayerCount: 2
Fore
SplineSet
39 0 m 1,0,-1
 39 9 l 1,1,-1
 39 33 l 2,2,3
 39 66 39 66 39 106 c 128,-1,4
 39 146 39 146 39 179 c 0,5,6
 39 186 39 186 39 192 c 128,-1,7
 39 198 39 198 39 203 c 2,8,-1
 39 212 l 1,9,-1
 39 217 l 1,10,-1
 39 229 l 2,11,12
 39 238 39 238 39 247 c 128,-1,13
 39 256 39 256 39 265 c 128,-1,14
 39 274 39 274 39 283 c 128,-1,15
 39 292 39 292 39 301 c 2,16,-1
 39 313 l 1,17,-1
 39 323 l 2,18,19
 39 330 39 330 39 339 c 0,20,21
 38 361 38 361 39 549 c 1,22,-1
 38 549 l 1,23,-1
 100 644 l 1,24,25
 111 638 111 638 118 634 c 0,26,27
 127 629 127 629 141.5 622.5 c 128,-1,28
 156 616 156 616 167 610 c 0,29,30
 170 608 170 608 172 607 c 0,31,32
 244 576 244 576 305 541 c 0,33,34
 335 524 335 524 356 506 c 1,35,-1
 356 553 l 1,36,-1
 419 644 l 1,37,-1
 475 596 l 1,38,39
 473 540 473 540 473 508 c 0,40,41
 473 503 473 503 473 497 c 0,42,43
 473 485 473 485 473 474.5 c 128,-1,44
 473 464 473 464 473 454 c 2,45,-1
 473 440 l 1,46,-1
 473 435 l 1,47,-1
 473 428 l 2,48,49
 473 423 473 423 473 418 c 128,-1,50
 473 413 473 413 473 408 c 0,51,52
 473 395 473 395 473 380.5 c 128,-1,53
 473 366 473 366 473 349.5 c 128,-1,54
 473 333 473 333 473 318 c 128,-1,55
 473 303 473 303 473 291 c 0,56,57
 473 286 473 286 473 281 c 128,-1,58
 473 276 473 276 473 271 c 2,59,-1
 473 259 l 1,60,-1
 473 246 l 2,61,62
 473 236 473 236 473 225.5 c 128,-1,63
 473 215 473 215 473 205.5 c 128,-1,64
 473 196 473 196 473 185.5 c 128,-1,65
 473 175 473 175 473 165 c 2,66,-1
 473 152 l 1,67,-1
 473 141 l 2,68,69
 473 134 473 134 473 124 c 0,70,71
 473 101 473 101 473.5 73.5 c 128,-1,72
 474 46 474 46 474 24 c 0,73,74
 474 14 474 14 474 7 c 2,75,-1
 474 1 l 1,76,-1
 355 0 l 1,77,78
 355 129 355 129 355 258 c 1,79,-1
 354 269 l 2,80,81
 349 311 349 311 333 349 c 128,-1,82
 317 387 317 387 293 410 c 0,83,84
 255 446 255 446 182 475 c 0,85,86
 181 476 181 476 154 486 c 1,87,-1
 155 318 l 1,88,-1
 155 314 l 2,89,90
 155 193 155 193 155 179 c 0,91,92
 155 156 155 156 155 106 c 2,93,-1
 155 0 l 1,94,-1
 39 0 l 1,0,-1
EndSplineSet
EndChar

StartChar: O
Encoding: 79 79 50
Width: 635
GlyphClass: 2
Flags: W
LayerCount: 2
Fore
SplineSet
252 8 m 0,0,1
 160 28 160 28 101 107 c 0,2,3
 54 169 54 169 38 254 c 1,4,-1
 4 226 l 1,5,6
 8 260 8 260 21.5 333.5 c 128,-1,7
 35 407 35 407 41 425 c 0,8,9
 42 428 42 428 43 430 c 0,10,11
 58 492 58 492 91 539 c 0,12,13
 148 622 148 622 242 641 c 1,14,-1
 217 672 l 1,15,16
 243 666 243 666 277.5 658.5 c 128,-1,17
 312 651 312 651 331 646.5 c 128,-1,18
 350 642 350 642 367 637 c 0,19,20
 450 613 450 613 504 540 c 0,21,22
 552 475 552 475 567 386 c 1,23,-1
 598 410 l 1,24,25
 594 378 594 378 580 307 c 128,-1,26
 566 236 566 236 560 214 c 0,27,28
 544 154 544 154 513 108 c 0,29,30
 507 100 507 100 501 92 c 0,31,32
 500 92 500 92 500 91 c 0,33,34
 445 23 445 23 363 6 c 1,35,-1
 384 -17 l 1,36,37
 361 -13 361 -13 315.5 -5 c 128,-1,38
 270 3 270 3 252 8 c 0,0,1
294 540 m 0,39,40
 221 539 221 539 179 478 c 0,41,42
 136 416 136 416 138 325 c 0,43,44
 140 232 140 232 186 171 c 0,45,46
 233 109 233 109 312 109 c 0,47,48
 383 109 383 109 424 169 c 0,49,50
 467 230 467 230 465 322 c 0,51,52
 464 414 464 414 418 476 c 0,53,54
 374 535 374 535 301 540 c 0,55,56
 298 540 298 540 294 540 c 0,39,40
EndSplineSet
EndChar

StartChar: P
Encoding: 80 80 51
Width: 535
GlyphClass: 2
Flags: W
LayerCount: 2
Fore
SplineSet
241 387 m 2,0,1
 250 390 250 390 256 394 c 0,2,3
 264 400 264 400 298.5 432.5 c 128,-1,4
 333 465 333 465 342 474 c 0,5,6
 357 491 357 491 371 509 c 0,7,8
 384 525 384 525 377 548 c 1,9,10
 331 548 331 548 325 548 c 0,11,12
 260 549 260 549 206 549 c 0,13,14
 197 549 197 549 188 549 c 128,-1,15
 179 549 179 549 178 549 c 1,16,-1
 178 537 l 1,17,-1
 178 463 l 1,18,-1
 178 438 l 1,19,-1
 178 429 l 1,20,-1
 178 424 l 1,21,-1
 178 412 l 1,22,-1
 178 389 l 1,23,24
 185 388 185 388 192 388 c 0,25,26
 212 388 212 388 229 387 c 2,27,-1
 241 387 l 2,0,1
153 645 m 1,28,-1
 156 645 l 1,29,-1
 167 645 l 2,30,31
 176 645 176 645 186 645 c 128,-1,32
 196 645 196 645 206 645 c 0,33,34
 260 645 260 645 325 644 c 2,35,-1
 443 644 l 2,36,37
 454 644 454 644 464 644 c 128,-1,38
 474 644 474 644 482 644 c 2,39,-1
 493 644 l 1,40,-1
 497 644 l 1,41,-1
 497 548 l 2,42,43
 497 512 497 512 491 491 c 128,-1,44
 485 470 485 470 461 438 c 0,45,46
 441 414 441 414 412 385 c 2,47,-1
 334 317 l 2,48,49
 330 313 330 313 321.5 306.5 c 128,-1,50
 313 300 313 300 289 289 c 128,-1,51
 265 278 265 278 243 278 c 2,52,-1
 242 278 l 1,53,-1
 238 278 l 2,54,55
 233 278 233 278 226 278 c 2,56,-1
 189 279 l 1,57,-1
 188 279 l 1,58,-1
 187 279 l 1,59,-1
 186 279 l 1,60,-1
 185 279 l 1,61,-1
 183 280 l 1,62,-1
 182 280 l 1,63,-1
 181 280 l 1,64,-1
 180 280 l 1,65,-1
 179 280 l 1,66,67
 180 40 180 40 180 0 c 1,68,-1
 58 1 l 1,69,-1
 61 537 l 2,70,71
 61 546 61 546 61 555 c 128,-1,72
 61 564 61 564 60.5 573 c 128,-1,73
 60 582 60 582 59 590.5 c 128,-1,74
 58 599 58 599 55.5 607 c 128,-1,75
 53 615 53 615 48 621.5 c 128,-1,76
 43 628 43 628 36.5 633 c 128,-1,77
 30 638 30 638 20 641 c 128,-1,78
 10 644 10 644 -3 645 c 1,79,-1
 61 645 l 1,80,-1
 153 645 l 1,28,-1
EndSplineSet
EndChar

StartChar: Q
Encoding: 81 81 52
Width: 630
GlyphClass: 2
Flags: W
LayerCount: 2
Fore
SplineSet
518 643 m 1,0,-1
 518 638 l 1,1,-1
 518 624 l 1,2,-1
 518 582 l 1,3,-1
 518 539 l 1,4,-1
 518 525 l 1,5,-1
 518 520 l 1,6,-1
 518 515 l 1,7,-1
 518 502 l 2,8,9
 518 494 518 494 518 484.5 c 128,-1,10
 518 475 518 475 518 464 c 128,-1,11
 518 453 518 453 518 443 c 128,-1,12
 518 433 518 433 517 425 c 2,13,-1
 517 412 l 1,14,-1
 517 407 l 1,15,-1
 517 406 l 1,16,-1
 517 405 l 2,17,18
 517 404 517 404 517 402 c 0,19,20
 517 398 517 398 517 392 c 0,21,22
 517 379 517 379 516.5 363 c 128,-1,23
 516 347 516 347 516 334 c 0,24,25
 516 333 516 333 516 331.5 c 128,-1,26
 516 330 516 330 515 329 c 1,27,-1
 516 329 l 1,28,29
 516 326 516 326 515 322 c 2,30,-1
 515 320 l 1,31,32
 509 237 509 237 473 169 c 1,33,34
 524 126 524 126 538 113 c 2,35,-1
 591 71 l 1,36,-1
 592 -48 l 1,37,38
 567 -38 567 -38 548 -25 c 0,39,40
 520 -6 520 -6 513 -2 c 1,41,-1
 513 -1 l 1,42,-1
 513 3 l 1,43,44
 463 36 463 36 408 82 c 1,45,46
 340 20 340 20 238 5 c 0,47,48
 216 1 216 1 191 1 c 2,49,-1
 186 1 l 1,50,-1
 173 1 l 1,51,-1
 134 0 l 1,52,-1
 95 0 l 1,53,-1
 82 -1 l 1,54,-1
 77 -1 l 1,55,-1
 76 88 l 2,56,57
 76 89 76 89 76 92 c 0,58,59
 76 97 76 97 75 104 c 2,60,-1
 74 140 l 2,61,62
 74 159 74 159 73 176 c 2,63,-1
 73 177 l 1,64,-1
 73 179 l 1,65,-1
 73 180 l 1,66,-1
 73 181 l 1,67,-1
 73 182 l 1,68,-1
 73 183 l 1,69,-1
 73 184 l 1,70,-1
 73 185 l 1,71,-1
 73 186 l 1,72,-1
 73 187 l 2,73,74
 73 189 73 189 73 191 c 2,75,-1
 72 192 l 1,76,-1
 72 194 l 1,77,-1
 72 199 l 1,78,-1
 72 214 l 1,79,-1
 72 259 l 1,80,-1
 72 304 l 1,81,-1
 72 319 l 1,82,-1
 72 325 l 1,83,-1
 72 326 l 1,84,-1
 73 328 l 2,85,86
 73 330 73 330 73 332 c 0,87,88
 73 339 73 339 73 346 c 2,89,-1
 73 348 l 1,90,-1
 73 349 l 1,91,-1
 73 351 l 1,92,-1
 73 352 l 1,93,-1
 73 353 l 1,94,-1
 73 354 l 1,95,-1
 73 355 l 1,96,-1
 73 356 l 1,97,-1
 73 357 l 1,98,-1
 73 358 l 1,99,-1
 73 359 l 1,100,-1
 73 361 l 2,101,102
 73 366 73 366 73 367 c 0,103,104
 73 400 73 400 75 417 c 0,105,106
 80 482 80 482 103 525.5 c 128,-1,107
 126 569 126 569 169 594.5 c 128,-1,108
 212 620 212 620 267.5 631 c 128,-1,109
 323 642 323 642 403 643 c 2,110,-1
 432 643 l 1,111,-1
 518 643 l 1,0,-1
182 365 m 0,112,113
 182 364 182 364 182 359 c 0,114,115
 182 352 182 352 182 344 c 0,116,117
 182 341 182 341 182 330 c 0,118,119
 181 325 181 325 181 324 c 2,120,-1
 181 319 l 1,121,-1
 181 304 l 1,122,-1
 181 259 l 1,123,-1
 181 214 l 1,124,-1
 181 199 l 1,125,-1
 181 196 l 2,126,127
 181 195 181 195 182 191 c 0,128,129
 182 186 182 186 182 179 c 0,130,131
 183 163 183 163 183 144 c 2,132,-1
 184 108 l 1,133,134
 271 120 271 120 320 161 c 1,135,136
 303 177 303 177 286 195 c 2,137,-1
 265 215 l 1,138,-1
 263 216 l 1,139,-1
 262 217 l 1,140,-1
 260 219 l 1,141,-1
 259 220 l 1,142,-1
 258 221 l 1,143,-1
 257 222 l 1,144,-1
 256 223 l 1,145,-1
 255 224 l 1,146,-1
 254 225 l 1,147,-1
 253 225 l 1,148,-1
 252 226 l 1,149,-1
 252 227 l 1,150,-1
 251 227 l 1,151,-1
 250 228 l 1,152,-1
 249 229 l 1,153,-1
 248 230 l 1,154,-1
 247 231 l 1,155,-1
 246 232 l 1,156,-1
 245 233 l 1,157,-1
 244 234 l 1,158,-1
 242 235 l 1,159,-1
 241 237 l 1,160,-1
 240 238 l 1,161,-1
 239 239 l 1,162,-1
 238 240 l 1,163,-1
 237 240 l 1,164,-1
 235 242 l 2,165,166
 233 244 233 244 232 245 c 2,167,-1
 308 326 l 1,168,-1
 310 324 l 2,169,170
 313 321 313 321 318 317 c 2,171,-1
 340 296 l 1,172,-1
 362 275 l 1,173,-1
 364 274 l 1,174,-1
 365 273 l 1,175,-1
 366 272 l 1,176,-1
 367 271 l 1,177,-1
 368 270 l 1,178,-1
 370 269 l 2,179,180
 372 267 372 267 373 266 c 1,181,182
 372 265 372 265 371 265 c 1,183,184
 376 259 376 259 381 254 c 1,185,186
 395 296 395 296 401 352 c 0,187,188
 401 354 401 354 401 355 c 128,-1,189
 401 356 401 356 401 360 c 2,190,-1
 401 366 l 2,191,192
 402 382 402 382 402 395 c 0,193,194
 402 401 402 401 402 405 c 0,195,196
 402 406 402 406 402 406 c 1,197,-1
 403 407 l 1,198,-1
 403 412 l 1,199,-1
 403 425 l 2,200,201
 403 433 403 433 403 443 c 128,-1,202
 403 453 403 453 403 464 c 128,-1,203
 403 475 403 475 403 484.5 c 128,-1,204
 403 494 403 494 403 503 c 2,205,-1
 403 515 l 1,206,-1
 403 520 l 1,207,-1
 403 525 l 1,208,-1
 403 531 l 1,209,210
 348 531 348 531 309 523.5 c 128,-1,211
 270 516 270 516 246 503 c 128,-1,212
 222 490 222 490 208 468 c 128,-1,213
 194 446 194 446 188.5 422.5 c 128,-1,214
 183 399 183 399 182 365 c 0,112,113
EndSplineSet
EndChar

StartChar: R
Encoding: 82 82 53
Width: 703
GlyphClass: 2
Flags: W
LayerCount: 2
Fore
SplineSet
377 548 m 1,0,1
 331 548 331 548 325 548 c 0,2,3
 260 549 260 549 206 549 c 0,4,5
 197 549 197 549 188 549 c 128,-1,6
 179 549 179 549 178 549 c 1,7,-1
 178 537 l 1,8,-1
 178 463 l 1,9,-1
 178 438 l 1,10,-1
 178 429 l 1,11,-1
 178 424 l 1,12,-1
 178 412 l 1,13,-1
 178 389 l 1,14,-1
 245 388 l 2,15,16
 252 391 252 391 256 394 c 0,17,18
 264 400 264 400 298.5 432.5 c 128,-1,19
 333 465 333 465 342 474 c 0,20,21
 357 491 357 491 371 509 c 0,22,23
 384 525 384 525 377 548 c 1,0,1
153 645 m 1,24,-1
 156 645 l 1,25,-1
 167 645 l 2,26,27
 176 645 176 645 186 645 c 128,-1,28
 196 645 196 645 206 645 c 0,29,30
 260 645 260 645 325 644 c 2,31,-1
 443 644 l 2,32,33
 454 644 454 644 464 644 c 128,-1,34
 474 644 474 644 482 644 c 2,35,-1
 493 644 l 1,36,-1
 497 644 l 1,37,-1
 497 548 l 2,38,39
 497 512 497 512 491 491 c 128,-1,40
 485 470 485 470 461 438 c 0,41,42
 441 414 441 414 412 385 c 0,43,44
 399 372 399 372 345 326 c 1,45,46
 362 310 362 310 381 291 c 0,47,48
 396 276 396 276 415 257 c 0,49,50
 422 250 422 250 431 240 c 2,51,-1
 447 223 l 2,52,53
 491 178 491 178 527 146 c 0,54,55
 536 138 536 138 547 128 c 128,-1,56
 558 118 558 118 572.5 106 c 128,-1,57
 587 94 587 94 595 87 c 2,58,-1
 665 32 l 1,59,-1
 666 -87 l 1,60,61
 641 -76 641 -76 622 -64 c 0,62,63
 593 -45 593 -45 586 -40 c 0,64,65
 520 6 520 6 466 55 c 0,66,67
 404 110 404 110 367 149 c 0,68,69
 359 158 359 158 296 220 c 0,70,71
 252 264 252 264 240 274 c 0,72,73
 237 277 237 277 235 279 c 2,74,-1
 179 280 l 1,75,76
 180 41 180 41 180 0 c 1,77,-1
 58 1 l 1,78,-1
 61 537 l 2,79,80
 61 546 61 546 61 555 c 128,-1,81
 61 564 61 564 60.5 573 c 128,-1,82
 60 582 60 582 59 590.5 c 128,-1,83
 58 599 58 599 55.5 607 c 128,-1,84
 53 615 53 615 48 621.5 c 128,-1,85
 43 628 43 628 36.5 633 c 128,-1,86
 30 638 30 638 20 641 c 128,-1,87
 10 644 10 644 -3 645 c 1,88,-1
 61 645 l 1,89,-1
 153 645 l 1,24,-1
EndSplineSet
EndChar

StartChar: S
Encoding: 83 83 54
Width: 561
GlyphClass: 2
Flags: W
LayerCount: 2
Fore
SplineSet
60 106 m 1,0,-1
 66 106 l 1,1,-1
 80 106 l 2,2,3
 91 106 91 106 103 106 c 128,-1,4
 115 106 115 106 125 106 c 0,5,6
 136 106 136 106 146.5 106 c 128,-1,7
 157 106 157 106 165 106 c 0,8,9
 262 116 262 116 323.5 164 c 128,-1,10
 385 212 385 212 406 313 c 1,11,12
 382 313 382 313 297 313 c 128,-1,13
 212 313 212 313 142 313 c 0,14,15
 126 313 126 313 113 313 c 128,-1,16
 100 313 100 313 91 313 c 2,17,-1
 77 313 l 1,18,-1
 72 313 l 1,19,-1
 72 417 l 2,20,21
 72 424 72 424 73 428 c 0,22,23
 81 483 81 483 100.5 520.5 c 128,-1,24
 120 558 120 558 148 582 c 128,-1,25
 176 606 176 606 220 619.5 c 128,-1,26
 264 633 264 633 313.5 637.5 c 128,-1,27
 363 642 363 642 434 642 c 1,28,-1
 433 530 l 1,29,30
 349 533 349 533 297.5 521 c 128,-1,31
 246 509 246 509 222.5 486 c 128,-1,32
 199 463 199 463 189 425 c 1,33,34
 202 424 202 424 238 424 c 0,35,36
 256 424 256 424 298 424 c 0,37,38
 382 424 382 424 453 424 c 0,39,40
 469 424 469 424 481.5 424 c 128,-1,41
 494 424 494 424 504 424 c 2,42,-1
 518 424 l 1,43,-1
 523 424 l 1,44,-1
 522 312 l 2,45,46
 520 272 520 272 509.5 234 c 128,-1,47
 499 196 499 196 477 158 c 128,-1,48
 455 120 455 120 424 89.5 c 128,-1,49
 393 59 393 59 345 36.5 c 128,-1,50
 297 14 297 14 238 5 c 0,51,52
 218 2 218 2 190 1 c 2,53,-1
 184 1 l 1,54,-1
 170 1 l 2,55,56
 159 1 159 1 147 1 c 128,-1,57
 135 1 135 1 125 1 c 128,-1,58
 115 1 115 1 103 1 c 128,-1,59
 91 1 91 1 80 1 c 2,60,-1
 66 1 l 1,61,-1
 60 1 l 1,62,-1
 60 106 l 1,0,-1
EndSplineSet
EndChar

StartChar: T
Encoding: 84 84 55
Width: 631
GlyphClass: 2
Flags: W
LayerCount: 2
Fore
SplineSet
15 646 m 1,0,-1
 22 646 l 1,1,-1
 40 646 l 1,2,-1
 106 646 l 2,3,4
 155 646 155 646 206.5 646 c 128,-1,5
 258 646 258 646 304 646 c 0,6,7
 352 646 352 646 403 646 c 128,-1,8
 454 646 454 646 503 646 c 2,9,-1
 569 646 l 1,10,-1
 587 646 l 1,11,-1
 594 646 l 1,12,-1
 594 539 l 1,13,-1
 587 539 l 1,14,-1
 569 539 l 1,15,-1
 503 539 l 2,16,17
 477 539 477 539 362 539 c 1,18,19
 362 507 362 507 362 490 c 0,20,21
 363 399 363 399 363 291 c 128,-1,22
 363 183 363 183 363 93 c 0,23,24
 363 54 363 54 364 27 c 0,25,26
 364 23 364 23 364 19.5 c 128,-1,27
 364 16 364 16 364 14 c 128,-1,28
 364 12 364 12 364 9 c 2,29,-1
 364 3 l 1,30,-1
 248 2 l 1,31,-1
 248 9 l 2,32,33
 248 12 248 12 248 14 c 128,-1,34
 248 16 248 16 248 19.5 c 128,-1,35
 248 23 248 23 248 27 c 0,36,37
 247 54 247 54 247 92 c 0,38,39
 247 183 247 183 247 291 c 128,-1,40
 247 399 247 399 246 489 c 0,41,42
 246 525 246 525 246 539 c 1,43,44
 136 539 136 539 106 539 c 2,45,-1
 40 539 l 1,46,-1
 22 539 l 1,47,-1
 15 539 l 1,48,-1
 15 646 l 1,0,-1
EndSplineSet
EndChar

StartChar: U
Encoding: 85 85 56
Width: 562
GlyphClass: 2
Flags: W
LayerCount: 2
Fore
SplineSet
521 645 m 1,0,-1
 522 639 l 2,1,2
 522 631 522 631 522 620 c 0,3,4
 522 590 522 590 522 549 c 0,5,6
 522 452 522 452 523 335 c 0,7,8
 523 317 523 317 523 310 c 2,9,-1
 523 309 l 2,10,11
 523 300 523 300 523 292 c 0,12,13
 523 258 523 258 523 217 c 0,14,15
 523 201 523 201 523 121 c 2,16,-1
 524 1 l 1,17,-1
 417 -2 l 1,18,-1
 417 49 l 2,19,20
 417 51 417 51 417 62 c 2,21,-1
 417 81 l 1,22,23
 346 21 346 21 238 5 c 0,24,25
 216 1 216 1 184 1 c 2,26,-1
 69 1 l 1,27,-1
 69 11 l 2,28,29
 69 254 69 254 69 282 c 2,30,-1
 69 430 l 2,31,32
 69 442 69 442 69 469.5 c 128,-1,33
 69 497 69 497 69 511.5 c 128,-1,34
 69 526 69 526 67.5 549.5 c 128,-1,35
 66 573 66 573 62.5 585.5 c 128,-1,36
 59 598 59 598 52.5 612.5 c 128,-1,37
 46 627 46 627 35.5 634 c 128,-1,38
 25 641 25 641 11 643 c 1,39,-1
 69 644 l 1,40,-1
 184 644 l 1,41,-1
 184 625 l 1,42,-1
 184 577 l 1,43,-1
 184 430 l 1,44,-1
 184 282 l 1,45,-1
 184 234 l 1,46,-1
 184 215 l 1,47,-1
 184 206 l 1,48,-1
 184 182 l 1,49,-1
 184 108 l 1,50,-1
 184 101 l 1,51,52
 307 116 307 116 370 196 c 0,53,54
 409 246 409 246 415 293 c 0,55,56
 416 301 416 301 417 307 c 0,57,58
 416 428 416 428 416 521.5 c 128,-1,59
 416 615 416 615 416 618 c 2,60,-1
 416 638 l 1,61,-1
 416 645 l 1,62,-1
 521 645 l 1,0,-1
EndSplineSet
EndChar

StartChar: V
Encoding: 86 86 57
Width: 561
GlyphClass: 2
Flags: W
LayerCount: 2
Fore
SplineSet
522 643 m 1,0,-1
 522 639 l 2,1,2
 522 635 522 635 522 629 c 0,3,4
 522 613 522 613 522 591 c 0,5,6
 522 538 522 538 522.5 475.5 c 128,-1,7
 523 413 523 413 523 361 c 0,8,9
 523 339 523 339 523 323 c 2,10,-1
 523 312 l 1,11,-1
 523 309 l 2,12,13
 523 260 523 260 506.5 212.5 c 128,-1,14
 490 165 490 165 457 121.5 c 128,-1,15
 424 78 424 78 367.5 47 c 128,-1,16
 311 16 311 16 238 5 c 0,17,18
 216 1 216 1 184 1 c 2,19,-1
 69 1 l 1,20,-1
 69 11 l 2,21,22
 69 254 69 254 69 282 c 2,23,-1
 69 430 l 2,24,25
 69 442 69 442 69 469.5 c 128,-1,26
 69 497 69 497 69 511.5 c 128,-1,27
 69 526 69 526 67.5 549.5 c 128,-1,28
 66 573 66 573 62.5 585.5 c 128,-1,29
 59 598 59 598 52.5 612.5 c 128,-1,30
 46 627 46 627 35.5 634 c 128,-1,31
 25 641 25 641 11 643 c 1,32,-1
 69 644 l 1,33,-1
 184 644 l 1,34,-1
 184 625 l 1,35,-1
 184 577 l 1,36,-1
 184 430 l 1,37,-1
 184 282 l 1,38,-1
 184 234 l 1,39,-1
 184 215 l 1,40,-1
 184 206 l 1,41,-1
 184 182 l 1,42,-1
 184 108 l 1,43,-1
 184 101 l 1,44,45
 307 116 307 116 370 196 c 0,46,47
 409 246 409 246 415 293 c 0,48,49
 416 303 416 303 417 310 c 0,50,51
 418 319 418 319 417 322 c 0,52,53
 417 330 417 330 416.5 475 c 128,-1,54
 416 620 416 620 416 628 c 2,55,-1
 416 639 l 1,56,-1
 416 642 l 1,57,-1
 522 643 l 1,0,-1
EndSplineSet
EndChar

StartChar: W
Encoding: 87 87 58
Width: 819
GlyphClass: 2
Flags: W
LayerCount: 2
Fore
SplineSet
152 645 m 1,0,-1
 156 384 l 2,1,2
 160 341 160 341 176.5 303 c 128,-1,3
 193 265 193 265 217 242 c 0,4,5
 255 205 255 205 328 176 c 0,6,7
 331 175 331 175 341 170 c 1,8,9
 341 180 341 180 341 187 c 0,10,11
 341 191 341 191 341 194.5 c 128,-1,12
 341 198 341 198 341 201 c 2,13,-1
 341 207 l 2,14,15
 341 208 341 208 342 214 c 0,16,17
 342 223 342 223 342 234 c 0,18,19
 342 261 342 261 342 293.5 c 128,-1,20
 342 326 342 326 343 353 c 0,21,22
 343 364 343 364 343 372 c 2,23,-1
 343 384 l 1,24,-1
 343 398 l 2,25,26
 343 407 343 407 343 417 c 128,-1,27
 343 427 343 427 343 438 c 0,28,29
 343 461 343 461 343 479 c 2,30,-1
 343 492 l 1,31,-1
 343 503 l 2,32,33
 343 507 343 507 343 511 c 128,-1,34
 343 515 343 515 343 520 c 0,35,36
 343 531 343 531 343 544 c 128,-1,37
 343 557 343 557 343 571 c 128,-1,38
 343 585 343 585 343 598 c 128,-1,39
 343 611 343 611 343 622 c 2,40,-1
 343 639 l 1,41,-1
 343 645 l 1,42,-1
 463 645 l 1,43,-1
 461 385 l 1,44,-1
 463 374 l 2,45,46
 467 331 467 331 483.5 293 c 128,-1,47
 500 255 500 255 524 232 c 0,48,49
 562 195 562 195 635 165 c 0,50,51
 636 165 636 165 663 154 c 1,52,53
 663 239 663 239 663 323 c 2,54,-1
 663 328 l 2,55,56
 664 449 664 449 664 464 c 2,57,-1
 664 537 l 1,58,-1
 665 644 l 1,59,-1
 781 644 l 1,60,61
 781 642 781 642 781 635 c 0,62,63
 781 625 781 625 781 610 c 0,64,65
 781 577 781 577 781 537 c 128,-1,66
 781 497 781 497 781 463 c 0,67,68
 781 449 781 449 781 439 c 2,69,-1
 780 430 l 1,70,-1
 780 425 l 2,71,72
 780 420 780 420 780 413 c 0,73,74
 780 396 780 396 780 376 c 0,75,76
 780 366 780 366 780 357 c 128,-1,77
 780 348 780 348 780 340 c 2,78,-1
 780 327 l 1,79,-1
 780 317 l 2,80,81
 780 314 780 314 780 310 c 128,-1,82
 780 306 780 306 780 301 c 0,83,84
 780 279 780 279 779 90 c 1,85,-1
 780 89 l 1,86,-1
 717 -5 l 1,87,88
 706 0 706 0 698 4 c 0,89,90
 690 9 690 9 675.5 16 c 128,-1,91
 661 23 661 23 649 29 c 0,92,93
 647 31 647 31 644 32 c 0,94,95
 572 64 572 64 510 99 c 0,96,97
 480 116 480 116 460 134 c 1,98,99
 459 111 459 111 459 87 c 1,100,-1
 460 87 l 1,101,-1
 432 49 l 2,102,103
 430 45 430 45 427 41 c 2,104,-1
 395 -4 l 1,105,-1
 270 74 l 1,106,107
 223 98 223 98 203 109 c 0,108,109
 160 134 160 134 132 165 c 0,110,111
 94 207 94 207 67 272.5 c 128,-1,112
 40 338 40 338 37 411 c 0,113,114
 37 416 37 416 37 420 c 0,115,116
 36 425 36 425 36 429 c 2,117,-1
 36 436 l 1,118,-1
 36 438 l 1,119,-1
 36 442 l 2,120,121
 36 446 36 446 36 451 c 0,122,123
 36 464 36 464 36.5 479 c 128,-1,124
 37 494 37 494 37 507 c 2,125,-1
 37 516 l 1,126,-1
 37 522 l 1,127,-1
 37 529 l 2,128,129
 37 533 37 533 37 537.5 c 128,-1,130
 37 542 37 542 37 548 c 2,131,-1
 37 567 l 1,132,-1
 37 573 l 1,133,-1
 37 579 l 1,134,-1
 37 586 l 2,135,136
 37 592 37 592 37 598 c 128,-1,137
 37 604 37 604 37 610.5 c 128,-1,138
 37 617 37 617 37 623 c 128,-1,139
 37 629 37 629 37 635 c 2,140,-1
 36 642 l 1,141,-1
 36 645 l 1,142,-1
 152 645 l 1,0,-1
EndSplineSet
EndChar

StartChar: X
Encoding: 88 88 59
Width: 655
GlyphClass: 2
Flags: W
LayerCount: 2
Fore
SplineSet
130 644 m 1,0,-1
 134 644 l 1,1,-1
 147 644 l 2,2,3
 157 644 157 644 168.5 644 c 128,-1,4
 180 644 180 644 192 644 c 0,5,6
 222 644 222 644 256.5 644 c 128,-1,7
 291 644 291 644 330 644 c 128,-1,8
 369 644 369 644 403.5 644 c 128,-1,9
 438 644 438 644 468 644 c 0,10,11
 479 644 479 644 491 644 c 128,-1,12
 503 644 503 644 513 644 c 2,13,-1
 526 644 l 1,14,-1
 530 644 l 1,15,-1
 530 643 l 1,16,17
 571 644 571 644 612 644 c 1,18,-1
 413 348 l 1,19,-1
 350 431 l 1,20,-1
 429 544 l 1,21,-1
 428 544 l 1,22,-1
 427 544 l 1,23,-1
 426 544 l 1,24,-1
 425 544 l 1,25,-1
 424 544 l 1,26,-1
 422 544 l 1,27,-1
 421 544 l 1,28,-1
 420 544 l 1,29,-1
 419 544 l 1,30,-1
 418 544 l 1,31,-1
 417 544 l 1,32,-1
 416 544 l 1,33,-1
 415 544 l 1,34,-1
 414 544 l 1,35,-1
 413 544 l 1,36,-1
 412 544 l 1,37,-1
 411 544 l 1,38,-1
 410 544 l 1,39,-1
 409 544 l 1,40,-1
 408 544 l 1,41,-1
 407 544 l 1,42,-1
 406 544 l 1,43,-1
 405 544 l 1,44,-1
 404 544 l 1,45,-1
 403 544 l 1,46,-1
 402 544 l 1,47,-1
 401 544 l 1,48,-1
 400 544 l 1,49,-1
 399 544 l 1,50,-1
 398 544 l 1,51,-1
 397 544 l 1,52,-1
 396 544 l 1,53,-1
 395 544 l 1,54,-1
 394 544 l 1,55,-1
 393 544 l 1,56,-1
 392 544 l 1,57,-1
 391 544 l 1,58,-1
 390 544 l 1,59,-1
 389 544 l 1,60,-1
 388 544 l 1,61,-1
 387 544 l 1,62,-1
 386 544 l 1,63,-1
 385 544 l 1,64,-1
 384 544 l 1,65,-1
 383 544 l 1,66,-1
 382 544 l 1,67,-1
 381 544 l 1,68,-1
 380 544 l 1,69,-1
 379 544 l 1,70,-1
 378 544 l 1,71,-1
 377 544 l 1,72,-1
 376 544 l 1,73,-1
 375 544 l 1,74,-1
 374 544 l 1,75,-1
 373 544 l 1,76,-1
 372 544 l 1,77,-1
 371 544 l 1,78,-1
 370 544 l 1,79,-1
 369 544 l 1,80,-1
 368 544 l 1,81,-1
 367 544 l 1,82,-1
 366 544 l 1,83,-1
 365 544 l 1,84,-1
 364 544 l 1,85,-1
 363 544 l 1,86,-1
 362 544 l 1,87,-1
 361 544 l 1,88,-1
 360 544 l 1,89,-1
 359 544 l 1,90,-1
 358 544 l 1,91,-1
 357 544 l 1,92,-1
 356 544 l 1,93,-1
 355 544 l 1,94,-1
 354 544 l 1,95,-1
 353 544 l 1,96,-1
 352 544 l 1,97,-1
 351 544 l 1,98,-1
 350 544 l 1,99,-1
 349 544 l 1,100,-1
 348 544 l 1,101,-1
 347 544 l 1,102,-1
 346 544 l 1,103,-1
 345 544 l 1,104,-1
 344 544 l 1,105,-1
 343 544 l 1,106,-1
 342 544 l 1,107,-1
 341 544 l 1,108,-1
 340 544 l 1,109,-1
 339 544 l 1,110,-1
 338 544 l 1,111,-1
 337 544 l 1,112,-1
 336 544 l 1,113,-1
 335 544 l 1,114,-1
 334 544 l 1,115,-1
 333 544 l 1,116,-1
 332 544 l 1,117,-1
 331 544 l 1,118,-1
 330 544 l 2,119,120
 242 544 242 544 223 544 c 1,121,-1
 617 0 l 1,122,-1
 538 0 l 1,123,-1
 538 -1 l 1,124,-1
 534 -1 l 1,125,-1
 520 -1 l 1,126,-1
 471 -1 l 2,127,128
 439 -1 439 -1 402.5 -0.5 c 128,-1,129
 366 0 366 0 324 0 c 128,-1,130
 282 0 282 0 245 0 c 128,-1,131
 208 0 208 0 176 0 c 2,132,-1
 127 0 l 1,133,-1
 114 0 l 1,134,-1
 109 0 l 1,135,-1
 38 0 l 1,136,-1
 238 295 l 1,137,-1
 300 212 l 1,138,-1
 221 99 l 1,139,140
 300 99 300 99 324 99 c 0,141,142
 352 99 352 99 371 99 c 128,-1,143
 390 99 390 99 407 99 c 128,-1,144
 424 99 424 99 436 99 c 1,145,-1
 45 644 l 1,146,-1
 130 644 l 1,0,-1
EndSplineSet
EndChar

StartChar: Y
Encoding: 89 89 60
Width: 717
GlyphClass: 2
Flags: W
LayerCount: 2
Fore
SplineSet
532 646 m 1,0,-1
 680 645 l 1,1,-1
 99 -120 l 1,2,-1
 -56 -120 l 1,3,-1
 273 309 l 1,4,-1
 8 645 l 1,5,-1
 162 645 l 1,6,-1
 353 413 l 1,7,-1
 532 646 l 1,0,-1
EndSplineSet
EndChar

StartChar: Z
Encoding: 90 90 61
Width: 652
GlyphClass: 2
Flags: W
LayerCount: 2
Fore
SplineSet
482 644 m 1,0,-1
 599 644 l 1,1,-1
 530 544 l 1,2,-1
 224 99 l 1,3,4
 237 99 237 99 269.5 99 c 128,-1,5
 302 99 302 99 339 99 c 0,6,7
 363 99 363 99 433 99 c 1,8,-1
 364 198 l 1,9,-1
 418 277 l 1,10,-1
 615 1 l 1,11,-1
 538 0 l 1,12,-1
 538 -1 l 1,13,-1
 534 -1 l 1,14,-1
 521 -1 l 1,15,-1
 520 -1 l 1,16,-1
 514 -1 l 1,17,-1
 503 -1 l 1,18,-1
 476 -1 l 1,19,-1
 471 -1 l 2,20,21
 439 -1 439 -1 402.5 -0.5 c 128,-1,22
 366 0 366 0 324 0 c 128,-1,23
 282 0 282 0 245 0 c 128,-1,24
 208 0 208 0 176 0 c 2,25,-1
 156 0 l 1,26,-1
 143 0 l 1,27,-1
 139 0 l 1,28,-1
 127 0 l 1,29,-1
 114 0 l 1,30,-1
 109 0 l 1,31,-1
 109 1 l 1,32,-1
 33 0 l 1,33,-1
 412 544 l 1,34,-1
 411 544 l 1,35,-1
 410 544 l 1,36,-1
 409 544 l 1,37,-1
 408 544 l 1,38,-1
 407 544 l 1,39,-1
 406 544 l 1,40,-1
 405 544 l 1,41,-1
 404 544 l 1,42,-1
 403 544 l 1,43,-1
 402 544 l 1,44,-1
 401 544 l 1,45,-1
 400 544 l 1,46,-1
 399 544 l 1,47,-1
 398 544 l 1,48,-1
 397 544 l 1,49,-1
 396 544 l 1,50,-1
 395 544 l 1,51,-1
 394 544 l 1,52,-1
 393 544 l 1,53,-1
 392 544 l 1,54,-1
 391 544 l 1,55,-1
 390 544 l 1,56,-1
 389 544 l 1,57,-1
 388 544 l 1,58,-1
 387 544 l 1,59,-1
 386 544 l 1,60,-1
 385 544 l 1,61,-1
 384 544 l 1,62,-1
 383 544 l 1,63,-1
 382 544 l 1,64,-1
 381 544 l 1,65,-1
 380 544 l 1,66,-1
 379 544 l 1,67,-1
 378 544 l 1,68,-1
 376 544 l 1,69,-1
 375 544 l 1,70,-1
 374 544 l 1,71,-1
 373 544 l 1,72,-1
 372 544 l 1,73,-1
 371 544 l 1,74,-1
 370 544 l 1,75,-1
 369 544 l 1,76,-1
 368 544 l 1,77,-1
 367 544 l 1,78,-1
 366 544 l 1,79,-1
 365 544 l 1,80,-1
 364 544 l 1,81,-1
 363 544 l 1,82,-1
 362 544 l 1,83,-1
 361 544 l 1,84,-1
 360 544 l 1,85,-1
 359 544 l 1,86,-1
 358 544 l 1,87,-1
 357 544 l 1,88,-1
 356 544 l 1,89,-1
 355 544 l 1,90,-1
 354 544 l 1,91,-1
 353 544 l 1,92,-1
 352 544 l 1,93,-1
 351 544 l 1,94,-1
 350 544 l 1,95,-1
 349 544 l 1,96,-1
 348 544 l 1,97,-1
 347 544 l 1,98,-1
 346 544 l 1,99,-1
 345 544 l 1,100,-1
 344 544 l 1,101,-1
 343 544 l 1,102,-1
 342 544 l 1,103,-1
 341 544 l 1,104,-1
 340 544 l 1,105,-1
 339 544 l 1,106,-1
 338 544 l 1,107,-1
 337 544 l 1,108,-1
 336 544 l 1,109,-1
 335 544 l 1,110,-1
 334 544 l 1,111,-1
 333 544 l 1,112,-1
 332 544 l 1,113,-1
 331 544 l 1,114,-1
 330 544 l 2,115,116
 231 544 231 544 225 544 c 1,117,-1
 288 452 l 1,118,-1
 238 374 l 1,119,-1
 47 645 l 1,120,-1
 156 645 l 1,121,-1
 156 644 l 1,122,123
 162 644 162 644 172 644 c 128,-1,124
 182 644 182 644 192 644 c 0,125,126
 255 644 255 644 330 644 c 128,-1,127
 405 644 405 644 468 644 c 0,128,129
 475 644 475 644 481 644 c 2,130,-1
 482 644 l 1,0,-1
EndSplineSet
EndChar

StartChar: bracketleft
Encoding: 91 91 62
Width: 297
GlyphClass: 2
Flags: W
LayerCount: 2
Fore
SplineSet
249 -219 m 1,0,1
 226 -218 226 -218 202 -217 c 2,2,-1
 101 -216 l 1,3,-1
 100 -216 l 1,4,5
 101 -207 101 -207 101 -191 c 0,6,7
 101 -189 101 -189 101 -185 c 128,-1,8
 101 -181 101 -181 101 -176.5 c 128,-1,9
 101 -172 101 -172 101 -165 c 0,10,11
 101 -114 101 -114 101 -52.5 c 128,-1,12
 101 9 101 9 101 60 c 0,13,14
 101 70 101 70 101 79.5 c 128,-1,15
 101 89 101 89 101 97 c 2,16,-1
 101 112 l 1,17,-1
 101 119 l 2,18,19
 101 126 101 126 101 137 c 0,20,21
 102 163 102 163 102 193 c 0,22,23
 102 210 102 210 102 224 c 128,-1,24
 102 238 102 238 102 250 c 2,25,-1
 102 268 l 1,26,-1
 102 284 l 2,27,28
 102 288 102 288 102 294.5 c 128,-1,29
 102 301 102 301 102 308 c 2,30,-1
 103 778 l 1,31,-1
 141 778 l 1,32,-1
 209 778 l 1,33,-1
 256 780 l 1,34,35
 247 779 247 779 240.5 775.5 c 128,-1,36
 234 772 234 772 229 765.5 c 128,-1,37
 224 759 224 759 220.5 750.5 c 128,-1,38
 217 742 217 742 215 732 c 128,-1,39
 213 722 213 722 211.5 711 c 128,-1,40
 210 700 210 700 209.5 688 c 128,-1,41
 209 676 209 676 209 663.5 c 128,-1,42
 209 651 209 651 209 639 c 128,-1,43
 209 627 209 627 209 616 c 0,44,45
 208 227 208 227 207 -162 c 1,46,47
 216 -216 216 -216 249 -219 c 1,0,1
EndSplineSet
EndChar

StartChar: backslash
Encoding: 92 92 63
Width: 401
GlyphClass: 2
Flags: W
LayerCount: 2
Fore
SplineSet
56 779 m 1,0,-1
 364 -192 l 1,1,-1
 273 -192 l 1,2,-1
 -36 778 l 1,3,-1
 56 779 l 1,0,-1
EndSplineSet
EndChar

StartChar: bracketright
Encoding: 93 93 64
Width: 236
GlyphClass: 2
Flags: W
LayerCount: 2
Fore
SplineSet
49 782 m 1,0,1
 47 783 47 783 45 783 c 1,2,3
 47 782 47 782 49 782 c 1,0,1
49 782 m 1,4,-1
 96 780 l 1,5,-1
 198 779 l 1,6,7
 198 768 198 768 198 751 c 0,8,9
 198 748 198 748 198 742 c 2,10,-1
 198 728 l 2,11,12
 197 677 197 677 197 615 c 128,-1,13
 197 553 197 553 196 502 c 0,14,15
 196 480 196 480 196 465 c 2,16,-1
 196 450 l 1,17,-1
 196 443 l 1,18,-1
 196 425 l 2,19,20
 196 399 196 399 195.5 368 c 128,-1,21
 195 337 195 337 195 312 c 2,22,-1
 195 293 l 1,23,-1
 195 278 l 1,24,-1
 195 253 l 2,25,26
 195 219 195 219 192 -218 c 1,27,28
 172 -218 172 -218 153 -218 c 0,29,30
 119 -218 119 -218 85 -217 c 0,31,32
 62 -218 62 -218 38 -219 c 1,33,34
 46 -218 46 -218 53 -215 c 128,-1,35
 60 -212 60 -212 65 -204.5 c 128,-1,36
 70 -197 70 -197 73.5 -190.5 c 128,-1,37
 77 -184 77 -184 79 -171.5 c 128,-1,38
 81 -159 81 -159 82.5 -150.5 c 128,-1,39
 84 -142 84 -142 84.5 -126.5 c 128,-1,40
 85 -111 85 -111 85.5 -103 c 128,-1,41
 86 -95 86 -95 86 -78 c 128,-1,42
 86 -61 86 -61 86 -55 c 2,43,-1
 91 725 l 1,44,45
 83 779 83 779 49 782 c 1,4,-1
EndSplineSet
EndChar

StartChar: asciicircum
Encoding: 94 94 65
Width: 522
GlyphClass: 2
Flags: W
LayerCount: 2
Fore
SplineSet
298 652 m 1,0,-1
 112 323 l 1,1,-1
 44 323 l 1,2,-1
 264 712 l 1,3,-1
 298 652 l 1,0,-1
312 633 m 1,4,-1
 485 323 l 1,5,-1
 418 323 l 1,6,-1
 279 575 l 1,7,-1
 312 633 l 1,4,-1
EndSplineSet
EndChar

StartChar: underscore
Encoding: 95 95 66
Width: 535
GlyphClass: 2
Flags: W
LayerCount: 2
Fore
SplineSet
2 -61 m 1,0,-1
 7 -61 l 1,1,-1
 23 -61 l 2,2,3
 35 -61 35 -61 49.5 -61 c 128,-1,4
 64 -61 64 -61 79 -61 c 0,5,6
 157 -61 157 -61 250 -61 c 128,-1,7
 343 -61 343 -61 420 -61 c 0,8,9
 435 -61 435 -61 449.5 -61 c 128,-1,10
 464 -61 464 -61 477 -61 c 2,11,-1
 492 -61 l 1,12,-1
 498 -61 l 1,13,-1
 498 -131 l 1,14,-1
 492 -131 l 1,15,-1
 477 -131 l 2,16,17
 464 -131 464 -131 449.5 -131 c 128,-1,18
 435 -131 435 -131 420 -131 c 0,19,20
 343 -131 343 -131 250 -131 c 128,-1,21
 157 -131 157 -131 79 -131 c 0,22,23
 65 -131 65 -131 50.5 -131 c 128,-1,24
 36 -131 36 -131 23 -131 c 2,25,-1
 7 -131 l 1,26,-1
 2 -131 l 1,27,-1
 2 -61 l 1,0,-1
EndSplineSet
EndChar

StartChar: grave
Encoding: 96 96 67
Width: 490
GlyphClass: 2
Flags: W
LayerCount: 2
Fore
SplineSet
205 779 m 5,0,-1
 453 558 l 5,1,-1
 356 561 l 5,2,-1
 113 779 l 5,3,-1
 205 779 l 5,0,-1
EndSplineSet
EndChar

StartChar: a
Encoding: 97 97 68
Width: 583
GlyphClass: 2
Flags: W
LayerCount: 2
Fore
SplineSet
430 556 m 5,0,1
 428 555 428 555 426 554 c 4,2,3
 289 508 289 508 240 455 c 4,4,5
 198 409 198 409 188 337 c 5,6,-1
 428 365 l 5,7,-1
 428 366 l 5,8,-1
 428 367 l 5,9,-1
 428 369 l 5,10,-1
 428 370 l 5,11,-1
 428 371 l 5,12,-1
 428 373 l 5,13,-1
 428 374 l 5,14,-1
 428 375 l 5,15,-1
 428 376 l 5,16,-1
 428 378 l 5,17,-1
 428 379 l 5,18,-1
 428 380 l 5,19,-1
 428 381 l 5,20,-1
 428 383 l 5,21,-1
 428 384 l 5,22,-1
 428 385 l 5,23,-1
 428 386 l 5,24,-1
 428 387 l 5,25,-1
 428 389 l 5,26,-1
 428 390 l 5,27,-1
 428 391 l 5,28,-1
 428 392 l 5,29,-1
 428 393 l 5,30,-1
 428 395 l 5,31,-1
 428 396 l 5,32,-1
 428 397 l 5,33,-1
 428 398 l 5,34,-1
 428 399 l 5,35,-1
 428 400 l 5,36,-1
 428 401 l 5,37,-1
 428 403 l 5,38,-1
 428 404 l 5,39,-1
 428 405 l 5,40,-1
 428 406 l 5,41,-1
 428 407 l 5,42,-1
 428 408 l 5,43,-1
 428 409 l 5,44,-1
 428 410 l 5,45,-1
 429 411 l 5,46,-1
 429 412 l 5,47,-1
 429 414 l 5,48,-1
 429 415 l 5,49,-1
 429 416 l 5,50,-1
 429 417 l 5,51,-1
 429 418 l 5,52,-1
 429 419 l 5,53,-1
 429 420 l 5,54,-1
 429 421 l 5,55,-1
 429 422 l 5,56,-1
 429 423 l 5,57,-1
 429 424 l 5,58,-1
 429 425 l 5,59,-1
 429 426 l 5,60,-1
 429 427 l 5,61,-1
 429 428 l 5,62,-1
 429 429 l 5,63,-1
 429 430 l 5,64,-1
 429 431 l 5,65,-1
 429 432 l 5,66,-1
 429 433 l 5,67,-1
 429 434 l 5,68,-1
 429 435 l 5,69,-1
 429 545 l 6,70,71
 430 552 430 552 430 556 c 5,0,1
68 1 m 5,72,-1
 68 4 l 5,73,-1
 68 13 l 5,74,-1
 68 45 l 5,75,-1
 68 142 l 5,76,-1
 68 239 l 5,77,-1
 68 271 l 5,78,-1
 68 280 l 5,79,-1
 68 282 l 5,80,-1
 68 284 l 6,81,82
 69 377 69 377 83.5 427.5 c 132,-1,83
 98 478 98 478 143 528 c 4,84,85
 181 569 181 569 257 609 c 4,86,87
 287 625 287 625 355 659 c 132,-1,88
 423 693 423 693 450 704 c 5,89,-1
 438 645 l 5,90,91
 492 645 492 645 546 645 c 5,92,93
 546 644 546 644 546 643 c 4,94,95
 546 640 546 640 546 637 c 4,96,97
 546 629 546 629 545 617 c 4,98,99
 545 587 545 587 545 544 c 4,100,101
 544 443 544 443 543 322.5 c 132,-1,102
 542 202 542 202 542 101 c 4,103,104
 541 58 541 58 541 28 c 4,105,106
 541 16 541 16 541 8 c 4,107,108
 541 2 541 2 541 0 c 5,109,-1
 425 1 l 6,110,111
 425 3 425 3 426 8 c 4,112,113
 426 17 426 17 426 29 c 4,114,115
 426 59 426 59 426 102 c 4,116,117
 427 180 427 180 427 249 c 5,118,-1
 184 221 l 5,119,-1
 184 142 l 5,120,-1
 184 45 l 5,121,-1
 184 13 l 5,122,-1
 184 4 l 5,123,-1
 184 1 l 5,124,-1
 68 1 l 5,72,-1
EndSplineSet
EndChar

StartChar: b
Encoding: 98 98 69
Width: 561
GlyphClass: 2
Flags: W
LayerCount: 2
Fore
SplineSet
184 108 m 1,0,1
 272 121 272 121 329 169 c 128,-1,2
 386 217 386 217 406 313 c 1,3,4
 402 313 402 313 347 313 c 0,5,6
 281 313 281 313 226 313 c 0,7,8
 213 313 213 313 203 313 c 128,-1,9
 193 313 193 313 186 313 c 2,10,-1
 184 313 l 1,11,-1
 184 282 l 1,12,-1
 184 234 l 1,13,-1
 184 215 l 1,14,-1
 184 206 l 1,15,-1
 184 182 l 1,16,-1
 184 108 l 1,0,1
184 644 m 2,17,18
 218 644 218 644 305 644 c 0,19,20
 381 643 381 643 445 643 c 0,21,22
 457 643 457 643 469 643 c 128,-1,23
 481 643 481 643 491 643 c 2,24,-1
 504 643 l 1,25,-1
 508 643 l 1,26,-1
 508 529 l 1,27,-1
 507 529 l 1,28,-1
 507 528 l 1,29,30
 487 458 487 458 465 424 c 1,31,-1
 466 424 l 1,32,-1
 468 424 l 2,33,34
 481 424 481 424 491 424 c 128,-1,35
 501 424 501 424 508 424 c 2,36,-1
 519 424 l 1,37,-1
 523 424 l 1,38,-1
 523 312 l 1,39,-1
 522 312 l 1,40,41
 520 272 520 272 509.5 234 c 128,-1,42
 499 196 499 196 477 158 c 128,-1,43
 455 120 455 120 424 89.5 c 128,-1,44
 393 59 393 59 345 36.5 c 128,-1,45
 297 14 297 14 238 5 c 0,46,47
 216 1 216 1 184 1 c 2,48,-1
 69 1 l 1,49,-1
 69 11 l 2,50,51
 69 254 69 254 69 282 c 2,52,-1
 69 430 l 2,53,54
 69 442 69 442 69 469.5 c 128,-1,55
 69 497 69 497 69 511.5 c 128,-1,56
 69 526 69 526 67.5 549.5 c 128,-1,57
 66 573 66 573 62.5 585.5 c 128,-1,58
 59 598 59 598 52.5 612.5 c 128,-1,59
 46 627 46 627 35.5 634 c 128,-1,60
 25 641 25 641 11 643 c 1,61,-1
 69 644 l 1,62,-1
 184 644 l 2,17,18
184 529 m 1,63,-1
 184 430 l 1,64,-1
 184 427 l 1,65,66
 186 427 186 427 187 427 c 0,67,68
 207 425 207 425 220 425 c 0,69,70
 223 425 223 425 226 425 c 0,71,72
 247 425 247 425 255 425 c 0,73,74
 303 427 303 427 338 450 c 128,-1,75
 373 473 373 473 392 529 c 1,76,77
 360 529 360 529 305 529 c 0,78,79
 231 529 231 529 184 529 c 1,63,-1
EndSplineSet
EndChar

StartChar: c
Encoding: 99 99 70
Width: 549
GlyphClass: 2
Flags: W
LayerCount: 2
Fore
SplineSet
93 644 m 1,0,-1
 98 644 l 1,1,-1
 111 644 l 2,2,3
 121 644 121 644 133 644 c 128,-1,4
 145 644 145 644 157 644 c 0,5,6
 221 644 221 644 297 644 c 2,7,-1
 437 644 l 2,8,9
 449 644 449 644 461 644 c 128,-1,10
 473 644 473 644 483 644 c 2,11,-1
 496 644 l 1,12,-1
 501 644 l 1,13,-1
 501 529 l 1,14,-1
 496 529 l 1,15,-1
 483 529 l 2,16,17
 473 529 473 529 461 529 c 128,-1,18
 449 529 449 529 437 529 c 0,19,20
 373 529 373 529 297 529 c 0,21,22
 238 529 238 529 179 529 c 1,23,-1
 179 465 l 1,24,-1
 179 441 l 1,25,-1
 179 432 l 1,26,-1
 179 428 l 1,27,-1
 179 416 l 1,28,-1
 179 379 l 2,29,30
 179 377 179 377 179 375 c 0,31,32
 182 315 182 315 190.5 276.5 c 128,-1,33
 199 238 199 238 219 203.5 c 128,-1,34
 239 169 239 169 275.5 147.5 c 128,-1,35
 312 126 312 126 370 113 c 0,36,37
 377 113 377 113 382 113 c 0,38,39
 406 113 406 113 434.5 112.5 c 128,-1,40
 463 112 463 112 488 112 c 0,41,42
 493 112 493 112 497.5 112 c 128,-1,43
 502 112 502 112 505 112 c 2,44,-1
 510 112 l 1,45,-1
 512 112 l 1,46,-1
 511 0 l 1,47,-1
 510 0 l 1,48,-1
 505 0 l 2,49,50
 501 1 501 1 497 1 c 128,-1,51
 493 1 493 1 487 1 c 2,52,-1
 434 1 l 1,53,-1
 381 1 l 2,54,55
 376 1 376 1 371.5 1 c 128,-1,56
 367 1 367 1 364 1 c 2,57,-1
 359 1 l 1,58,-1
 358 1 l 1,59,-1
 357 1 l 1,60,61
 317 6 317 6 279.5 19 c 128,-1,62
 242 32 242 32 204.5 56.5 c 128,-1,63
 167 81 167 81 138 114 c 128,-1,64
 109 147 109 147 88.5 196.5 c 128,-1,65
 68 246 68 246 63 305 c 0,66,67
 62 313 62 313 63 326 c 2,68,-1
 63 331 l 2,69,70
 63 451 63 451 63 465 c 2,71,-1
 63 538 l 2,72,73
 63 540 63 540 63 552 c 128,-1,74
 63 564 63 564 63 567 c 128,-1,75
 63 570 63 570 62 580.5 c 128,-1,76
 61 591 61 591 60 594.5 c 128,-1,77
 59 598 59 598 56.5 606.5 c 128,-1,78
 54 615 54 615 51 618.5 c 128,-1,79
 48 622 48 622 43 627.5 c 128,-1,80
 38 633 38 633 32 635.5 c 128,-1,81
 26 638 26 638 17.5 640.5 c 128,-1,82
 9 643 9 643 -1 644 c 1,83,-1
 63 644 l 1,84,-1
 93 644 l 1,0,-1
EndSplineSet
EndChar

StartChar: d
Encoding: 100 100 71
Width: 561
GlyphClass: 2
Flags: W
LayerCount: 2
Fore
SplineSet
417 310 m 0,0,1
 418 319 418 319 417 322 c 0,2,3
 417 328 417 328 417 424 c 2,4,-1
 416 529 l 1,5,6
 374 529 374 529 305 529 c 0,7,8
 231 529 231 529 184 529 c 1,9,-1
 184 430 l 1,10,-1
 184 282 l 1,11,-1
 184 234 l 1,12,-1
 184 215 l 1,13,-1
 184 206 l 1,14,-1
 184 182 l 1,15,-1
 184 108 l 1,16,-1
 184 101 l 1,17,18
 307 116 307 116 370 196 c 0,19,20
 409 246 409 246 415 293 c 0,21,22
 416 303 416 303 417 310 c 0,0,1
522 643 m 1,23,-1
 522 639 l 2,24,25
 522 635 522 635 522 629 c 0,26,27
 522 613 522 613 522 591 c 0,28,29
 522 538 522 538 522.5 475.5 c 128,-1,30
 523 413 523 413 523 361 c 0,31,32
 523 339 523 339 523 323 c 2,33,-1
 523 312 l 1,34,-1
 523 309 l 2,35,36
 523 260 523 260 506.5 212.5 c 128,-1,37
 490 165 490 165 457 121.5 c 128,-1,38
 424 78 424 78 367.5 47 c 128,-1,39
 311 16 311 16 238 5 c 0,40,41
 216 1 216 1 184 1 c 2,42,-1
 69 1 l 1,43,-1
 69 11 l 2,44,45
 69 254 69 254 69 282 c 2,46,-1
 69 430 l 2,47,48
 69 442 69 442 69 469.5 c 128,-1,49
 69 497 69 497 69 511.5 c 128,-1,50
 69 526 69 526 67.5 549.5 c 128,-1,51
 66 573 66 573 62.5 585.5 c 128,-1,52
 59 598 59 598 52.5 612.5 c 128,-1,53
 46 627 46 627 35.5 634 c 128,-1,54
 25 641 25 641 11 643 c 1,55,-1
 69 644 l 1,56,-1
 184 644 l 2,57,58
 218 644 218 644 305 644 c 0,59,60
 381 643 381 643 445 643 c 0,61,62
 457 643 457 643 469 643 c 128,-1,63
 481 643 481 643 491 643 c 2,64,-1
 504 643 l 1,65,-1
 508 643 l 2,66,67
 515 643 515 643 522 643 c 1,23,-1
EndSplineSet
EndChar

StartChar: e
Encoding: 101 101 72
Width: 496
GlyphClass: 2
Flags: W
LayerCount: 2
Fore
SplineSet
136 644 m 1,0,-1
 140 644 l 1,1,-1
 150 644 l 1,2,-1
 186 644 l 2,3,4
 213 644 213 644 241.5 644 c 128,-1,5
 270 644 270 644 295 644 c 0,6,7
 322 644 322 644 350 644 c 128,-1,8
 378 644 378 644 405 644 c 2,9,-1
 441 644 l 1,10,-1
 451 644 l 1,11,-1
 455 644 l 1,12,-1
 455 549 l 1,13,-1
 451 549 l 1,14,-1
 441 549 l 1,15,-1
 405 549 l 2,16,17
 378 549 378 549 350 549 c 128,-1,18
 322 549 322 549 295 549 c 0,19,20
 270 549 270 549 241.5 549 c 128,-1,21
 213 549 213 549 186 549 c 2,22,-1
 179 549 l 1,23,-1
 179 538 l 1,24,-1
 179 465 l 1,25,-1
 179 441 l 1,26,-1
 179 432 l 1,27,-1
 179 427 l 1,28,-1
 179 419 l 1,29,-1
 376 417 l 1,30,-1
 375 302 l 1,31,32
 280 303 280 303 186 304 c 1,33,34
 198 218 198 218 244.5 172 c 128,-1,35
 291 126 291 126 399 107 c 0,36,37
 403 107 403 107 408 107 c 0,38,39
 427 107 427 107 443 107 c 0,40,41
 447 107 447 107 449.5 107 c 128,-1,42
 452 107 452 107 454 107 c 2,43,-1
 458 107 l 1,44,-1
 459 107 l 1,45,-1
 459 1 l 1,46,-1
 457 1 l 1,47,-1
 454 1 l 2,48,49
 452 1 452 1 449 1 c 128,-1,50
 446 1 446 1 443 1 c 2,51,-1
 408 1 l 1,52,-1
 406 1 l 1,53,-1
 405 1 l 1,54,-1
 404 1 l 1,55,-1
 402 1 l 1,56,-1
 401 1 l 1,57,-1
 400 1 l 1,58,-1
 398 1 l 1,59,-1
 397 1 l 1,60,-1
 396 1 l 1,61,-1
 395 1 l 1,62,-1
 394 1 l 1,63,-1
 393 1 l 1,64,-1
 392 1 l 1,65,-1
 391 1 l 1,66,-1
 390 1 l 1,67,-1
 389 1 l 1,68,-1
 388 1 l 1,69,-1
 387 1 l 1,70,-1
 386 1 l 1,71,-1
 385 1 l 1,72,-1
 384 1 l 1,73,-1
 383 1 l 1,74,-1
 382 1 l 1,75,-1
 381 1 l 1,76,-1
 380 1 l 1,77,-1
 379 1 l 1,78,-1
 378 1 l 1,79,-1
 377 1 l 1,80,-1
 376 1 l 1,81,-1
 375 1 l 1,82,-1
 374 1 l 1,83,-1
 373 1 l 2,84,85
 370 1 370 1 367 1 c 128,-1,86
 364 1 364 1 362 1 c 2,87,-1
 359 1 l 1,88,-1
 358 1 l 1,89,90
 318 6 318 6 280.5 19 c 128,-1,91
 243 32 243 32 205.5 56.5 c 128,-1,92
 168 81 168 81 139.5 114 c 128,-1,93
 111 147 111 147 90.5 196 c 128,-1,94
 70 245 70 245 65 304 c 0,95,96
 65 307 65 307 65 310 c 0,97,98
 64 320 64 320 64 330 c 0,99,100
 64 451 64 451 64 465 c 2,101,-1
 64 538 l 2,102,103
 64 539 64 539 64 553 c 128,-1,104
 64 567 64 567 63.5 569.5 c 128,-1,105
 63 572 63 572 62 584 c 128,-1,106
 61 596 61 596 59.5 599.5 c 128,-1,107
 58 603 58 603 55 612 c 128,-1,108
 52 621 52 621 47 624.5 c 128,-1,109
 42 628 42 628 35.5 633 c 128,-1,110
 29 638 29 638 20 640.5 c 128,-1,111
 11 643 11 643 0 643 c 1,112,-1
 64 644 l 1,113,-1
 136 644 l 1,0,-1
EndSplineSet
EndChar

StartChar: f
Encoding: 102 102 73
Width: 492
GlyphClass: 2
Flags: W
LayerCount: 2
Fore
SplineSet
140 644 m 1,0,-1
 150 644 l 1,1,-1
 184 644 l 1,2,-1
 186 644 l 1,3,-1
 295 644 l 2,4,5
 322 644 322 644 350 644 c 128,-1,6
 378 644 378 644 405 644 c 2,7,-1
 441 644 l 1,8,-1
 451 644 l 1,9,-1
 455 644 l 1,10,-1
 455 549 l 1,11,-1
 451 549 l 1,12,-1
 441 549 l 1,13,-1
 405 549 l 2,14,15
 378 549 378 549 350 549 c 128,-1,16
 322 549 322 549 295 549 c 0,17,18
 270 549 270 549 241.5 549 c 128,-1,19
 213 549 213 549 186 549 c 2,20,-1
 184 549 l 1,21,-1
 184 430 l 1,22,-1
 184 419 l 1,23,24
 280 418 280 418 376 417 c 1,25,-1
 375 302 l 1,26,27
 279 303 279 303 184 304 c 1,28,-1
 184 282 l 1,29,-1
 184 234 l 1,30,-1
 184 215 l 1,31,-1
 184 206 l 1,32,-1
 184 182 l 1,33,-1
 184 108 l 2,34,35
 184 68 184 68 184 1 c 1,36,-1
 69 1 l 1,37,-1
 69 11 l 2,38,39
 69 254 69 254 69 282 c 2,40,-1
 69 430 l 2,41,42
 69 442 69 442 69 469.5 c 128,-1,43
 69 497 69 497 69 511.5 c 128,-1,44
 69 526 69 526 67.5 549.5 c 128,-1,45
 66 573 66 573 62.5 585.5 c 128,-1,46
 59 598 59 598 52.5 612.5 c 128,-1,47
 46 627 46 627 35.5 634 c 128,-1,48
 25 641 25 641 11 643 c 1,49,-1
 69 644 l 1,50,-1
 136 644 l 1,51,-1
 140 644 l 1,0,-1
EndSplineSet
EndChar

StartChar: g
Encoding: 103 103 74
Width: 561
GlyphClass: 2
Flags: W
LayerCount: 2
Fore
SplineSet
293 425 m 1,0,-1
 296 425 l 1,1,-1
 303 425 l 2,2,3
 308 425 308 425 314.5 425 c 128,-1,4
 321 425 321 425 329 425 c 0,5,6
 365 424 365 424 408 424 c 128,-1,7
 451 424 451 424 487 424 c 0,8,9
 496 424 496 424 502.5 424 c 128,-1,10
 509 424 509 424 513 424 c 2,11,-1
 521 424 l 1,12,-1
 523 424 l 1,13,-1
 523 312 l 1,14,-1
 522 312 l 1,15,16
 520 272 520 272 509.5 234 c 128,-1,17
 499 196 499 196 477 158 c 128,-1,18
 455 120 455 120 424 89.5 c 128,-1,19
 393 59 393 59 345 36.5 c 128,-1,20
 297 14 297 14 238 5 c 0,21,22
 216 1 216 1 184 1 c 2,23,-1
 69 1 l 1,24,-1
 69 11 l 2,25,26
 69 254 69 254 69 282 c 2,27,-1
 69 430 l 2,28,29
 69 442 69 442 69 469.5 c 128,-1,30
 69 497 69 497 69 511.5 c 128,-1,31
 69 526 69 526 67.5 549.5 c 128,-1,32
 66 573 66 573 62.5 585.5 c 128,-1,33
 59 598 59 598 52.5 612.5 c 128,-1,34
 46 627 46 627 35.5 634 c 128,-1,35
 25 641 25 641 11 643 c 1,36,-1
 69 644 l 1,37,-1
 184 644 l 2,38,39
 218 644 218 644 305 644 c 0,40,41
 381 643 381 643 445 643 c 0,42,43
 457 643 457 643 469 643 c 128,-1,44
 481 643 481 643 491 643 c 2,45,-1
 504 643 l 1,46,-1
 508 643 l 1,47,-1
 508 529 l 1,48,-1
 504 529 l 1,49,-1
 491 529 l 2,50,51
 480 529 480 529 468.5 529 c 128,-1,52
 457 529 457 529 445 529 c 0,53,54
 381 529 381 529 305 529 c 0,55,56
 231 529 231 529 184 529 c 1,57,-1
 184 430 l 1,58,-1
 184 282 l 1,59,-1
 184 234 l 1,60,-1
 184 215 l 1,61,-1
 184 206 l 1,62,-1
 184 182 l 1,63,-1
 184 108 l 1,64,65
 272 121 272 121 329 169 c 128,-1,66
 386 217 386 217 406 313 c 1,67,-1
 329 313 l 2,68,69
 320 313 320 313 313.5 313 c 128,-1,70
 307 313 307 313 302 313 c 2,71,-1
 295 313 l 1,72,-1
 293 313 l 1,73,-1
 293 425 l 1,0,-1
EndSplineSet
EndChar

StartChar: h
Encoding: 104 104 75
Width: 628
GlyphClass: 2
Flags: W
LayerCount: 2
Fore
SplineSet
590 645 m 1,0,-1
 590 637 l 1,1,-1
 590 617 l 2,2,3
 590 600 590 600 590 581.5 c 128,-1,4
 590 563 590 563 590 543 c 2,5,-1
 590 321 l 2,6,7
 590 277 590 277 590 186 c 128,-1,8
 590 95 590 95 590 61.5 c 128,-1,9
 590 28 590 28 590 4 c 1,10,11
 584 -13 584 -13 575 -29 c 128,-1,12
 566 -45 566 -45 555.5 -57 c 128,-1,13
 545 -69 545 -69 533.5 -80 c 128,-1,14
 522 -91 522 -91 511.5 -99 c 128,-1,15
 501 -107 501 -107 493 -112.5 c 128,-1,16
 485 -118 485 -118 480 -121 c 128,-1,17
 475 -124 475 -124 475 -123 c 0,18,19
 475 -120 475 -120 474.5 -51 c 128,-1,20
 474 18 474 18 474 25 c 0,21,22
 474 55 474 55 474 98 c 0,23,24
 475 195 475 195 475 261 c 1,25,-1
 179 293 l 1,26,27
 180 79 180 79 180 0 c 1,28,-1
 59 0 l 1,29,-1
 61 536 l 2,30,31
 62 545 62 545 61.5 554 c 128,-1,32
 61 563 61 563 61 572 c 128,-1,33
 61 581 61 581 59.5 589.5 c 128,-1,34
 58 598 58 598 56 606 c 128,-1,35
 54 614 54 614 49 620.5 c 128,-1,36
 44 627 44 627 37.5 632 c 128,-1,37
 31 637 31 637 21 640 c 128,-1,38
 11 643 11 643 -1 644 c 1,39,-1
 61 644 l 1,40,-1
 178 644 l 1,41,-1
 178 635 l 1,42,-1
 178 610 l 1,43,-1
 178 536 l 1,44,-1
 178 462 l 1,45,-1
 178 437 l 1,46,-1
 178 428 l 1,47,-1
 178 423 l 1,48,-1
 178 411 l 1,49,-1
 178 403 l 1,50,-1
 475 371 l 1,51,52
 475 480 475 480 475 544 c 0,53,54
 475 563 475 563 475 582 c 128,-1,55
 475 601 475 601 475 617 c 2,56,-1
 475 637 l 1,57,-1
 475 645 l 1,58,-1
 590 645 l 1,0,-1
EndSplineSet
EndChar

StartChar: i
Encoding: 105 105 76
Width: 217
GlyphClass: 2
Flags: W
LayerCount: 2
Fore
SplineSet
178 644 m 5,0,-1
 178 635 l 5,1,-1
 178 611 l 5,2,-1
 178 537 l 5,3,-1
 178 463 l 5,4,-1
 178 439 l 5,5,-1
 178 430 l 5,6,-1
 178 425 l 5,7,-1
 178 413 l 5,8,-1
 178 377 l 5,9,-1
 178 340 l 5,10,-1
 178 328 l 5,11,-1
 178 318 l 6,12,13
 178 311 178 311 178 302 c 4,14,15
 179 211 179 211 179 -2 c 5,16,-1
 126 45 l 5,17,-1
 62 96 l 5,18,-1
 61 323 l 5,19,-1
 61 328 l 6,20,21
 61 449 61 449 61 463 c 6,22,-1
 61 537 l 6,23,24
 62 546 62 546 61.5 555 c 132,-1,25
 61 564 61 564 61 573 c 132,-1,26
 61 582 61 582 59.5 590.5 c 132,-1,27
 58 599 58 599 56 606.5 c 132,-1,28
 54 614 54 614 49 620.5 c 132,-1,29
 44 627 44 627 37.5 632 c 132,-1,30
 31 637 31 637 21 640.5 c 132,-1,31
 11 644 11 644 -1 644 c 5,32,-1
 61 644 l 5,33,-1
 178 644 l 5,0,-1
EndSplineSet
EndChar

StartChar: j
Encoding: 106 106 77
Width: 510
GlyphClass: 2
Flags: W
LayerCount: 2
Fore
SplineSet
130 644 m 1,0,-1
 133 644 l 1,1,-1
 141 644 l 2,2,3
 148 644 148 644 156.5 644 c 128,-1,4
 165 644 165 644 173 644 c 0,5,6
 216 644 216 644 268 644 c 0,7,8
 285 644 285 644 312 644 c 2,9,-1
 419 644 l 1,10,-1
 473 644 l 1,11,12
 458 642 458 642 447 636 c 128,-1,13
 436 630 436 630 430.5 623.5 c 128,-1,14
 425 617 425 617 422.5 603 c 128,-1,15
 420 589 420 589 419.5 581.5 c 128,-1,16
 419 574 419 574 419 555 c 128,-1,17
 419 536 419 536 419 530 c 2,18,-1
 419 452 l 1,19,-1
 419 307 l 1,20,-1
 419 302 l 2,21,22
 418 254 418 254 401.5 207.5 c 128,-1,23
 385 161 385 161 352.5 119 c 128,-1,24
 320 77 320 77 263.5 46.5 c 128,-1,25
 207 16 207 16 134 5 c 0,26,27
 113 2 113 2 85 2 c 2,28,-1
 82 2 l 1,29,-1
 79 2 l 1,30,-1
 73 2 l 2,31,32
 66 2 66 2 59 2 c 128,-1,33
 52 2 52 2 44 2 c 128,-1,34
 36 2 36 2 29 2 c 128,-1,35
 22 2 22 2 16 2 c 2,36,-1
 7 2 l 1,37,-1
 3 2 l 1,38,-1
 4 101 l 1,39,-1
 7 101 l 1,40,-1
 16 101 l 2,41,42
 22 101 22 101 29.5 101 c 128,-1,43
 37 101 37 101 45 101 c 128,-1,44
 53 101 53 101 60 101 c 128,-1,45
 67 101 67 101 73 101 c 2,46,-1
 75 101 l 1,47,48
 201 114 201 114 266 196 c 0,49,50
 304 246 304 246 310 294 c 0,51,52
 311 299 311 299 312 304 c 0,53,54
 312 339 312 339 312 359 c 2,55,-1
 312 399 l 1,56,-1
 312 411 l 1,57,-1
 312 416 l 1,58,-1
 312 426 l 1,59,-1
 312 452 l 1,60,-1
 312 530 l 1,61,-1
 312 550 l 1,62,63
 308 550 308 550 268 550 c 0,64,65
 216 550 216 550 173 550 c 0,66,67
 164 550 164 550 156 550 c 128,-1,68
 148 550 148 550 141 550 c 2,69,-1
 133 550 l 1,70,-1
 129 550 l 1,71,-1
 130 644 l 1,0,-1
EndSplineSet
EndChar

StartChar: k
Encoding: 107 107 78
Width: 703
GlyphClass: 2
Flags: W
LayerCount: 2
Fore
SplineSet
178 645 m 1,0,-1
 178 635 l 1,1,-1
 178 611 l 1,2,-1
 178 537 l 1,3,-1
 178 463 l 1,4,-1
 178 438 l 1,5,-1
 178 429 l 1,6,-1
 178 424 l 1,7,-1
 178 412 l 1,8,-1
 178 389 l 1,9,10
 200 389 200 389 220 388 c 0,11,12
 223 388 223 388 224 388 c 2,13,-1
 387 647 l 1,14,-1
 507 647 l 1,15,-1
 325 345 l 1,16,17
 351 321 351 321 381 291 c 0,18,19
 396 276 396 276 415 257 c 0,20,21
 422 250 422 250 431 240 c 2,22,-1
 447 223 l 2,23,24
 491 178 491 178 527 146 c 0,25,26
 536 138 536 138 547 128 c 128,-1,27
 558 118 558 118 572.5 106 c 128,-1,28
 587 94 587 94 595 87 c 2,29,-1
 665 32 l 1,30,-1
 666 -87 l 1,31,32
 641 -76 641 -76 622 -64 c 0,33,34
 593 -45 593 -45 586 -40 c 0,35,36
 520 6 520 6 466 55 c 0,37,38
 404 110 404 110 367 149 c 0,39,40
 359 158 359 158 296 220 c 0,41,42
 252 264 252 264 240 274 c 0,43,44
 237 277 237 277 235 279 c 2,45,-1
 232 279 l 2,46,47
 228 279 228 279 227 279 c 128,-1,48
 226 279 226 279 222.5 279 c 128,-1,49
 219 279 219 279 217 279 c 2,50,-1
 216 279 l 1,51,-1
 215 279 l 1,52,-1
 213 279 l 1,53,-1
 212 279 l 1,54,-1
 210 279 l 1,55,-1
 209 280 l 1,56,-1
 208 280 l 1,57,-1
 206 280 l 1,58,-1
 205 280 l 1,59,-1
 204 280 l 1,60,-1
 202 280 l 1,61,-1
 201 280 l 1,62,-1
 200 280 l 1,63,-1
 199 280 l 1,64,-1
 198 280 l 1,65,-1
 197 280 l 1,66,-1
 195 280 l 1,67,-1
 194 280 l 1,68,-1
 193 280 l 1,69,-1
 192 280 l 1,70,-1
 191 280 l 1,71,-1
 190 280 l 1,72,-1
 188 280 l 1,73,-1
 187 280 l 1,74,-1
 186 280 l 1,75,-1
 185 280 l 1,76,-1
 184 280 l 1,77,-1
 183 280 l 1,78,-1
 182 280 l 1,79,-1
 181 280 l 1,80,-1
 179 280 l 1,81,82
 180 41 180 41 180 0 c 1,83,-1
 58 1 l 1,84,-1
 61 537 l 2,85,86
 61 546 61 546 61 555 c 128,-1,87
 61 564 61 564 60.5 573 c 128,-1,88
 60 582 60 582 59 590.5 c 128,-1,89
 58 599 58 599 55.5 607 c 128,-1,90
 53 615 53 615 48 621.5 c 128,-1,91
 43 628 43 628 36.5 633 c 128,-1,92
 30 638 30 638 20 641 c 128,-1,93
 10 644 10 644 -3 645 c 1,94,-1
 61 645 l 1,95,-1
 178 645 l 1,0,-1
EndSplineSet
EndChar

StartChar: l
Encoding: 108 108 79
Width: 414
GlyphClass: 2
Flags: W
LayerCount: 2
Fore
SplineSet
184 644 m 1,0,-1
 184 625 l 1,1,-1
 184 577 l 1,2,-1
 184 430 l 1,3,-1
 184 282 l 1,4,-1
 184 234 l 1,5,-1
 184 215 l 1,6,-1
 184 206 l 1,7,-1
 184 182 l 1,8,-1
 184 116 l 1,9,10
 204 116 204 116 245 116 c 0,11,12
 294 115 294 115 335 115 c 0,13,14
 343 115 343 115 350.5 115 c 128,-1,15
 358 115 358 115 365 115 c 2,16,-1
 373 115 l 1,17,-1
 376 115 l 1,18,-1
 376 1 l 1,19,-1
 373 1 l 1,20,-1
 365 1 l 2,21,22
 358 1 358 1 350.5 1 c 128,-1,23
 343 1 343 1 335 1 c 2,24,-1
 245 1 l 1,25,-1
 243 1 l 1,26,-1
 242 1 l 1,27,-1
 240 1 l 1,28,-1
 238 1 l 1,29,-1
 237 1 l 1,30,-1
 235 1 l 1,31,-1
 234 1 l 1,32,-1
 232 1 l 1,33,-1
 231 1 l 1,34,-1
 230 1 l 1,35,-1
 228 1 l 1,36,-1
 227 1 l 1,37,-1
 226 1 l 1,38,-1
 224 1 l 1,39,-1
 223 1 l 1,40,-1
 222 1 l 1,41,-1
 221 1 l 1,42,-1
 219 1 l 1,43,-1
 218 1 l 1,44,-1
 217 1 l 1,45,-1
 216 1 l 1,46,-1
 215 1 l 1,47,-1
 214 1 l 1,48,-1
 213 1 l 1,49,-1
 212 1 l 1,50,-1
 211 1 l 1,51,-1
 210 1 l 1,52,-1
 209 1 l 1,53,-1
 208 1 l 1,54,-1
 207 1 l 1,55,-1
 206 1 l 1,56,-1
 205 1 l 1,57,-1
 204 1 l 1,58,-1
 203 1 l 1,59,-1
 202 1 l 1,60,-1
 201 1 l 1,61,-1
 200 1 l 1,62,-1
 199 1 l 1,63,-1
 198 1 l 1,64,-1
 197 1 l 1,65,-1
 196 1 l 1,66,-1
 195 1 l 1,67,-1
 194 1 l 1,68,-1
 193 1 l 1,69,-1
 192 1 l 1,70,-1
 191 1 l 1,71,-1
 190 1 l 1,72,-1
 189 1 l 1,73,-1
 188 1 l 1,74,-1
 187 1 l 1,75,-1
 186 1 l 1,76,-1
 185 1 l 1,77,-1
 184 1 l 1,78,-1
 183 1 l 1,79,-1
 182 1 l 1,80,-1
 181 1 l 1,81,-1
 180 1 l 1,82,-1
 179 1 l 1,83,-1
 178 1 l 1,84,-1
 177 1 l 1,85,-1
 176 1 l 1,86,-1
 175 1 l 1,87,-1
 174 1 l 1,88,-1
 173 1 l 1,89,-1
 172 1 l 1,90,-1
 171 1 l 1,91,-1
 170 1 l 1,92,-1
 169 1 l 1,93,-1
 168 1 l 1,94,-1
 167 1 l 1,95,-1
 166 1 l 1,96,-1
 165 1 l 1,97,-1
 164 1 l 1,98,-1
 163 1 l 1,99,-1
 162 1 l 1,100,-1
 161 1 l 1,101,-1
 160 1 l 1,102,-1
 159 1 l 1,103,-1
 158 1 l 1,104,-1
 157 1 l 1,105,-1
 156 1 l 1,106,-1
 154 1 l 2,107,108
 147 1 147 1 139 1 c 128,-1,109
 131 1 131 1 125 1 c 2,110,-1
 116 1 l 1,111,-1
 113 1 l 1,112,-1
 69 1 l 1,113,-1
 69 11 l 2,114,115
 69 254 69 254 69 282 c 2,116,-1
 69 430 l 2,117,118
 69 442 69 442 69 469.5 c 128,-1,119
 69 497 69 497 69 511.5 c 128,-1,120
 69 526 69 526 67.5 549.5 c 128,-1,121
 66 573 66 573 62.5 585.5 c 128,-1,122
 59 598 59 598 52.5 612.5 c 128,-1,123
 46 627 46 627 35.5 634 c 128,-1,124
 25 641 25 641 11 643 c 1,125,-1
 69 644 l 1,126,-1
 184 644 l 1,0,-1
EndSplineSet
EndChar

StartChar: m
Encoding: 109 109 80
Width: 711
GlyphClass: 2
Flags: W
LayerCount: 2
Fore
SplineSet
282 217 m 1,0,-1
 282 219 l 1,1,-1
 282 226 l 2,2,3
 282 231 282 231 282.5 236 c 128,-1,4
 283 241 283 241 283 245.5 c 128,-1,5
 283 250 283 250 283 257 c 0,6,7
 279 330 279 330 266.5 375.5 c 128,-1,8
 254 421 254 421 226 452 c 0,9,10
 197 484 197 484 156 507 c 1,11,12
 155 426 155 426 154 316 c 0,13,14
 153 198 153 198 153 99 c 0,15,16
 152 58 152 58 152 28 c 0,17,18
 152 16 152 16 152 8 c 0,19,20
 152 2 152 2 152 1 c 1,21,-1
 36 2 l 2,22,23
 36 3 36 3 36 9 c 0,24,25
 37 17 37 17 37 29 c 0,26,27
 37 59 37 59 37 100 c 0,28,29
 38 198 38 198 39 317 c 2,30,-1
 41 534 l 2,31,32
 41 576 41 576 42 605 c 0,33,34
 42 617 42 617 42 625 c 2,35,-1
 42 627 l 1,36,-1
 17 702 l 1,37,38
 44 690 44 690 111.5 656.5 c 128,-1,39
 179 623 179 623 209 607 c 0,40,41
 285 567 285 567 322 525 c 0,42,43
 334 513 334 513 343 501 c 1,44,45
 353 515 353 515 367 530 c 0,46,47
 405 572 405 572 480 612 c 0,48,49
 510 628 510 628 578 661.5 c 128,-1,50
 646 695 646 695 674 707 c 1,51,-1
 648 631 l 1,52,-1
 648 629 l 2,53,54
 648 627 648 627 648 624 c 0,55,56
 648 616 648 616 648 604 c 0,57,58
 648 575 648 575 647 533 c 0,59,60
 646 434 646 434 645 316 c 128,-1,61
 644 198 644 198 644 99 c 0,62,63
 643 58 643 58 643 28 c 0,64,65
 643 16 643 16 643 8 c 0,66,67
 643 2 643 2 643 1 c 1,68,-1
 527 2 l 2,69,70
 527 3 527 3 527 9 c 0,71,72
 528 17 528 17 528 29 c 0,73,74
 528 59 528 59 528 100 c 0,75,76
 529 199 529 199 530 317 c 0,77,78
 531 438 531 438 532 511 c 1,79,80
 492 488 492 488 464 457 c 0,81,82
 436 427 436 427 423.5 384 c 128,-1,83
 411 341 411 341 407 275 c 1,84,-1
 408 275 l 1,85,-1
 408 272 l 1,86,-1
 408 265 l 2,87,88
 408 261 408 261 408 255.5 c 128,-1,89
 408 250 408 250 408 245.5 c 128,-1,90
 408 241 408 241 407.5 236 c 128,-1,91
 407 231 407 231 407 226 c 2,92,-1
 407 219 l 1,93,-1
 407 216 l 1,94,-1
 282 217 l 1,0,-1
EndSplineSet
EndChar

StartChar: n
Encoding: 110 110 81
Width: 513
GlyphClass: 2
Flags: W
LayerCount: 2
Fore
SplineSet
39 0 m 1,0,-1
 39 9 l 1,1,-1
 39 33 l 2,2,3
 39 66 39 66 39 106 c 128,-1,4
 39 146 39 146 39 179 c 0,5,6
 39 186 39 186 39 192 c 128,-1,7
 39 198 39 198 39 203 c 2,8,-1
 39 212 l 1,9,-1
 39 217 l 1,10,-1
 39 229 l 2,11,12
 39 238 39 238 39 247 c 128,-1,13
 39 256 39 256 39 265 c 128,-1,14
 39 274 39 274 39 283 c 128,-1,15
 39 292 39 292 39 301 c 2,16,-1
 39 313 l 1,17,-1
 39 323 l 2,18,19
 39 330 39 330 39 339 c 0,20,21
 38 361 38 361 39 549 c 1,22,-1
 38 549 l 1,23,-1
 100 644 l 1,24,25
 111 638 111 638 118 634 c 0,26,27
 127 629 127 629 141.5 622.5 c 128,-1,28
 156 616 156 616 167 610 c 0,29,30
 170 608 170 608 172 607 c 0,31,32
 244 576 244 576 305 541 c 0,33,34
 335 524 335 524 356 506 c 1,35,-1
 356 553 l 1,36,-1
 419 644 l 1,37,-1
 475 596 l 1,38,39
 473 540 473 540 473 508 c 0,40,41
 473 503 473 503 473 497 c 0,42,43
 473 485 473 485 473 474.5 c 128,-1,44
 473 464 473 464 473 454 c 2,45,-1
 473 440 l 1,46,-1
 473 435 l 1,47,-1
 473 428 l 2,48,49
 473 423 473 423 473 418 c 128,-1,50
 473 413 473 413 473 408 c 0,51,52
 473 395 473 395 473 380.5 c 128,-1,53
 473 366 473 366 473 349.5 c 128,-1,54
 473 333 473 333 473 318 c 128,-1,55
 473 303 473 303 473 291 c 0,56,57
 473 286 473 286 473 281 c 128,-1,58
 473 276 473 276 473 271 c 2,59,-1
 473 259 l 1,60,-1
 473 246 l 2,61,62
 473 236 473 236 473 225.5 c 128,-1,63
 473 215 473 215 473 205.5 c 128,-1,64
 473 196 473 196 473 185.5 c 128,-1,65
 473 175 473 175 473 165 c 2,66,-1
 473 152 l 1,67,-1
 473 141 l 2,68,69
 473 134 473 134 473 124 c 0,70,71
 473 101 473 101 473.5 73.5 c 128,-1,72
 474 46 474 46 474 24 c 0,73,74
 474 14 474 14 474 7 c 2,75,-1
 474 1 l 1,76,-1
 355 0 l 1,77,78
 355 129 355 129 355 258 c 1,79,-1
 354 269 l 2,80,81
 349 311 349 311 333 349 c 128,-1,82
 317 387 317 387 293 410 c 0,83,84
 255 446 255 446 182 475 c 0,85,86
 181 476 181 476 154 486 c 1,87,-1
 155 318 l 1,88,-1
 155 314 l 2,89,90
 155 193 155 193 155 179 c 0,91,92
 155 156 155 156 155 106 c 2,93,-1
 155 0 l 1,94,-1
 39 0 l 1,0,-1
EndSplineSet
EndChar

StartChar: o
Encoding: 111 111 82
Width: 635
GlyphClass: 2
Flags: W
LayerCount: 2
Fore
SplineSet
252 8 m 0,0,1
 160 28 160 28 101 107 c 0,2,3
 54 169 54 169 38 254 c 1,4,-1
 4 226 l 1,5,6
 8 260 8 260 21.5 333.5 c 128,-1,7
 35 407 35 407 41 425 c 0,8,9
 42 428 42 428 43 430 c 0,10,11
 58 492 58 492 91 539 c 0,12,13
 148 622 148 622 242 641 c 1,14,-1
 217 672 l 1,15,16
 243 666 243 666 277.5 658.5 c 128,-1,17
 312 651 312 651 331 646.5 c 128,-1,18
 350 642 350 642 367 637 c 0,19,20
 450 613 450 613 504 540 c 0,21,22
 552 475 552 475 567 386 c 1,23,-1
 598 410 l 1,24,25
 594 378 594 378 580 307 c 128,-1,26
 566 236 566 236 560 214 c 0,27,28
 544 154 544 154 513 108 c 0,29,30
 507 100 507 100 501 92 c 0,31,32
 500 92 500 92 500 91 c 0,33,34
 445 23 445 23 363 6 c 1,35,-1
 384 -17 l 1,36,37
 361 -13 361 -13 315.5 -5 c 128,-1,38
 270 3 270 3 252 8 c 0,0,1
294 540 m 0,39,40
 221 539 221 539 179 478 c 0,41,42
 136 416 136 416 138 325 c 0,43,44
 140 232 140 232 186 171 c 0,45,46
 233 109 233 109 312 109 c 0,47,48
 383 109 383 109 424 169 c 0,49,50
 467 230 467 230 465 322 c 0,51,52
 464 414 464 414 418 476 c 0,53,54
 374 535 374 535 301 540 c 0,55,56
 298 540 298 540 294 540 c 0,39,40
EndSplineSet
EndChar

StartChar: p
Encoding: 112 112 83
Width: 535
GlyphClass: 2
Flags: W
LayerCount: 2
Fore
SplineSet
241 387 m 2,0,1
 250 390 250 390 256 394 c 0,2,3
 264 400 264 400 298.5 432.5 c 128,-1,4
 333 465 333 465 342 474 c 0,5,6
 357 491 357 491 371 509 c 0,7,8
 384 525 384 525 377 548 c 1,9,10
 331 548 331 548 325 548 c 0,11,12
 260 549 260 549 206 549 c 0,13,14
 197 549 197 549 188 549 c 128,-1,15
 179 549 179 549 178 549 c 1,16,-1
 178 537 l 1,17,-1
 178 463 l 1,18,-1
 178 438 l 1,19,-1
 178 429 l 1,20,-1
 178 424 l 1,21,-1
 178 412 l 1,22,-1
 178 389 l 1,23,24
 185 388 185 388 192 388 c 0,25,26
 212 388 212 388 229 387 c 2,27,-1
 241 387 l 2,0,1
153 645 m 1,28,-1
 156 645 l 1,29,-1
 167 645 l 2,30,31
 176 645 176 645 186 645 c 128,-1,32
 196 645 196 645 206 645 c 0,33,34
 260 645 260 645 325 644 c 2,35,-1
 443 644 l 2,36,37
 454 644 454 644 464 644 c 128,-1,38
 474 644 474 644 482 644 c 2,39,-1
 493 644 l 1,40,-1
 497 644 l 1,41,-1
 497 548 l 2,42,43
 497 512 497 512 491 491 c 128,-1,44
 485 470 485 470 461 438 c 0,45,46
 441 414 441 414 412 385 c 2,47,-1
 334 317 l 2,48,49
 330 313 330 313 321.5 306.5 c 128,-1,50
 313 300 313 300 289 289 c 128,-1,51
 265 278 265 278 243 278 c 2,52,-1
 242 278 l 1,53,-1
 238 278 l 2,54,55
 233 278 233 278 226 278 c 2,56,-1
 189 279 l 1,57,-1
 188 279 l 1,58,-1
 187 279 l 1,59,-1
 186 279 l 1,60,-1
 185 279 l 1,61,-1
 183 280 l 1,62,-1
 182 280 l 1,63,-1
 181 280 l 1,64,-1
 180 280 l 1,65,-1
 179 280 l 1,66,67
 180 40 180 40 180 0 c 1,68,-1
 58 1 l 1,69,-1
 61 537 l 2,70,71
 61 546 61 546 61 555 c 128,-1,72
 61 564 61 564 60.5 573 c 128,-1,73
 60 582 60 582 59 590.5 c 128,-1,74
 58 599 58 599 55.5 607 c 128,-1,75
 53 615 53 615 48 621.5 c 128,-1,76
 43 628 43 628 36.5 633 c 128,-1,77
 30 638 30 638 20 641 c 128,-1,78
 10 644 10 644 -3 645 c 1,79,-1
 61 645 l 1,80,-1
 153 645 l 1,28,-1
EndSplineSet
EndChar

StartChar: q
Encoding: 113 113 84
Width: 656
GlyphClass: 2
Flags: W
LayerCount: 2
Fore
SplineSet
188 358 m 0,0,1
 188 357 188 357 188 351 c 128,-1,2
 188 345 188 345 188 337 c 0,3,4
 188 333 188 333 188 329.5 c 128,-1,5
 188 326 188 326 187.5 323 c 128,-1,6
 187 320 187 320 187 318.5 c 128,-1,7
 187 317 187 317 187 316 c 2,8,-1
 187 312 l 1,9,-1
 187 297 l 1,10,-1
 187 252 l 1,11,-1
 187 207 l 1,12,-1
 187 192 l 1,13,-1
 187 189 l 1,14,-1
 187 188 l 2,15,16
 187 186 187 186 188 184 c 0,17,18
 188 179 188 179 188 172 c 0,19,20
 189 156 189 156 189 137 c 0,21,22
 190 124 190 124 190 109 c 1,23,24
 288 124 288 124 340 176 c 1,25,-1
 312 204 l 1,26,-1
 282 233 l 2,27,28
 276 238 276 238 272 242 c 0,29,30
 269 245 269 245 268 246 c 2,31,-1
 345 326 l 1,32,33
 346 325 346 325 349 322 c 0,34,35
 353 318 353 318 359 313 c 2,36,-1
 360 312 l 1,37,-1
 362 310 l 1,38,-1
 363 309 l 1,39,-1
 364 308 l 1,40,-1
 365 307 l 1,41,-1
 366 306 l 1,42,-1
 367 305 l 1,43,-1
 368 304 l 1,44,-1
 369 304 l 1,45,-1
 369 303 l 1,46,-1
 370 302 l 1,47,-1
 371 301 l 1,48,-1
 372 301 l 1,49,-1
 372 300 l 1,50,-1
 373 299 l 1,51,-1
 374 299 l 1,52,-1
 374 298 l 1,53,-1
 375 297 l 1,54,-1
 376 296 l 1,55,-1
 377 296 l 1,56,-1
 377 295 l 1,57,-1
 378 294 l 1,58,-1
 379 294 l 1,59,-1
 380 293 l 1,60,-1
 381 292 l 1,61,-1
 381 291 l 1,62,-1
 382 290 l 1,63,-1
 383 290 l 1,64,-1
 384 289 l 1,65,-1
 385 288 l 1,66,-1
 386 287 l 1,67,-1
 387 286 l 1,68,-1
 388 285 l 1,69,-1
 389 284 l 2,70,71
 389 283 389 283 390 283 c 2,72,-1
 393 280 l 2,73,74
 394 279 394 279 395 278 c 2,75,-1
 396 277 l 1,76,-1
 398 298 l 2,77,78
 400 331 400 331 401 337 c 0,79,80
 401 350 401 350 401.5 366 c 128,-1,81
 402 382 402 382 402 395 c 2,82,-1
 402 405 l 1,83,-1
 402 412 l 1,84,-1
 402 425 l 2,85,86
 402 433 402 433 402 443 c 128,-1,87
 402 453 402 453 402 464 c 128,-1,88
 402 475 402 475 402.5 484.5 c 128,-1,89
 403 494 403 494 403 503 c 2,90,-1
 403 515 l 1,91,-1
 403 525 l 1,92,-1
 403 531 l 1,93,94
 354 531 354 531 319 526.5 c 128,-1,95
 284 522 284 522 261 511 c 128,-1,96
 238 500 238 500 224 487.5 c 128,-1,97
 210 475 210 475 202.5 453 c 128,-1,98
 195 431 195 431 192 410.5 c 128,-1,99
 189 390 189 390 188 358 c 0,0,1
514 643 m 1,100,-1
 514 638 l 1,101,-1
 514 624 l 1,102,-1
 514 582 l 1,103,-1
 514 539 l 1,104,-1
 514 525 l 1,105,-1
 514 520 l 1,106,-1
 514 515 l 1,107,-1
 514 502 l 2,108,109
 514 494 514 494 514 484.5 c 128,-1,110
 514 475 514 475 514 464 c 128,-1,111
 514 453 514 453 514 443 c 128,-1,112
 514 433 514 433 514 425 c 2,113,-1
 514 412 l 1,114,-1
 514 407 l 1,115,-1
 514 406 l 1,116,-1
 514 402 l 2,117,118
 514 398 514 398 514 392 c 0,119,120
 513 379 513 379 513 363 c 128,-1,121
 513 347 513 347 512 334 c 2,122,-1
 512 324 l 1,123,-1
 512 320 l 1,124,125
 507 252 507 252 483 194 c 0,126,127
 484 193 484 193 531 154 c 2,128,-1
 617 86 l 1,129,-1
 618 -33 l 1,130,131
 593 -22 593 -22 574 -10 c 0,132,133
 559 0 559 0 550 6 c 2,134,-1
 549 7 l 2,135,136
 545 10 545 10 540 13 c 0,137,138
 539 13 539 13 539 14 c 0,139,140
 482 52 482 52 425 100 c 1,141,142
 355 22 355 22 238 5 c 0,143,144
 216 1 216 1 191 1 c 2,145,-1
 186 1 l 1,146,-1
 173 1 l 1,147,-1
 134 0 l 1,148,-1
 95 0 l 1,149,-1
 82 -1 l 1,150,-1
 77 -1 l 1,151,152
 77 42 77 42 76 85 c 0,153,154
 76 86 76 86 76 88 c 128,-1,155
 76 90 76 90 76 91.5 c 128,-1,156
 76 93 76 93 76 96 c 0,157,158
 75 113 75 113 74 132 c 2,159,-1
 73 168 l 2,160,161
 73 175 73 175 73 180 c 0,162,163
 73 182 73 182 72 183 c 2,164,-1
 72 184 l 1,165,-1
 72 187 l 1,166,-1
 72 192 l 1,167,-1
 72 207 l 1,168,-1
 72 252 l 1,169,-1
 72 297 l 1,170,-1
 72 312 l 1,171,-1
 72 318 l 1,172,-1
 72 319 l 1,173,-1
 72 321 l 2,174,175
 72 323 72 323 73 326 c 0,176,177
 73 332 73 332 73 340 c 128,-1,178
 73 348 73 348 73 354 c 0,179,180
 73 359 73 359 73 361 c 0,181,182
 74 366 74 366 73.5 374.5 c 128,-1,183
 73 383 73 383 73 393 c 128,-1,184
 73 403 73 403 75 417 c 0,185,186
 80 482 80 482 103 525.5 c 128,-1,187
 126 569 126 569 169 594.5 c 128,-1,188
 212 620 212 620 267.5 631 c 128,-1,189
 323 642 323 642 403 643 c 2,190,-1
 432 643 l 1,191,-1
 514 643 l 1,100,-1
EndSplineSet
EndChar

StartChar: r
Encoding: 114 114 85
Width: 703
GlyphClass: 2
Flags: W
LayerCount: 2
Fore
SplineSet
377 548 m 1,0,1
 331 548 331 548 325 548 c 0,2,3
 260 549 260 549 206 549 c 0,4,5
 197 549 197 549 188 549 c 128,-1,6
 179 549 179 549 178 549 c 1,7,-1
 178 537 l 1,8,-1
 178 463 l 1,9,-1
 178 438 l 1,10,-1
 178 429 l 1,11,-1
 178 424 l 1,12,-1
 178 412 l 1,13,-1
 178 389 l 1,14,-1
 245 388 l 2,15,16
 252 391 252 391 256 394 c 0,17,18
 264 400 264 400 298.5 432.5 c 128,-1,19
 333 465 333 465 342 474 c 0,20,21
 357 491 357 491 371 509 c 0,22,23
 384 525 384 525 377 548 c 1,0,1
153 645 m 1,24,-1
 156 645 l 1,25,-1
 167 645 l 2,26,27
 176 645 176 645 186 645 c 128,-1,28
 196 645 196 645 206 645 c 0,29,30
 260 645 260 645 325 644 c 2,31,-1
 443 644 l 2,32,33
 454 644 454 644 464 644 c 128,-1,34
 474 644 474 644 482 644 c 2,35,-1
 493 644 l 1,36,-1
 497 644 l 1,37,-1
 497 548 l 2,38,39
 497 512 497 512 491 491 c 128,-1,40
 485 470 485 470 461 438 c 0,41,42
 441 414 441 414 412 385 c 0,43,44
 399 372 399 372 345 326 c 1,45,46
 362 310 362 310 381 291 c 0,47,48
 396 276 396 276 415 257 c 0,49,50
 422 250 422 250 431 240 c 2,51,-1
 447 223 l 2,52,53
 491 178 491 178 527 146 c 0,54,55
 536 138 536 138 547 128 c 128,-1,56
 558 118 558 118 572.5 106 c 128,-1,57
 587 94 587 94 595 87 c 2,58,-1
 665 32 l 1,59,-1
 666 -87 l 1,60,61
 641 -76 641 -76 622 -64 c 0,62,63
 593 -45 593 -45 586 -40 c 0,64,65
 520 6 520 6 466 55 c 0,66,67
 404 110 404 110 367 149 c 0,68,69
 359 158 359 158 296 220 c 0,70,71
 252 264 252 264 240 274 c 0,72,73
 237 277 237 277 235 279 c 2,74,-1
 179 280 l 1,75,76
 180 41 180 41 180 0 c 1,77,-1
 58 1 l 1,78,-1
 61 537 l 2,79,80
 61 546 61 546 61 555 c 128,-1,81
 61 564 61 564 60.5 573 c 128,-1,82
 60 582 60 582 59 590.5 c 128,-1,83
 58 599 58 599 55.5 607 c 128,-1,84
 53 615 53 615 48 621.5 c 128,-1,85
 43 628 43 628 36.5 633 c 128,-1,86
 30 638 30 638 20 641 c 128,-1,87
 10 644 10 644 -3 645 c 1,88,-1
 61 645 l 1,89,-1
 153 645 l 1,24,-1
EndSplineSet
EndChar

StartChar: s
Encoding: 115 115 86
Width: 561
GlyphClass: 2
Flags: W
LayerCount: 2
Fore
SplineSet
60 106 m 1,0,-1
 66 106 l 1,1,-1
 80 106 l 2,2,3
 91 106 91 106 103 106 c 128,-1,4
 115 106 115 106 125 106 c 0,5,6
 136 106 136 106 146.5 106 c 128,-1,7
 157 106 157 106 165 106 c 0,8,9
 262 116 262 116 323.5 164 c 128,-1,10
 385 212 385 212 406 313 c 1,11,12
 382 313 382 313 297 313 c 128,-1,13
 212 313 212 313 142 313 c 0,14,15
 126 313 126 313 113 313 c 128,-1,16
 100 313 100 313 91 313 c 2,17,-1
 77 313 l 1,18,-1
 72 313 l 1,19,-1
 72 417 l 2,20,21
 72 424 72 424 73 428 c 0,22,23
 81 483 81 483 100.5 520.5 c 128,-1,24
 120 558 120 558 148 582 c 128,-1,25
 176 606 176 606 220 619.5 c 128,-1,26
 264 633 264 633 313.5 637.5 c 128,-1,27
 363 642 363 642 434 642 c 1,28,-1
 433 530 l 1,29,30
 349 533 349 533 297.5 521 c 128,-1,31
 246 509 246 509 222.5 486 c 128,-1,32
 199 463 199 463 189 425 c 1,33,34
 202 424 202 424 238 424 c 0,35,36
 256 424 256 424 298 424 c 0,37,38
 382 424 382 424 453 424 c 0,39,40
 469 424 469 424 481.5 424 c 128,-1,41
 494 424 494 424 504 424 c 2,42,-1
 518 424 l 1,43,-1
 523 424 l 1,44,-1
 522 312 l 2,45,46
 520 272 520 272 509.5 234 c 128,-1,47
 499 196 499 196 477 158 c 128,-1,48
 455 120 455 120 424 89.5 c 128,-1,49
 393 59 393 59 345 36.5 c 128,-1,50
 297 14 297 14 238 5 c 0,51,52
 218 2 218 2 190 1 c 2,53,-1
 184 1 l 1,54,-1
 170 1 l 2,55,56
 159 1 159 1 147 1 c 128,-1,57
 135 1 135 1 125 1 c 128,-1,58
 115 1 115 1 103 1 c 128,-1,59
 91 1 91 1 80 1 c 2,60,-1
 66 1 l 1,61,-1
 60 1 l 1,62,-1
 60 106 l 1,0,-1
EndSplineSet
EndChar

StartChar: t
Encoding: 116 116 87
Width: 677
GlyphClass: 2
Flags: W
LayerCount: 2
Fore
SplineSet
61 644 m 1,0,-1
 68 644 l 1,1,-1
 86 644 l 1,2,-1
 152 644 l 2,3,4
 201 644 201 644 252.5 644 c 128,-1,5
 304 644 304 644 350 644 c 0,6,7
 398 644 398 644 449 644 c 128,-1,8
 500 644 500 644 549 644 c 2,9,-1
 615 644 l 1,10,-1
 633 644 l 1,11,-1
 640 644 l 1,12,-1
 640 537 l 1,13,-1
 633 537 l 1,14,-1
 615 537 l 1,15,-1
 549 537 l 2,16,17
 523 537 523 537 408 537 c 1,18,19
 408 505 408 505 408 488 c 0,20,21
 409 397 409 397 409 289 c 128,-1,22
 409 181 409 181 409 91 c 0,23,24
 409 52 409 52 410 25 c 0,25,26
 410 21 410 21 410 17.5 c 128,-1,27
 410 14 410 14 410 12 c 128,-1,28
 410 10 410 10 410 7 c 2,29,-1
 410 1 l 1,30,-1
 294 0 l 1,31,-1
 294 7 l 2,32,33
 294 10 294 10 294 12 c 128,-1,34
 294 14 294 14 294 17.5 c 128,-1,35
 294 21 294 21 294 25 c 0,36,37
 293 52 293 52 293 90 c 0,38,39
 293 181 293 181 293 289 c 128,-1,40
 293 397 293 397 292 487 c 0,41,42
 292 534 292 534 292 537 c 1,43,44
 182 537 182 537 152 537 c 2,45,-1
 86 537 l 1,46,-1
 68 537 l 1,47,-1
 61 537 l 1,48,-1
 61 644 l 1,0,-1
EndSplineSet
EndChar

StartChar: u
Encoding: 117 117 88
Width: 562
GlyphClass: 2
Flags: W
LayerCount: 2
Fore
SplineSet
522 643 m 1,0,-1
 522 636 l 2,1,2
 522 628 522 628 522 616 c 0,3,4
 522 587 522 587 522 546 c 0,5,6
 522 449 522 449 523 333 c 0,7,8
 523 317 523 317 523 310 c 2,9,-1
 523 309 l 2,10,11
 523 300 523 300 523 292 c 0,12,13
 523 252 523 252 523 206 c 128,-1,14
 523 160 523 160 523 120 c 0,15,16
 523 79 523 79 524 1 c 1,17,-1
 417 -2 l 1,18,-1
 417 49 l 2,19,20
 417 50 417 50 417 56 c 0,21,22
 417 61 417 61 417 81 c 1,23,24
 346 21 346 21 238 5 c 0,25,26
 216 1 216 1 184 1 c 2,27,-1
 69 1 l 1,28,-1
 69 11 l 2,29,30
 69 254 69 254 69 282 c 2,31,-1
 69 430 l 2,32,33
 69 442 69 442 69 469.5 c 128,-1,34
 69 497 69 497 69 511.5 c 128,-1,35
 69 526 69 526 67.5 549.5 c 128,-1,36
 66 573 66 573 62.5 585.5 c 128,-1,37
 59 598 59 598 52.5 612.5 c 128,-1,38
 46 627 46 627 35.5 634 c 128,-1,39
 25 641 25 641 11 643 c 1,40,-1
 69 644 l 1,41,-1
 184 644 l 1,42,-1
 184 625 l 1,43,-1
 184 577 l 1,44,-1
 184 430 l 1,45,-1
 184 282 l 1,46,-1
 184 234 l 1,47,-1
 184 215 l 1,48,-1
 184 206 l 1,49,-1
 184 182 l 1,50,-1
 184 108 l 1,51,-1
 184 101 l 1,52,53
 307 116 307 116 370 196 c 0,54,55
 409 246 409 246 415 293 c 0,56,57
 416 301 416 301 417 307 c 0,58,59
 416 613 416 613 416 615 c 2,60,-1
 416 635 l 1,61,-1
 416 642 l 1,62,-1
 522 643 l 1,0,-1
EndSplineSet
EndChar

StartChar: v
Encoding: 118 118 89
Width: 561
GlyphClass: 2
Flags: W
LayerCount: 2
Fore
SplineSet
522 643 m 1,0,-1
 522 639 l 2,1,2
 522 635 522 635 522 629 c 0,3,4
 522 613 522 613 522 591 c 0,5,6
 522 538 522 538 522.5 475.5 c 128,-1,7
 523 413 523 413 523 361 c 0,8,9
 523 339 523 339 523 323 c 2,10,-1
 523 312 l 1,11,-1
 523 309 l 2,12,13
 523 260 523 260 506.5 212.5 c 128,-1,14
 490 165 490 165 457 121.5 c 128,-1,15
 424 78 424 78 367.5 47 c 128,-1,16
 311 16 311 16 238 5 c 0,17,18
 216 1 216 1 184 1 c 2,19,-1
 69 1 l 1,20,-1
 69 11 l 2,21,22
 69 254 69 254 69 282 c 2,23,-1
 69 430 l 2,24,25
 69 442 69 442 69 469.5 c 128,-1,26
 69 497 69 497 69 511.5 c 128,-1,27
 69 526 69 526 67.5 549.5 c 128,-1,28
 66 573 66 573 62.5 585.5 c 128,-1,29
 59 598 59 598 52.5 612.5 c 128,-1,30
 46 627 46 627 35.5 634 c 128,-1,31
 25 641 25 641 11 643 c 1,32,-1
 69 644 l 1,33,-1
 184 644 l 1,34,-1
 184 625 l 1,35,-1
 184 577 l 1,36,-1
 184 430 l 1,37,-1
 184 282 l 1,38,-1
 184 234 l 1,39,-1
 184 215 l 1,40,-1
 184 206 l 1,41,-1
 184 182 l 1,42,-1
 184 108 l 1,43,-1
 184 101 l 1,44,45
 307 116 307 116 370 196 c 0,46,47
 409 246 409 246 415 293 c 0,48,49
 416 303 416 303 417 310 c 0,50,51
 418 319 418 319 417 322 c 0,52,53
 417 330 417 330 416.5 475 c 128,-1,54
 416 620 416 620 416 628 c 2,55,-1
 416 639 l 1,56,-1
 416 642 l 1,57,-1
 522 643 l 1,0,-1
EndSplineSet
EndChar

StartChar: w
Encoding: 119 119 90
Width: 819
GlyphClass: 2
Flags: W
LayerCount: 2
Fore
SplineSet
152 645 m 1,0,-1
 156 384 l 2,1,2
 160 341 160 341 176.5 303 c 128,-1,3
 193 265 193 265 217 242 c 0,4,5
 255 205 255 205 328 176 c 0,6,7
 331 175 331 175 341 170 c 1,8,9
 341 180 341 180 341 187 c 0,10,11
 341 191 341 191 341 194.5 c 128,-1,12
 341 198 341 198 341 201 c 2,13,-1
 341 207 l 2,14,15
 341 208 341 208 342 214 c 0,16,17
 342 223 342 223 342 234 c 0,18,19
 342 261 342 261 342 293.5 c 128,-1,20
 342 326 342 326 343 353 c 0,21,22
 343 364 343 364 343 372 c 2,23,-1
 343 384 l 1,24,-1
 343 398 l 2,25,26
 343 407 343 407 343 417 c 128,-1,27
 343 427 343 427 343 438 c 0,28,29
 343 461 343 461 343 479 c 2,30,-1
 343 492 l 1,31,-1
 343 503 l 2,32,33
 343 507 343 507 343 511 c 128,-1,34
 343 515 343 515 343 520 c 0,35,36
 343 531 343 531 343 544 c 128,-1,37
 343 557 343 557 343 571 c 128,-1,38
 343 585 343 585 343 598 c 128,-1,39
 343 611 343 611 343 622 c 2,40,-1
 343 639 l 1,41,-1
 343 645 l 1,42,-1
 463 645 l 1,43,-1
 461 385 l 1,44,-1
 463 374 l 2,45,46
 467 331 467 331 483.5 293 c 128,-1,47
 500 255 500 255 524 232 c 0,48,49
 562 195 562 195 635 165 c 0,50,51
 636 165 636 165 663 154 c 1,52,53
 663 239 663 239 663 323 c 2,54,-1
 663 328 l 2,55,56
 664 449 664 449 664 464 c 2,57,-1
 664 537 l 1,58,-1
 665 644 l 1,59,-1
 781 644 l 1,60,61
 781 642 781 642 781 635 c 0,62,63
 781 625 781 625 781 610 c 0,64,65
 781 577 781 577 781 537 c 128,-1,66
 781 497 781 497 781 463 c 0,67,68
 781 449 781 449 781 439 c 2,69,-1
 780 430 l 1,70,-1
 780 425 l 2,71,72
 780 420 780 420 780 413 c 0,73,74
 780 396 780 396 780 376 c 0,75,76
 780 366 780 366 780 357 c 128,-1,77
 780 348 780 348 780 340 c 2,78,-1
 780 327 l 1,79,-1
 780 317 l 2,80,81
 780 314 780 314 780 310 c 128,-1,82
 780 306 780 306 780 301 c 0,83,84
 780 279 780 279 779 90 c 1,85,-1
 780 89 l 1,86,-1
 717 -5 l 1,87,88
 706 0 706 0 698 4 c 0,89,90
 690 9 690 9 675.5 16 c 128,-1,91
 661 23 661 23 649 29 c 0,92,93
 647 31 647 31 644 32 c 0,94,95
 572 64 572 64 510 99 c 0,96,97
 480 116 480 116 460 134 c 1,98,99
 459 111 459 111 459 87 c 1,100,-1
 460 87 l 1,101,-1
 432 49 l 2,102,103
 430 45 430 45 427 41 c 2,104,-1
 395 -4 l 1,105,-1
 270 74 l 1,106,107
 223 98 223 98 203 109 c 0,108,109
 160 134 160 134 132 165 c 0,110,111
 94 207 94 207 67 272.5 c 128,-1,112
 40 338 40 338 37 411 c 0,113,114
 37 416 37 416 37 420 c 0,115,116
 36 425 36 425 36 429 c 2,117,-1
 36 436 l 1,118,-1
 36 438 l 1,119,-1
 36 442 l 2,120,121
 36 446 36 446 36 451 c 0,122,123
 36 464 36 464 36.5 479 c 128,-1,124
 37 494 37 494 37 507 c 2,125,-1
 37 516 l 1,126,-1
 37 522 l 1,127,-1
 37 529 l 2,128,129
 37 533 37 533 37 537.5 c 128,-1,130
 37 542 37 542 37 548 c 2,131,-1
 37 567 l 1,132,-1
 37 573 l 1,133,-1
 37 579 l 1,134,-1
 37 586 l 2,135,136
 37 592 37 592 37 598 c 128,-1,137
 37 604 37 604 37 610.5 c 128,-1,138
 37 617 37 617 37 623 c 128,-1,139
 37 629 37 629 37 635 c 2,140,-1
 36 642 l 1,141,-1
 36 645 l 1,142,-1
 152 645 l 1,0,-1
EndSplineSet
EndChar

StartChar: x
Encoding: 120 120 91
Width: 655
GlyphClass: 2
Flags: W
LayerCount: 2
Fore
SplineSet
130 644 m 1,0,-1
 134 644 l 1,1,-1
 147 644 l 2,2,3
 157 644 157 644 168.5 644 c 128,-1,4
 180 644 180 644 192 644 c 0,5,6
 222 644 222 644 256.5 644 c 128,-1,7
 291 644 291 644 330 644 c 128,-1,8
 369 644 369 644 403.5 644 c 128,-1,9
 438 644 438 644 468 644 c 0,10,11
 479 644 479 644 491 644 c 128,-1,12
 503 644 503 644 513 644 c 2,13,-1
 526 644 l 1,14,-1
 530 644 l 1,15,-1
 530 643 l 1,16,17
 571 644 571 644 612 644 c 1,18,-1
 413 348 l 1,19,-1
 350 431 l 1,20,-1
 429 544 l 1,21,-1
 428 544 l 1,22,-1
 427 544 l 1,23,-1
 426 544 l 1,24,-1
 425 544 l 1,25,-1
 424 544 l 1,26,-1
 422 544 l 1,27,-1
 421 544 l 1,28,-1
 420 544 l 1,29,-1
 419 544 l 1,30,-1
 418 544 l 1,31,-1
 417 544 l 1,32,-1
 416 544 l 1,33,-1
 415 544 l 1,34,-1
 414 544 l 1,35,-1
 413 544 l 1,36,-1
 412 544 l 1,37,-1
 411 544 l 1,38,-1
 410 544 l 1,39,-1
 409 544 l 1,40,-1
 408 544 l 1,41,-1
 407 544 l 1,42,-1
 406 544 l 1,43,-1
 405 544 l 1,44,-1
 404 544 l 1,45,-1
 403 544 l 1,46,-1
 402 544 l 1,47,-1
 401 544 l 1,48,-1
 400 544 l 1,49,-1
 399 544 l 1,50,-1
 398 544 l 1,51,-1
 397 544 l 1,52,-1
 396 544 l 1,53,-1
 395 544 l 1,54,-1
 394 544 l 1,55,-1
 393 544 l 1,56,-1
 392 544 l 1,57,-1
 391 544 l 1,58,-1
 390 544 l 1,59,-1
 389 544 l 1,60,-1
 388 544 l 1,61,-1
 387 544 l 1,62,-1
 386 544 l 1,63,-1
 385 544 l 1,64,-1
 384 544 l 1,65,-1
 383 544 l 1,66,-1
 382 544 l 1,67,-1
 381 544 l 1,68,-1
 380 544 l 1,69,-1
 379 544 l 1,70,-1
 378 544 l 1,71,-1
 377 544 l 1,72,-1
 376 544 l 1,73,-1
 375 544 l 1,74,-1
 374 544 l 1,75,-1
 373 544 l 1,76,-1
 372 544 l 1,77,-1
 371 544 l 1,78,-1
 370 544 l 1,79,-1
 369 544 l 1,80,-1
 368 544 l 1,81,-1
 367 544 l 1,82,-1
 366 544 l 1,83,-1
 365 544 l 1,84,-1
 364 544 l 1,85,-1
 363 544 l 1,86,-1
 362 544 l 1,87,-1
 361 544 l 1,88,-1
 360 544 l 1,89,-1
 359 544 l 1,90,-1
 358 544 l 1,91,-1
 357 544 l 1,92,-1
 356 544 l 1,93,-1
 355 544 l 1,94,-1
 354 544 l 1,95,-1
 353 544 l 1,96,-1
 352 544 l 1,97,-1
 351 544 l 1,98,-1
 350 544 l 1,99,-1
 349 544 l 1,100,-1
 348 544 l 1,101,-1
 347 544 l 1,102,-1
 346 544 l 1,103,-1
 345 544 l 1,104,-1
 344 544 l 1,105,-1
 343 544 l 1,106,-1
 342 544 l 1,107,-1
 341 544 l 1,108,-1
 340 544 l 1,109,-1
 339 544 l 1,110,-1
 338 544 l 1,111,-1
 337 544 l 1,112,-1
 336 544 l 1,113,-1
 335 544 l 1,114,-1
 334 544 l 1,115,-1
 333 544 l 1,116,-1
 332 544 l 1,117,-1
 331 544 l 1,118,-1
 330 544 l 2,119,120
 242 544 242 544 223 544 c 1,121,-1
 617 0 l 1,122,-1
 538 0 l 1,123,-1
 538 -1 l 1,124,-1
 534 -1 l 1,125,-1
 520 -1 l 1,126,-1
 471 -1 l 2,127,128
 439 -1 439 -1 402.5 -0.5 c 128,-1,129
 366 0 366 0 324 0 c 128,-1,130
 282 0 282 0 245 0 c 128,-1,131
 208 0 208 0 176 0 c 2,132,-1
 127 0 l 1,133,-1
 114 0 l 1,134,-1
 109 0 l 1,135,-1
 38 0 l 1,136,-1
 238 295 l 1,137,-1
 300 212 l 1,138,-1
 221 99 l 1,139,140
 300 99 300 99 324 99 c 0,141,142
 352 99 352 99 371 99 c 128,-1,143
 390 99 390 99 407 99 c 128,-1,144
 424 99 424 99 436 99 c 1,145,-1
 45 644 l 1,146,-1
 130 644 l 1,0,-1
EndSplineSet
EndChar

StartChar: y
Encoding: 121 121 92
Width: 717
GlyphClass: 2
Flags: W
LayerCount: 2
Fore
SplineSet
532 646 m 1,0,-1
 680 645 l 1,1,-1
 99 -120 l 1,2,-1
 -56 -120 l 1,3,-1
 273 309 l 1,4,-1
 8 645 l 1,5,-1
 162 645 l 1,6,-1
 353 413 l 1,7,-1
 532 646 l 1,0,-1
EndSplineSet
EndChar

StartChar: z
Encoding: 122 122 93
Width: 652
GlyphClass: 2
Flags: W
LayerCount: 2
Fore
SplineSet
482 644 m 1,0,-1
 599 644 l 1,1,-1
 530 544 l 1,2,-1
 224 99 l 1,3,4
 237 99 237 99 269.5 99 c 128,-1,5
 302 99 302 99 339 99 c 0,6,7
 363 99 363 99 433 99 c 1,8,-1
 364 198 l 1,9,-1
 418 277 l 1,10,-1
 615 1 l 1,11,-1
 538 0 l 1,12,-1
 538 -1 l 1,13,-1
 534 -1 l 1,14,-1
 521 -1 l 1,15,-1
 520 -1 l 1,16,-1
 514 -1 l 1,17,-1
 503 -1 l 1,18,-1
 476 -1 l 1,19,-1
 471 -1 l 2,20,21
 439 -1 439 -1 402.5 -0.5 c 128,-1,22
 366 0 366 0 324 0 c 128,-1,23
 282 0 282 0 245 0 c 128,-1,24
 208 0 208 0 176 0 c 2,25,-1
 156 0 l 1,26,-1
 143 0 l 1,27,-1
 139 0 l 1,28,-1
 127 0 l 1,29,-1
 114 0 l 1,30,-1
 109 0 l 1,31,-1
 109 1 l 1,32,-1
 33 0 l 1,33,-1
 412 544 l 1,34,-1
 411 544 l 1,35,-1
 410 544 l 1,36,-1
 409 544 l 1,37,-1
 408 544 l 1,38,-1
 407 544 l 1,39,-1
 406 544 l 1,40,-1
 405 544 l 1,41,-1
 404 544 l 1,42,-1
 403 544 l 1,43,-1
 402 544 l 1,44,-1
 401 544 l 1,45,-1
 400 544 l 1,46,-1
 399 544 l 1,47,-1
 398 544 l 1,48,-1
 397 544 l 1,49,-1
 396 544 l 1,50,-1
 395 544 l 1,51,-1
 394 544 l 1,52,-1
 393 544 l 1,53,-1
 392 544 l 1,54,-1
 391 544 l 1,55,-1
 390 544 l 1,56,-1
 389 544 l 1,57,-1
 388 544 l 1,58,-1
 387 544 l 1,59,-1
 386 544 l 1,60,-1
 385 544 l 1,61,-1
 384 544 l 1,62,-1
 383 544 l 1,63,-1
 382 544 l 1,64,-1
 381 544 l 1,65,-1
 380 544 l 1,66,-1
 379 544 l 1,67,-1
 378 544 l 1,68,-1
 376 544 l 1,69,-1
 375 544 l 1,70,-1
 374 544 l 1,71,-1
 373 544 l 1,72,-1
 372 544 l 1,73,-1
 371 544 l 1,74,-1
 370 544 l 1,75,-1
 369 544 l 1,76,-1
 368 544 l 1,77,-1
 367 544 l 1,78,-1
 366 544 l 1,79,-1
 365 544 l 1,80,-1
 364 544 l 1,81,-1
 363 544 l 1,82,-1
 362 544 l 1,83,-1
 361 544 l 1,84,-1
 360 544 l 1,85,-1
 359 544 l 1,86,-1
 358 544 l 1,87,-1
 357 544 l 1,88,-1
 356 544 l 1,89,-1
 355 544 l 1,90,-1
 354 544 l 1,91,-1
 353 544 l 1,92,-1
 352 544 l 1,93,-1
 351 544 l 1,94,-1
 350 544 l 1,95,-1
 349 544 l 1,96,-1
 348 544 l 1,97,-1
 347 544 l 1,98,-1
 346 544 l 1,99,-1
 345 544 l 1,100,-1
 344 544 l 1,101,-1
 343 544 l 1,102,-1
 342 544 l 1,103,-1
 341 544 l 1,104,-1
 340 544 l 1,105,-1
 339 544 l 1,106,-1
 338 544 l 1,107,-1
 337 544 l 1,108,-1
 336 544 l 1,109,-1
 335 544 l 1,110,-1
 334 544 l 1,111,-1
 333 544 l 1,112,-1
 332 544 l 1,113,-1
 331 544 l 1,114,-1
 330 544 l 2,115,116
 231 544 231 544 225 544 c 1,117,-1
 288 452 l 1,118,-1
 238 374 l 1,119,-1
 47 645 l 1,120,-1
 156 645 l 1,121,-1
 156 644 l 1,122,123
 162 644 162 644 172 644 c 128,-1,124
 182 644 182 644 192 644 c 0,125,126
 255 644 255 644 330 644 c 128,-1,127
 405 644 405 644 468 644 c 0,128,129
 475 644 475 644 481 644 c 2,130,-1
 482 644 l 1,0,-1
EndSplineSet
EndChar

StartChar: braceleft
Encoding: 123 123 94
Width: 828
GlyphClass: 2
Flags: W
LayerCount: 2
Fore
SplineSet
209 295 m 1,0,-1
 453 296 l 1,1,-1
 506 202 l 1,2,3
 390 203 390 203 275 203 c 1,4,-1
 222 104 l 1,5,6
 420 103 420 103 618 102 c 1,7,-1
 413 477 l 1,8,-1
 338 341 l 1,9,-1
 235 344 l 1,10,-1
 359 577 l 1,11,-1
 397 647 l 1,12,-1
 409 671 l 2,13,14
 412 677 412 677 416 683 c 1,15,-1
 790 1 l 1,16,-1
 721 1 l 1,17,-1
 721 0 l 1,18,-1
 681 0 l 2,19,20
 678 0 678 0 674 0 c 2,21,-1
 166 1 l 1,22,-1
 166 0 l 1,23,-1
 51 0 l 1,24,-1
 165 210 l 1,25,-1
 209 295 l 1,0,-1
EndSplineSet
EndChar

StartChar: bar
Encoding: 124 124 95
Width: 214
GlyphClass: 2
Flags: W
LayerCount: 2
Fore
SplineSet
175 762 m 1,0,-1
 175 759 l 1,1,-1
 175 751 l 2,2,3
 175 744 175 744 175 736.5 c 128,-1,4
 175 729 175 729 175 720 c 0,5,6
 175 674 175 674 175 610 c 0,7,8
 175 457 175 457 175.5 274 c 128,-1,9
 176 91 176 91 176 -61 c 0,10,11
 176 -126 176 -126 176 -172 c 0,12,13
 176 -180 176 -180 176 -188 c 128,-1,14
 176 -196 176 -196 176 -203 c 2,15,-1
 176 -211 l 1,16,-1
 176 -214 l 1,17,-1
 90 -214 l 1,18,-1
 90 -211 l 1,19,-1
 90 -203 l 2,20,21
 90 -196 90 -196 90 -188 c 128,-1,22
 90 -180 90 -180 90 -172 c 0,23,24
 90 -126 90 -126 90 -61 c 0,25,26
 90 91 90 91 89.5 274 c 128,-1,27
 89 457 89 457 89 609 c 0,28,29
 89 674 89 674 89 720 c 0,30,31
 89 728 89 728 89 736 c 128,-1,32
 89 744 89 744 89 751 c 2,33,-1
 89 759 l 1,34,-1
 89 762 l 1,35,-1
 175 762 l 1,0,-1
EndSplineSet
EndChar

StartChar: braceright
Encoding: 125 125 96
Width: 840
GlyphClass: 2
Flags: W
LayerCount: 2
Fore
SplineSet
642 389 m 1,0,-1
 397 390 l 1,1,-1
 344 484 l 1,2,3
 460 483 460 483 576 482 c 1,4,-1
 630 581 l 1,5,-1
 231 585 l 1,6,-1
 436 207 l 1,7,-1
 512 343 l 1,8,-1
 616 340 l 1,9,-1
 490 107 l 1,10,-1
 452 36 l 1,11,-1
 439 12 l 2,12,13
 436 6 436 6 433 0 c 1,14,-1
 59 687 l 1,15,16
 94 687 94 687 129 687 c 1,17,-1
 129 688 l 1,18,19
 148 688 148 688 168 687 c 0,20,21
 172 687 172 687 176 687 c 2,22,-1
 686 685 l 1,23,-1
 686 686 l 1,24,-1
 802 686 l 1,25,-1
 687 475 l 1,26,-1
 642 389 l 1,0,-1
EndSplineSet
EndChar

StartChar: asciitilde
Encoding: 126 126 97
Width: 503
GlyphClass: 2
Flags: W
LayerCount: 2
Fore
SplineSet
466 438 m 1,0,-1
 466 435 l 2,1,2
 466 432 466 432 466 427 c 0,3,4
 465 415 465 415 465 401 c 128,-1,5
 465 387 465 387 465 376 c 0,6,7
 464 374 464 374 464 372 c 0,8,9
 465 371 465 371 465 370 c 0,10,11
 464 352 464 352 462 340 c 0,12,13
 455 301 455 301 437 271.5 c 128,-1,14
 419 242 419 242 394 225.5 c 128,-1,15
 369 209 369 209 343 200.5 c 128,-1,16
 317 192 317 192 288 191 c 1,17,18
 288 192 288 192 287 192 c 0,19,20
 258 192 258 192 229 191 c 1,21,-1
 229 194 l 2,22,23
 229 197 229 197 229 202 c 0,24,25
 229 213 229 213 228 229 c 0,26,27
 227 267 227 267 227 312 c 0,28,29
 226 359 226 359 225 375 c 1,30,31
 197 373 197 373 179 367.5 c 128,-1,32
 161 362 161 362 146.5 348 c 128,-1,33
 132 334 132 334 125.5 308 c 128,-1,34
 119 282 119 282 119 242 c 1,35,-1
 43 243 l 1,36,37
 44 291 44 291 50.5 321.5 c 128,-1,38
 57 352 57 352 73 377.5 c 128,-1,39
 89 403 89 403 118.5 416 c 128,-1,40
 148 429 148 429 195 434 c 0,41,42
 204 435 204 435 224 433 c 1,43,-1
 224 434 l 1,44,-1
 280 435 l 1,45,-1
 284 432 l 2,46,47
 284 429 284 429 284 424 c 0,48,49
 285 413 285 413 285 397 c 0,50,51
 286 359 286 359 287 313 c 0,52,53
 287 295 287 295 288 253 c 1,54,55
 347 264 347 264 375 299 c 128,-1,56
 403 334 403 334 408 390 c 0,57,58
 408 396 408 396 409 403 c 0,59,60
 409 410 409 410 409 416 c 128,-1,61
 409 422 409 422 409 428 c 0,62,63
 409 433 409 433 409 436 c 128,-1,64
 409 439 409 439 409 440 c 1,65,-1
 466 438 l 1,0,-1
EndSplineSet
EndChar

StartChar: quoteleft
Encoding: 8216 8216 98
Width: 172
GlyphClass: 2
Flags: W
LayerCount: 2
Fore
SplineSet
133 640 m 1,0,1
 68 585 68 585 82 521 c 1,2,3
 101 520 101 520 112 505 c 0,4,5
 122 492 122 492 119.5 476 c 128,-1,6
 117 460 117 460 104 450.5 c 128,-1,7
 91 441 91 441 75 443.5 c 128,-1,8
 59 446 59 446 50 459 c 0,9,10
 45 464 45 464 43 471 c 0,11,12
 12 538 12 538 64 601 c 0,13,14
 86 626 86 626 126 641 c 0,15,16
 135 644 135 644 135 642 c 2,17,-1
 133 640 l 1,0,1
EndSplineSet
EndChar

StartChar: quoteright
Encoding: 8217 8217 99
Width: 237
GlyphClass: 2
Flags: W
LayerCount: 2
Fore
SplineSet
97 447 m 0,0,1
 162 502 162 502 148 566 c 1,2,3
 129 567 129 567 118 582 c 0,4,5
 108 596 108 596 110.5 612 c 128,-1,6
 113 628 113 628 126 637.5 c 128,-1,7
 139 647 139 647 155 644.5 c 128,-1,8
 171 642 171 642 181 628 c 0,9,10
 184 624 184 624 186 619 c 0,11,12
 219 550 219 550 165 486 c 0,13,14
 144 461 144 461 104 446 c 0,15,16
 95 443 95 443 95 445 c 0,17,18
 95 446 95 446 97 447 c 0,0,1
EndSplineSet
EndChar

StartChar: quotedblleft
Encoding: 8220 8220 100
Width: 368
GlyphClass: 2
Flags: W
LayerCount: 2
Fore
SplineSet
133 640 m 1,0,1
 68 585 68 585 82 521 c 1,2,3
 101 520 101 520 112 505 c 0,4,5
 122 492 122 492 119.5 476 c 128,-1,6
 117 460 117 460 104 450.5 c 128,-1,7
 91 441 91 441 75 443.5 c 128,-1,8
 59 446 59 446 50 459 c 0,9,10
 45 464 45 464 43 471 c 0,11,12
 12 538 12 538 64 601 c 0,13,14
 86 626 86 626 126 641 c 0,15,16
 135 644 135 644 135 642 c 2,17,-1
 133 640 l 1,0,1
329 640 m 0,18,19
 264 585 264 585 278 521 c 1,20,21
 298 520 298 520 309 505 c 0,22,23
 319 492 319 492 316.5 476 c 128,-1,24
 314 460 314 460 301 450.5 c 128,-1,25
 288 441 288 441 272 443 c 128,-1,26
 256 445 256 445 246 458 c 0,27,28
 243 463 243 463 241 468 c 0,29,30
 207 537 207 537 260 601 c 0,31,32
 282 626 282 626 322 641 c 0,33,34
 331 644 331 644 331 643 c 128,-1,35
 331 642 331 642 329 640 c 0,18,19
EndSplineSet
EndChar

StartChar: quotedblright
Encoding: 8221 8221 101
Width: 425
GlyphClass: 2
Flags: W
LayerCount: 2
Fore
SplineSet
287 449 m 0,0,1
 351 505 351 505 337 569 c 1,2,3
 318 569 318 569 307 584 c 0,4,5
 297 597 297 597 299 613 c 128,-1,6
 301 629 301 629 314 639 c 128,-1,7
 327 649 327 649 343 646.5 c 128,-1,8
 359 644 359 644 369 631 c 0,9,10
 373 626 373 626 375 619 c 0,11,12
 407 553 407 553 355 489 c 0,13,14
 334 463 334 463 294 448 c 0,15,16
 286 445 286 445 286 447 c 0,17,18
 285 448 285 448 287 449 c 0,0,1
93 447 m 0,19,20
 157 502 157 502 143 566 c 1,21,22
 122 565 122 565 109 582 c 0,23,24
 99 595 99 595 101.5 611 c 128,-1,25
 104 627 104 627 117 636 c 0,26,27
 129 646 129 646 144.5 644 c 128,-1,28
 160 642 160 642 170 631 c 1,29,-1
 175 629 l 1,30,31
 217 555 217 555 161 487 c 0,32,33
 140 460 140 460 99 446 c 0,34,35
 92 443 92 443 91 444 c 0,36,37
 91 445 91 445 93 447 c 0,19,20
EndSplineSet
EndChar

StartChar: Aacute
Encoding: 193 193 104
Width: 583
Flags: W
LayerCount: 2
Fore
SplineSet
361 889 m 5,0,-1
 113 668 l 5,1,-1
 210 671 l 5,2,-1
 453 889 l 5,3,-1
 361 889 l 5,0,-1
430 556 m 1,4,5
 428 555 428 555 426 554 c 0,6,7
 289 508 289 508 240 455 c 0,8,9
 198 409 198 409 188 337 c 1,10,-1
 428 365 l 1,11,-1
 428 366 l 1,12,-1
 428 367 l 1,13,-1
 428 369 l 1,14,-1
 428 370 l 1,15,-1
 428 371 l 1,16,-1
 428 373 l 1,17,-1
 428 374 l 1,18,-1
 428 375 l 1,19,-1
 428 376 l 1,20,-1
 428 378 l 1,21,-1
 428 379 l 1,22,-1
 428 380 l 1,23,-1
 428 381 l 1,24,-1
 428 383 l 1,25,-1
 428 384 l 1,26,-1
 428 385 l 1,27,-1
 428 386 l 1,28,-1
 428 387 l 1,29,-1
 428 389 l 1,30,-1
 428 390 l 1,31,-1
 428 391 l 1,32,-1
 428 392 l 1,33,-1
 428 393 l 1,34,-1
 428 395 l 1,35,-1
 428 396 l 1,36,-1
 428 397 l 1,37,-1
 428 398 l 1,38,-1
 428 399 l 1,39,-1
 428 400 l 1,40,-1
 428 401 l 1,41,-1
 428 403 l 1,42,-1
 428 404 l 1,43,-1
 428 405 l 1,44,-1
 428 406 l 1,45,-1
 428 407 l 1,46,-1
 428 408 l 1,47,-1
 428 409 l 1,48,-1
 428 410 l 1,49,-1
 429 411 l 1,50,-1
 429 412 l 1,51,-1
 429 414 l 1,52,-1
 429 415 l 1,53,-1
 429 416 l 1,54,-1
 429 417 l 1,55,-1
 429 418 l 1,56,-1
 429 419 l 1,57,-1
 429 420 l 1,58,-1
 429 421 l 1,59,-1
 429 422 l 1,60,-1
 429 423 l 1,61,-1
 429 424 l 1,62,-1
 429 425 l 1,63,-1
 429 426 l 1,64,-1
 429 427 l 1,65,-1
 429 428 l 1,66,-1
 429 429 l 1,67,-1
 429 430 l 1,68,-1
 429 431 l 1,69,-1
 429 432 l 1,70,-1
 429 433 l 1,71,-1
 429 434 l 1,72,-1
 429 435 l 1,73,-1
 429 545 l 2,74,75
 430 552 430 552 430 556 c 1,4,5
68 1 m 1,76,-1
 68 4 l 1,77,-1
 68 13 l 1,78,-1
 68 45 l 1,79,-1
 68 142 l 1,80,-1
 68 239 l 1,81,-1
 68 271 l 1,82,-1
 68 280 l 1,83,-1
 68 282 l 1,84,-1
 68 284 l 2,85,86
 69 377 69 377 83.5 427.5 c 128,-1,87
 98 478 98 478 143 528 c 0,88,89
 181 569 181 569 257 609 c 0,90,91
 287 625 287 625 355 659 c 128,-1,92
 423 693 423 693 450 704 c 1,93,-1
 438 645 l 1,94,95
 492 645 492 645 546 645 c 1,96,97
 546 644 546 644 546 643 c 0,98,99
 546 640 546 640 546 637 c 0,100,101
 546 629 546 629 545 617 c 0,102,103
 545 587 545 587 545 544 c 0,104,105
 544 443 544 443 543 322.5 c 128,-1,106
 542 202 542 202 542 101 c 0,107,108
 541 58 541 58 541 28 c 0,109,110
 541 16 541 16 541 8 c 0,111,112
 541 2 541 2 541 0 c 1,113,-1
 425 1 l 2,114,115
 425 3 425 3 426 8 c 0,116,117
 426 17 426 17 426 29 c 0,118,119
 426 59 426 59 426 102 c 0,120,121
 427 180 427 180 427 249 c 1,122,-1
 184 221 l 1,123,-1
 184 142 l 1,124,-1
 184 45 l 1,125,-1
 184 13 l 1,126,-1
 184 4 l 1,127,-1
 184 1 l 1,128,-1
 68 1 l 1,76,-1
EndSplineSet
EndChar

StartChar: aacute
Encoding: 225 225 105
Width: 583
Flags: W
LayerCount: 2
Fore
SplineSet
430 556 m 1,0,1
 428 555 428 555 426 554 c 0,2,3
 289 508 289 508 240 455 c 0,4,5
 198 409 198 409 188 337 c 1,6,-1
 428 365 l 1,7,-1
 428 366 l 1,8,-1
 428 367 l 1,9,-1
 428 369 l 1,10,-1
 428 370 l 1,11,-1
 428 371 l 1,12,-1
 428 373 l 1,13,-1
 428 374 l 1,14,-1
 428 375 l 1,15,-1
 428 376 l 1,16,-1
 428 378 l 1,17,-1
 428 379 l 1,18,-1
 428 380 l 1,19,-1
 428 381 l 1,20,-1
 428 383 l 1,21,-1
 428 384 l 1,22,-1
 428 385 l 1,23,-1
 428 386 l 1,24,-1
 428 387 l 1,25,-1
 428 389 l 1,26,-1
 428 390 l 1,27,-1
 428 391 l 1,28,-1
 428 392 l 1,29,-1
 428 393 l 1,30,-1
 428 395 l 1,31,-1
 428 396 l 1,32,-1
 428 397 l 1,33,-1
 428 398 l 1,34,-1
 428 399 l 1,35,-1
 428 400 l 1,36,-1
 428 401 l 1,37,-1
 428 403 l 1,38,-1
 428 404 l 1,39,-1
 428 405 l 1,40,-1
 428 406 l 1,41,-1
 428 407 l 1,42,-1
 428 408 l 1,43,-1
 428 409 l 1,44,-1
 428 410 l 1,45,-1
 429 411 l 1,46,-1
 429 412 l 1,47,-1
 429 414 l 1,48,-1
 429 415 l 1,49,-1
 429 416 l 1,50,-1
 429 417 l 1,51,-1
 429 418 l 1,52,-1
 429 419 l 1,53,-1
 429 420 l 1,54,-1
 429 421 l 1,55,-1
 429 422 l 1,56,-1
 429 423 l 1,57,-1
 429 424 l 1,58,-1
 429 425 l 1,59,-1
 429 426 l 1,60,-1
 429 427 l 1,61,-1
 429 428 l 1,62,-1
 429 429 l 1,63,-1
 429 430 l 1,64,-1
 429 431 l 1,65,-1
 429 432 l 1,66,-1
 429 433 l 1,67,-1
 429 434 l 1,68,-1
 429 435 l 1,69,-1
 429 545 l 2,70,71
 430 552 430 552 430 556 c 1,0,1
68 1 m 1,72,-1
 68 4 l 1,73,-1
 68 13 l 1,74,-1
 68 45 l 1,75,-1
 68 142 l 1,76,-1
 68 239 l 1,77,-1
 68 271 l 1,78,-1
 68 280 l 1,79,-1
 68 282 l 1,80,-1
 68 284 l 2,81,82
 69 377 69 377 83.5 427.5 c 128,-1,83
 98 478 98 478 143 528 c 0,84,85
 181 569 181 569 257 609 c 0,86,87
 287 625 287 625 355 659 c 128,-1,88
 423 693 423 693 450 704 c 1,89,-1
 438 645 l 1,90,91
 492 645 492 645 546 645 c 1,92,93
 546 644 546 644 546 643 c 0,94,95
 546 640 546 640 546 637 c 0,96,97
 546 629 546 629 545 617 c 0,98,99
 545 587 545 587 545 544 c 0,100,101
 544 443 544 443 543 322.5 c 128,-1,102
 542 202 542 202 542 101 c 0,103,104
 541 58 541 58 541 28 c 0,105,106
 541 16 541 16 541 8 c 0,107,108
 541 2 541 2 541 0 c 1,109,-1
 425 1 l 2,110,111
 425 3 425 3 426 8 c 0,112,113
 426 17 426 17 426 29 c 0,114,115
 426 59 426 59 426 102 c 0,116,117
 427 180 427 180 427 249 c 1,118,-1
 184 221 l 1,119,-1
 184 142 l 1,120,-1
 184 45 l 1,121,-1
 184 13 l 1,122,-1
 184 4 l 1,123,-1
 184 1 l 1,124,-1
 68 1 l 1,72,-1
361 889 m 1,125,-1
 113 668 l 1,126,-1
 210 671 l 1,127,-1
 453 889 l 1,128,-1
 361 889 l 1,125,-1
EndSplineSet
EndChar

StartChar: Eacute
Encoding: 201 201 106
Width: 496
Flags: W
LayerCount: 2
Fore
SplineSet
361 889 m 5,0,-1
 113 668 l 5,1,-1
 210 671 l 5,2,-1
 453 889 l 5,3,-1
 361 889 l 5,0,-1
136 644 m 1,4,-1
 140 644 l 1,5,-1
 150 644 l 1,6,-1
 186 644 l 2,7,8
 213 644 213 644 241.5 644 c 128,-1,9
 270 644 270 644 295 644 c 0,10,11
 322 644 322 644 350 644 c 128,-1,12
 378 644 378 644 405 644 c 2,13,-1
 441 644 l 1,14,-1
 451 644 l 1,15,-1
 455 644 l 1,16,-1
 455 549 l 1,17,-1
 451 549 l 1,18,-1
 441 549 l 1,19,-1
 405 549 l 2,20,21
 378 549 378 549 350 549 c 128,-1,22
 322 549 322 549 295 549 c 0,23,24
 270 549 270 549 241.5 549 c 128,-1,25
 213 549 213 549 186 549 c 2,26,-1
 179 549 l 1,27,-1
 179 538 l 1,28,-1
 179 465 l 1,29,-1
 179 441 l 1,30,-1
 179 432 l 1,31,-1
 179 427 l 1,32,-1
 179 419 l 1,33,-1
 376 417 l 1,34,-1
 375 302 l 1,35,36
 280 303 280 303 186 304 c 1,37,38
 198 218 198 218 244.5 172 c 128,-1,39
 291 126 291 126 399 107 c 0,40,41
 403 107 403 107 408 107 c 0,42,43
 427 107 427 107 443 107 c 0,44,45
 447 107 447 107 449.5 107 c 128,-1,46
 452 107 452 107 454 107 c 2,47,-1
 458 107 l 1,48,-1
 459 107 l 1,49,-1
 459 1 l 1,50,-1
 457 1 l 1,51,-1
 454 1 l 2,52,53
 452 1 452 1 449 1 c 128,-1,54
 446 1 446 1 443 1 c 2,55,-1
 408 1 l 1,56,-1
 406 1 l 1,57,-1
 405 1 l 1,58,-1
 404 1 l 1,59,-1
 402 1 l 1,60,-1
 401 1 l 1,61,-1
 400 1 l 1,62,-1
 398 1 l 1,63,-1
 397 1 l 1,64,-1
 396 1 l 1,65,-1
 395 1 l 1,66,-1
 394 1 l 1,67,-1
 393 1 l 1,68,-1
 392 1 l 1,69,-1
 391 1 l 1,70,-1
 390 1 l 1,71,-1
 389 1 l 1,72,-1
 388 1 l 1,73,-1
 387 1 l 1,74,-1
 386 1 l 1,75,-1
 385 1 l 1,76,-1
 384 1 l 1,77,-1
 383 1 l 1,78,-1
 382 1 l 1,79,-1
 381 1 l 1,80,-1
 380 1 l 1,81,-1
 379 1 l 1,82,-1
 378 1 l 1,83,-1
 377 1 l 1,84,-1
 376 1 l 1,85,-1
 375 1 l 1,86,-1
 374 1 l 1,87,-1
 373 1 l 2,88,89
 370 1 370 1 367 1 c 128,-1,90
 364 1 364 1 362 1 c 2,91,-1
 359 1 l 1,92,-1
 358 1 l 1,93,94
 318 6 318 6 280.5 19 c 128,-1,95
 243 32 243 32 205.5 56.5 c 128,-1,96
 168 81 168 81 139.5 114 c 128,-1,97
 111 147 111 147 90.5 196 c 128,-1,98
 70 245 70 245 65 304 c 0,99,100
 65 307 65 307 65 310 c 0,101,102
 64 320 64 320 64 330 c 0,103,104
 64 451 64 451 64 465 c 2,105,-1
 64 538 l 2,106,107
 64 539 64 539 64 553 c 128,-1,108
 64 567 64 567 63.5 569.5 c 128,-1,109
 63 572 63 572 62 584 c 128,-1,110
 61 596 61 596 59.5 599.5 c 128,-1,111
 58 603 58 603 55 612 c 128,-1,112
 52 621 52 621 47 624.5 c 128,-1,113
 42 628 42 628 35.5 633 c 128,-1,114
 29 638 29 638 20 640.5 c 128,-1,115
 11 643 11 643 0 643 c 1,116,-1
 64 644 l 1,117,-1
 136 644 l 1,4,-1
EndSplineSet
EndChar

StartChar: eacute
Encoding: 233 233 107
Width: 496
Flags: W
LayerCount: 2
Fore
SplineSet
361 889 m 5,0,-1
 113 668 l 5,1,-1
 210 671 l 5,2,-1
 453 889 l 5,3,-1
 361 889 l 5,0,-1
136 644 m 1,4,-1
 140 644 l 1,5,-1
 150 644 l 1,6,-1
 186 644 l 2,7,8
 213 644 213 644 241.5 644 c 128,-1,9
 270 644 270 644 295 644 c 0,10,11
 322 644 322 644 350 644 c 128,-1,12
 378 644 378 644 405 644 c 2,13,-1
 441 644 l 1,14,-1
 451 644 l 1,15,-1
 455 644 l 1,16,-1
 455 549 l 1,17,-1
 451 549 l 1,18,-1
 441 549 l 1,19,-1
 405 549 l 2,20,21
 378 549 378 549 350 549 c 128,-1,22
 322 549 322 549 295 549 c 0,23,24
 270 549 270 549 241.5 549 c 128,-1,25
 213 549 213 549 186 549 c 2,26,-1
 179 549 l 1,27,-1
 179 538 l 1,28,-1
 179 465 l 1,29,-1
 179 441 l 1,30,-1
 179 432 l 1,31,-1
 179 427 l 1,32,-1
 179 419 l 1,33,-1
 376 417 l 1,34,-1
 375 302 l 1,35,36
 280 303 280 303 186 304 c 1,37,38
 198 218 198 218 244.5 172 c 128,-1,39
 291 126 291 126 399 107 c 0,40,41
 403 107 403 107 408 107 c 0,42,43
 427 107 427 107 443 107 c 0,44,45
 447 107 447 107 449.5 107 c 128,-1,46
 452 107 452 107 454 107 c 2,47,-1
 458 107 l 1,48,-1
 459 107 l 1,49,-1
 459 1 l 1,50,-1
 457 1 l 1,51,-1
 454 1 l 2,52,53
 452 1 452 1 449 1 c 128,-1,54
 446 1 446 1 443 1 c 2,55,-1
 408 1 l 1,56,-1
 406 1 l 1,57,-1
 405 1 l 1,58,-1
 404 1 l 1,59,-1
 402 1 l 1,60,-1
 401 1 l 1,61,-1
 400 1 l 1,62,-1
 398 1 l 1,63,-1
 397 1 l 1,64,-1
 396 1 l 1,65,-1
 395 1 l 1,66,-1
 394 1 l 1,67,-1
 393 1 l 1,68,-1
 392 1 l 1,69,-1
 391 1 l 1,70,-1
 390 1 l 1,71,-1
 389 1 l 1,72,-1
 388 1 l 1,73,-1
 387 1 l 1,74,-1
 386 1 l 1,75,-1
 385 1 l 1,76,-1
 384 1 l 1,77,-1
 383 1 l 1,78,-1
 382 1 l 1,79,-1
 381 1 l 1,80,-1
 380 1 l 1,81,-1
 379 1 l 1,82,-1
 378 1 l 1,83,-1
 377 1 l 1,84,-1
 376 1 l 1,85,-1
 375 1 l 1,86,-1
 374 1 l 1,87,-1
 373 1 l 2,88,89
 370 1 370 1 367 1 c 128,-1,90
 364 1 364 1 362 1 c 2,91,-1
 359 1 l 1,92,-1
 358 1 l 1,93,94
 318 6 318 6 280.5 19 c 128,-1,95
 243 32 243 32 205.5 56.5 c 128,-1,96
 168 81 168 81 139.5 114 c 128,-1,97
 111 147 111 147 90.5 196 c 128,-1,98
 70 245 70 245 65 304 c 0,99,100
 65 307 65 307 65 310 c 0,101,102
 64 320 64 320 64 330 c 0,103,104
 64 451 64 451 64 465 c 2,105,-1
 64 538 l 2,106,107
 64 539 64 539 64 553 c 128,-1,108
 64 567 64 567 63.5 569.5 c 128,-1,109
 63 572 63 572 62 584 c 128,-1,110
 61 596 61 596 59.5 599.5 c 128,-1,111
 58 603 58 603 55 612 c 128,-1,112
 52 621 52 621 47 624.5 c 128,-1,113
 42 628 42 628 35.5 633 c 128,-1,114
 29 638 29 638 20 640.5 c 128,-1,115
 11 643 11 643 0 643 c 1,116,-1
 64 644 l 1,117,-1
 136 644 l 1,4,-1
EndSplineSet
EndChar

StartChar: Iacute
Encoding: 205 205 108
Width: 217
Flags: W
LayerCount: 2
Fore
SplineSet
249 889 m 1,0,-1
 1 668 l 1,1,-1
 98 671 l 1,2,-1
 341 889 l 1,3,-1
 249 889 l 1,0,-1
178 644 m 1,4,-1
 178 635 l 1,5,-1
 178 611 l 1,6,-1
 178 537 l 1,7,-1
 178 463 l 1,8,-1
 178 439 l 1,9,-1
 178 430 l 1,10,-1
 178 425 l 1,11,-1
 178 413 l 1,12,-1
 178 377 l 1,13,-1
 178 340 l 1,14,-1
 178 328 l 1,15,-1
 178 318 l 2,16,17
 178 311 178 311 178 302 c 0,18,19
 179 211 179 211 179 -2 c 1,20,-1
 126 45 l 1,21,-1
 62 96 l 1,22,-1
 61 323 l 1,23,-1
 61 328 l 2,24,25
 61 449 61 449 61 463 c 2,26,-1
 61 537 l 2,27,28
 62 546 62 546 61.5 555 c 128,-1,29
 61 564 61 564 61 573 c 128,-1,30
 61 582 61 582 59.5 590.5 c 128,-1,31
 58 599 58 599 56 606.5 c 128,-1,32
 54 614 54 614 49 620.5 c 128,-1,33
 44 627 44 627 37.5 632 c 128,-1,34
 31 637 31 637 21 640.5 c 128,-1,35
 11 644 11 644 -1 644 c 1,36,-1
 61 644 l 1,37,-1
 178 644 l 1,4,-1
EndSplineSet
EndChar

StartChar: iacute
Encoding: 237 237 109
Width: 217
Flags: W
LayerCount: 2
Fore
SplineSet
249 889 m 5,0,-1
 1 668 l 5,1,-1
 98 671 l 5,2,-1
 341 889 l 5,3,-1
 249 889 l 5,0,-1
178 644 m 1,4,-1
 178 635 l 1,5,-1
 178 611 l 1,6,-1
 178 537 l 1,7,-1
 178 463 l 1,8,-1
 178 439 l 1,9,-1
 178 430 l 1,10,-1
 178 425 l 1,11,-1
 178 413 l 1,12,-1
 178 377 l 1,13,-1
 178 340 l 1,14,-1
 178 328 l 1,15,-1
 178 318 l 2,16,17
 178 311 178 311 178 302 c 0,18,19
 179 211 179 211 179 -2 c 1,20,-1
 126 45 l 1,21,-1
 62 96 l 1,22,-1
 61 323 l 1,23,-1
 61 328 l 2,24,25
 61 449 61 449 61 463 c 2,26,-1
 61 537 l 2,27,28
 62 546 62 546 61.5 555 c 128,-1,29
 61 564 61 564 61 573 c 128,-1,30
 61 582 61 582 59.5 590.5 c 128,-1,31
 58 599 58 599 56 606.5 c 128,-1,32
 54 614 54 614 49 620.5 c 128,-1,33
 44 627 44 627 37.5 632 c 128,-1,34
 31 637 31 637 21 640.5 c 128,-1,35
 11 644 11 644 -1 644 c 1,36,-1
 61 644 l 1,37,-1
 178 644 l 1,4,-1
EndSplineSet
EndChar

StartChar: oacute
Encoding: 243 243 110
Width: 635
Flags: W
LayerCount: 2
Fore
SplineSet
506 889 m 1,0,-1
 258 668 l 1,1,-1
 355 671 l 1,2,-1
 598 889 l 1,3,-1
 506 889 l 1,0,-1
252 8 m 0,4,5
 160 28 160 28 101 107 c 0,6,7
 54 169 54 169 38 254 c 1,8,-1
 4 226 l 1,9,10
 8 260 8 260 21.5 333.5 c 128,-1,11
 35 407 35 407 41 425 c 0,12,13
 42 428 42 428 43 430 c 0,14,15
 58 492 58 492 91 539 c 0,16,17
 148 622 148 622 242 641 c 1,18,-1
 217 672 l 1,19,20
 243 666 243 666 277.5 658.5 c 128,-1,21
 312 651 312 651 331 646.5 c 128,-1,22
 350 642 350 642 367 637 c 0,23,24
 450 613 450 613 504 540 c 0,25,26
 552 475 552 475 567 386 c 1,27,-1
 598 410 l 1,28,29
 594 378 594 378 580 307 c 128,-1,30
 566 236 566 236 560 214 c 0,31,32
 544 154 544 154 513 108 c 0,33,34
 507 100 507 100 501 92 c 0,35,36
 500 92 500 92 500 91 c 0,37,38
 445 23 445 23 363 6 c 1,39,-1
 384 -17 l 1,40,41
 361 -13 361 -13 315.5 -5 c 128,-1,42
 270 3 270 3 252 8 c 0,4,5
294 540 m 0,43,44
 221 539 221 539 179 478 c 0,45,46
 136 416 136 416 138 325 c 0,47,48
 140 232 140 232 186 171 c 0,49,50
 233 109 233 109 312 109 c 0,51,52
 383 109 383 109 424 169 c 0,53,54
 467 230 467 230 465 322 c 0,55,56
 464 414 464 414 418 476 c 0,57,58
 374 535 374 535 301 540 c 0,59,60
 298 540 298 540 294 540 c 0,43,44
EndSplineSet
EndChar

StartChar: odieresis
Encoding: 246 246 111
Width: 635
Flags: W
LayerCount: 2
Fore
SplineSet
452.5 836.5 m 5,0,-1
 452.5 719.5 l 5,1,-1
 335.5 719.5 l 5,2,-1
 335.5 836.5 l 5,3,-1
 452.5 836.5 l 5,0,-1
253.5 838.5 m 5,4,-1
 253.5 721.5 l 5,5,-1
 136.5 721.5 l 5,6,-1
 136.5 838.5 l 5,7,-1
 253.5 838.5 l 5,4,-1
252 8 m 0,8,9
 160 28 160 28 101 107 c 0,10,11
 54 169 54 169 38 254 c 1,12,-1
 4 226 l 1,13,14
 8 260 8 260 21.5 333.5 c 128,-1,15
 35 407 35 407 41 425 c 0,16,17
 42 428 42 428 43 430 c 0,18,19
 58 492 58 492 91 539 c 0,20,21
 148 622 148 622 242 641 c 1,22,-1
 217 672 l 1,23,24
 243 666 243 666 277.5 658.5 c 128,-1,25
 312 651 312 651 331 646.5 c 128,-1,26
 350 642 350 642 367 637 c 0,27,28
 450 613 450 613 504 540 c 0,29,30
 552 475 552 475 567 386 c 1,31,-1
 598 410 l 1,32,33
 594 378 594 378 580 307 c 128,-1,34
 566 236 566 236 560 214 c 0,35,36
 544 154 544 154 513 108 c 0,37,38
 507 100 507 100 501 92 c 0,39,40
 500 92 500 92 500 91 c 0,41,42
 445 23 445 23 363 6 c 1,43,-1
 384 -17 l 1,44,45
 361 -13 361 -13 315.5 -5 c 128,-1,46
 270 3 270 3 252 8 c 0,8,9
294 540 m 0,47,48
 221 539 221 539 179 478 c 0,49,50
 136 416 136 416 138 325 c 0,51,52
 140 232 140 232 186 171 c 0,53,54
 233 109 233 109 312 109 c 0,55,56
 383 109 383 109 424 169 c 0,57,58
 467 230 467 230 465 322 c 0,59,60
 464 414 464 414 418 476 c 0,61,62
 374 535 374 535 301 540 c 0,63,64
 298 540 298 540 294 540 c 0,47,48
EndSplineSet
EndChar

StartChar: ohungarumlaut
Encoding: 337 337 112
Width: 635
Flags: W
LayerCount: 2
Fore
SplineSet
355 889 m 5,0,-1
 107 668 l 5,1,-1
 204 671 l 5,2,-1
 447 889 l 5,3,-1
 355 889 l 5,0,-1
526 889 m 5,4,-1
 278 668 l 5,5,-1
 375 671 l 5,6,-1
 618 889 l 5,7,-1
 526 889 l 5,4,-1
252 8 m 0,8,9
 160 28 160 28 101 107 c 0,10,11
 54 169 54 169 38 254 c 1,12,-1
 4 226 l 1,13,14
 8 260 8 260 21.5 333.5 c 128,-1,15
 35 407 35 407 41 425 c 0,16,17
 42 428 42 428 43 430 c 0,18,19
 58 492 58 492 91 539 c 0,20,21
 148 622 148 622 242 641 c 1,22,-1
 217 672 l 1,23,24
 243 666 243 666 277.5 658.5 c 128,-1,25
 312 651 312 651 331 646.5 c 128,-1,26
 350 642 350 642 367 637 c 0,27,28
 450 613 450 613 504 540 c 0,29,30
 552 475 552 475 567 386 c 1,31,-1
 598 410 l 1,32,33
 594 378 594 378 580 307 c 128,-1,34
 566 236 566 236 560 214 c 0,35,36
 544 154 544 154 513 108 c 0,37,38
 507 100 507 100 501 92 c 0,39,40
 500 92 500 92 500 91 c 0,41,42
 445 23 445 23 363 6 c 1,43,-1
 384 -17 l 1,44,45
 361 -13 361 -13 315.5 -5 c 128,-1,46
 270 3 270 3 252 8 c 0,8,9
294 540 m 0,47,48
 221 539 221 539 179 478 c 0,49,50
 136 416 136 416 138 325 c 0,51,52
 140 232 140 232 186 171 c 0,53,54
 233 109 233 109 312 109 c 0,55,56
 383 109 383 109 424 169 c 0,57,58
 467 230 467 230 465 322 c 0,59,60
 464 414 464 414 418 476 c 0,61,62
 374 535 374 535 301 540 c 0,63,64
 298 540 298 540 294 540 c 0,47,48
EndSplineSet
EndChar

StartChar: Oacute
Encoding: 211 211 113
Width: 635
Flags: W
LayerCount: 2
Fore
SplineSet
506 889 m 5,0,-1
 258 668 l 5,1,-1
 355 671 l 5,2,-1
 598 889 l 5,3,-1
 506 889 l 5,0,-1
252 8 m 0,4,5
 160 28 160 28 101 107 c 0,6,7
 54 169 54 169 38 254 c 1,8,-1
 4 226 l 1,9,10
 8 260 8 260 21.5 333.5 c 128,-1,11
 35 407 35 407 41 425 c 0,12,13
 42 428 42 428 43 430 c 0,14,15
 58 492 58 492 91 539 c 0,16,17
 148 622 148 622 242 641 c 1,18,-1
 217 672 l 1,19,20
 243 666 243 666 277.5 658.5 c 128,-1,21
 312 651 312 651 331 646.5 c 128,-1,22
 350 642 350 642 367 637 c 0,23,24
 450 613 450 613 504 540 c 0,25,26
 552 475 552 475 567 386 c 1,27,-1
 598 410 l 1,28,29
 594 378 594 378 580 307 c 128,-1,30
 566 236 566 236 560 214 c 0,31,32
 544 154 544 154 513 108 c 0,33,34
 507 100 507 100 501 92 c 0,35,36
 500 92 500 92 500 91 c 0,37,38
 445 23 445 23 363 6 c 1,39,-1
 384 -17 l 1,40,41
 361 -13 361 -13 315.5 -5 c 128,-1,42
 270 3 270 3 252 8 c 0,4,5
294 540 m 0,43,44
 221 539 221 539 179 478 c 0,45,46
 136 416 136 416 138 325 c 0,47,48
 140 232 140 232 186 171 c 0,49,50
 233 109 233 109 312 109 c 0,51,52
 383 109 383 109 424 169 c 0,53,54
 467 230 467 230 465 322 c 0,55,56
 464 414 464 414 418 476 c 0,57,58
 374 535 374 535 301 540 c 0,59,60
 298 540 298 540 294 540 c 0,43,44
EndSplineSet
EndChar

StartChar: Odieresis
Encoding: 214 214 114
Width: 635
Flags: W
LayerCount: 2
Fore
SplineSet
452.5 836.5 m 5,0,-1
 452.5 719.5 l 5,1,-1
 335.5 719.5 l 5,2,-1
 335.5 836.5 l 5,3,-1
 452.5 836.5 l 5,0,-1
253.5 838.5 m 5,4,-1
 253.5 721.5 l 5,5,-1
 136.5 721.5 l 5,6,-1
 136.5 838.5 l 5,7,-1
 253.5 838.5 l 5,4,-1
252 8 m 0,8,9
 160 28 160 28 101 107 c 0,10,11
 54 169 54 169 38 254 c 1,12,-1
 4 226 l 1,13,14
 8 260 8 260 21.5 333.5 c 128,-1,15
 35 407 35 407 41 425 c 0,16,17
 42 428 42 428 43 430 c 0,18,19
 58 492 58 492 91 539 c 0,20,21
 148 622 148 622 242 641 c 1,22,-1
 217 672 l 1,23,24
 243 666 243 666 277.5 658.5 c 128,-1,25
 312 651 312 651 331 646.5 c 128,-1,26
 350 642 350 642 367 637 c 0,27,28
 450 613 450 613 504 540 c 0,29,30
 552 475 552 475 567 386 c 1,31,-1
 598 410 l 1,32,33
 594 378 594 378 580 307 c 128,-1,34
 566 236 566 236 560 214 c 0,35,36
 544 154 544 154 513 108 c 0,37,38
 507 100 507 100 501 92 c 0,39,40
 500 92 500 92 500 91 c 0,41,42
 445 23 445 23 363 6 c 1,43,-1
 384 -17 l 1,44,45
 361 -13 361 -13 315.5 -5 c 128,-1,46
 270 3 270 3 252 8 c 0,8,9
294 540 m 0,47,48
 221 539 221 539 179 478 c 0,49,50
 136 416 136 416 138 325 c 0,51,52
 140 232 140 232 186 171 c 0,53,54
 233 109 233 109 312 109 c 0,55,56
 383 109 383 109 424 169 c 0,57,58
 467 230 467 230 465 322 c 0,59,60
 464 414 464 414 418 476 c 0,61,62
 374 535 374 535 301 540 c 0,63,64
 298 540 298 540 294 540 c 0,47,48
EndSplineSet
EndChar

StartChar: Ohungarumlaut
Encoding: 336 336 115
Width: 635
Flags: W
LayerCount: 2
Fore
SplineSet
355 889 m 5,0,-1
 107 668 l 5,1,-1
 204 671 l 5,2,-1
 447 889 l 5,3,-1
 355 889 l 5,0,-1
526 889 m 1,4,-1
 278 668 l 1,5,-1
 375 671 l 1,6,-1
 618 889 l 1,7,-1
 526 889 l 1,4,-1
252 8 m 0,8,9
 160 28 160 28 101 107 c 0,10,11
 54 169 54 169 38 254 c 1,12,-1
 4 226 l 1,13,14
 8 260 8 260 21.5 333.5 c 128,-1,15
 35 407 35 407 41 425 c 0,16,17
 42 428 42 428 43 430 c 0,18,19
 58 492 58 492 91 539 c 0,20,21
 148 622 148 622 242 641 c 1,22,-1
 217 672 l 1,23,24
 243 666 243 666 277.5 658.5 c 128,-1,25
 312 651 312 651 331 646.5 c 128,-1,26
 350 642 350 642 367 637 c 0,27,28
 450 613 450 613 504 540 c 0,29,30
 552 475 552 475 567 386 c 1,31,-1
 598 410 l 1,32,33
 594 378 594 378 580 307 c 128,-1,34
 566 236 566 236 560 214 c 0,35,36
 544 154 544 154 513 108 c 0,37,38
 507 100 507 100 501 92 c 0,39,40
 500 92 500 92 500 91 c 0,41,42
 445 23 445 23 363 6 c 1,43,-1
 384 -17 l 1,44,45
 361 -13 361 -13 315.5 -5 c 128,-1,46
 270 3 270 3 252 8 c 0,8,9
294 540 m 0,47,48
 221 539 221 539 179 478 c 0,49,50
 136 416 136 416 138 325 c 0,51,52
 140 232 140 232 186 171 c 0,53,54
 233 109 233 109 312 109 c 0,55,56
 383 109 383 109 424 169 c 0,57,58
 467 230 467 230 465 322 c 0,59,60
 464 414 464 414 418 476 c 0,61,62
 374 535 374 535 301 540 c 0,63,64
 298 540 298 540 294 540 c 0,47,48
EndSplineSet
EndChar

StartChar: Uacute
Encoding: 218 218 116
Width: 562
Flags: W
LayerCount: 2
Fore
SplineSet
430 889 m 1,0,-1
 182 668 l 1,1,-1
 279 671 l 1,2,-1
 522 889 l 1,3,-1
 430 889 l 1,0,-1
521 645 m 1,4,-1
 522 639 l 2,5,6
 522 631 522 631 522 620 c 0,7,8
 522 590 522 590 522 549 c 0,9,10
 522 452 522 452 523 335 c 0,11,12
 523 317 523 317 523 310 c 2,13,-1
 523 309 l 2,14,15
 523 300 523 300 523 292 c 0,16,17
 523 258 523 258 523 217 c 0,18,19
 523 201 523 201 523 121 c 2,20,-1
 524 1 l 1,21,-1
 417 -2 l 1,22,-1
 417 49 l 2,23,24
 417 51 417 51 417 62 c 2,25,-1
 417 81 l 1,26,27
 346 21 346 21 238 5 c 0,28,29
 216 1 216 1 184 1 c 2,30,-1
 69 1 l 1,31,-1
 69 11 l 2,32,33
 69 254 69 254 69 282 c 2,34,-1
 69 430 l 2,35,36
 69 442 69 442 69 469.5 c 128,-1,37
 69 497 69 497 69 511.5 c 128,-1,38
 69 526 69 526 67.5 549.5 c 128,-1,39
 66 573 66 573 62.5 585.5 c 128,-1,40
 59 598 59 598 52.5 612.5 c 128,-1,41
 46 627 46 627 35.5 634 c 128,-1,42
 25 641 25 641 11 643 c 1,43,-1
 69 644 l 1,44,-1
 184 644 l 1,45,-1
 184 625 l 1,46,-1
 184 577 l 1,47,-1
 184 430 l 1,48,-1
 184 282 l 1,49,-1
 184 234 l 1,50,-1
 184 215 l 1,51,-1
 184 206 l 1,52,-1
 184 182 l 1,53,-1
 184 108 l 1,54,-1
 184 101 l 1,55,56
 307 116 307 116 370 196 c 0,57,58
 409 246 409 246 415 293 c 0,59,60
 416 301 416 301 417 307 c 0,61,62
 416 428 416 428 416 521.5 c 128,-1,63
 416 615 416 615 416 618 c 2,64,-1
 416 638 l 1,65,-1
 416 645 l 1,66,-1
 521 645 l 1,4,-1
EndSplineSet
EndChar

StartChar: Udieresis
Encoding: 220 220 117
Width: 562
Flags: W
LayerCount: 2
Fore
SplineSet
452.5 836.5 m 5,0,-1
 452.5 719.5 l 5,1,-1
 335.5 719.5 l 5,2,-1
 335.5 836.5 l 5,3,-1
 452.5 836.5 l 5,0,-1
253.5 838.5 m 5,4,-1
 253.5 721.5 l 5,5,-1
 136.5 721.5 l 5,6,-1
 136.5 838.5 l 5,7,-1
 253.5 838.5 l 5,4,-1
521 645 m 1,8,-1
 522 639 l 2,9,10
 522 631 522 631 522 620 c 0,11,12
 522 590 522 590 522 549 c 0,13,14
 522 452 522 452 523 335 c 0,15,16
 523 317 523 317 523 310 c 2,17,-1
 523 309 l 2,18,19
 523 300 523 300 523 292 c 0,20,21
 523 258 523 258 523 217 c 0,22,23
 523 201 523 201 523 121 c 2,24,-1
 524 1 l 1,25,-1
 417 -2 l 1,26,-1
 417 49 l 2,27,28
 417 51 417 51 417 62 c 2,29,-1
 417 81 l 1,30,31
 346 21 346 21 238 5 c 0,32,33
 216 1 216 1 184 1 c 2,34,-1
 69 1 l 1,35,-1
 69 11 l 2,36,37
 69 254 69 254 69 282 c 2,38,-1
 69 430 l 2,39,40
 69 442 69 442 69 469.5 c 128,-1,41
 69 497 69 497 69 511.5 c 128,-1,42
 69 526 69 526 67.5 549.5 c 128,-1,43
 66 573 66 573 62.5 585.5 c 128,-1,44
 59 598 59 598 52.5 612.5 c 128,-1,45
 46 627 46 627 35.5 634 c 128,-1,46
 25 641 25 641 11 643 c 1,47,-1
 69 644 l 1,48,-1
 184 644 l 1,49,-1
 184 625 l 1,50,-1
 184 577 l 1,51,-1
 184 430 l 1,52,-1
 184 282 l 1,53,-1
 184 234 l 1,54,-1
 184 215 l 1,55,-1
 184 206 l 1,56,-1
 184 182 l 1,57,-1
 184 108 l 1,58,-1
 184 101 l 1,59,60
 307 116 307 116 370 196 c 0,61,62
 409 246 409 246 415 293 c 0,63,64
 416 301 416 301 417 307 c 0,65,66
 416 428 416 428 416 521.5 c 128,-1,67
 416 615 416 615 416 618 c 2,68,-1
 416 638 l 1,69,-1
 416 645 l 1,70,-1
 521 645 l 1,8,-1
EndSplineSet
EndChar

StartChar: Uhungarumlaut
Encoding: 368 368 118
Width: 562
Flags: W
LayerCount: 2
Fore
SplineSet
335 889 m 5,0,-1
 87 668 l 5,1,-1
 184 671 l 5,2,-1
 427 889 l 5,3,-1
 335 889 l 5,0,-1
506 889 m 5,4,-1
 258 668 l 5,5,-1
 355 671 l 5,6,-1
 598 889 l 5,7,-1
 506 889 l 5,4,-1
521 645 m 1,8,-1
 522 639 l 2,9,10
 522 631 522 631 522 620 c 0,11,12
 522 590 522 590 522 549 c 0,13,14
 522 452 522 452 523 335 c 0,15,16
 523 317 523 317 523 310 c 2,17,-1
 523 309 l 2,18,19
 523 300 523 300 523 292 c 0,20,21
 523 258 523 258 523 217 c 0,22,23
 523 201 523 201 523 121 c 2,24,-1
 524 1 l 1,25,-1
 417 -2 l 1,26,-1
 417 49 l 2,27,28
 417 51 417 51 417 62 c 2,29,-1
 417 81 l 1,30,31
 346 21 346 21 238 5 c 0,32,33
 216 1 216 1 184 1 c 2,34,-1
 69 1 l 1,35,-1
 69 11 l 2,36,37
 69 254 69 254 69 282 c 2,38,-1
 69 430 l 2,39,40
 69 442 69 442 69 469.5 c 128,-1,41
 69 497 69 497 69 511.5 c 128,-1,42
 69 526 69 526 67.5 549.5 c 128,-1,43
 66 573 66 573 62.5 585.5 c 128,-1,44
 59 598 59 598 52.5 612.5 c 128,-1,45
 46 627 46 627 35.5 634 c 128,-1,46
 25 641 25 641 11 643 c 1,47,-1
 69 644 l 1,48,-1
 184 644 l 1,49,-1
 184 625 l 1,50,-1
 184 577 l 1,51,-1
 184 430 l 1,52,-1
 184 282 l 1,53,-1
 184 234 l 1,54,-1
 184 215 l 1,55,-1
 184 206 l 1,56,-1
 184 182 l 1,57,-1
 184 108 l 1,58,-1
 184 101 l 1,59,60
 307 116 307 116 370 196 c 0,61,62
 409 246 409 246 415 293 c 0,63,64
 416 301 416 301 417 307 c 0,65,66
 416 428 416 428 416 521.5 c 128,-1,67
 416 615 416 615 416 618 c 2,68,-1
 416 638 l 1,69,-1
 416 645 l 1,70,-1
 521 645 l 1,8,-1
EndSplineSet
EndChar

StartChar: uacute
Encoding: 250 250 119
Width: 562
Flags: W
LayerCount: 2
Fore
SplineSet
430 889 m 5,0,-1
 182 668 l 5,1,-1
 279 671 l 5,2,-1
 522 889 l 5,3,-1
 430 889 l 5,0,-1
521 645 m 1,4,-1
 522 639 l 2,5,6
 522 631 522 631 522 620 c 0,7,8
 522 590 522 590 522 549 c 0,9,10
 522 452 522 452 523 335 c 0,11,12
 523 317 523 317 523 310 c 2,13,-1
 523 309 l 2,14,15
 523 300 523 300 523 292 c 0,16,17
 523 258 523 258 523 217 c 0,18,19
 523 201 523 201 523 121 c 2,20,-1
 524 1 l 1,21,-1
 417 -2 l 1,22,-1
 417 49 l 2,23,24
 417 51 417 51 417 62 c 2,25,-1
 417 81 l 1,26,27
 346 21 346 21 238 5 c 0,28,29
 216 1 216 1 184 1 c 2,30,-1
 69 1 l 1,31,-1
 69 11 l 2,32,33
 69 254 69 254 69 282 c 2,34,-1
 69 430 l 2,35,36
 69 442 69 442 69 469.5 c 128,-1,37
 69 497 69 497 69 511.5 c 128,-1,38
 69 526 69 526 67.5 549.5 c 128,-1,39
 66 573 66 573 62.5 585.5 c 128,-1,40
 59 598 59 598 52.5 612.5 c 128,-1,41
 46 627 46 627 35.5 634 c 128,-1,42
 25 641 25 641 11 643 c 1,43,-1
 69 644 l 1,44,-1
 184 644 l 1,45,-1
 184 625 l 1,46,-1
 184 577 l 1,47,-1
 184 430 l 1,48,-1
 184 282 l 1,49,-1
 184 234 l 1,50,-1
 184 215 l 1,51,-1
 184 206 l 1,52,-1
 184 182 l 1,53,-1
 184 108 l 1,54,-1
 184 101 l 1,55,56
 307 116 307 116 370 196 c 0,57,58
 409 246 409 246 415 293 c 0,59,60
 416 301 416 301 417 307 c 0,61,62
 416 428 416 428 416 521.5 c 128,-1,63
 416 615 416 615 416 618 c 2,64,-1
 416 638 l 1,65,-1
 416 645 l 1,66,-1
 521 645 l 1,4,-1
EndSplineSet
EndChar

StartChar: udieresis
Encoding: 252 252 120
Width: 562
Flags: W
LayerCount: 2
Fore
SplineSet
452.5 836.5 m 5,0,-1
 452.5 719.5 l 5,1,-1
 335.5 719.5 l 5,2,-1
 335.5 836.5 l 5,3,-1
 452.5 836.5 l 5,0,-1
253.5 838.5 m 5,4,-1
 253.5 721.5 l 5,5,-1
 136.5 721.5 l 5,6,-1
 136.5 838.5 l 5,7,-1
 253.5 838.5 l 5,4,-1
521 645 m 1,8,-1
 522 639 l 2,9,10
 522 631 522 631 522 620 c 0,11,12
 522 590 522 590 522 549 c 0,13,14
 522 452 522 452 523 335 c 0,15,16
 523 317 523 317 523 310 c 2,17,-1
 523 309 l 2,18,19
 523 300 523 300 523 292 c 0,20,21
 523 258 523 258 523 217 c 0,22,23
 523 201 523 201 523 121 c 2,24,-1
 524 1 l 1,25,-1
 417 -2 l 1,26,-1
 417 49 l 2,27,28
 417 51 417 51 417 62 c 2,29,-1
 417 81 l 1,30,31
 346 21 346 21 238 5 c 0,32,33
 216 1 216 1 184 1 c 2,34,-1
 69 1 l 1,35,-1
 69 11 l 2,36,37
 69 254 69 254 69 282 c 2,38,-1
 69 430 l 2,39,40
 69 442 69 442 69 469.5 c 128,-1,41
 69 497 69 497 69 511.5 c 128,-1,42
 69 526 69 526 67.5 549.5 c 128,-1,43
 66 573 66 573 62.5 585.5 c 128,-1,44
 59 598 59 598 52.5 612.5 c 128,-1,45
 46 627 46 627 35.5 634 c 128,-1,46
 25 641 25 641 11 643 c 1,47,-1
 69 644 l 1,48,-1
 184 644 l 1,49,-1
 184 625 l 1,50,-1
 184 577 l 1,51,-1
 184 430 l 1,52,-1
 184 282 l 1,53,-1
 184 234 l 1,54,-1
 184 215 l 1,55,-1
 184 206 l 1,56,-1
 184 182 l 1,57,-1
 184 108 l 1,58,-1
 184 101 l 1,59,60
 307 116 307 116 370 196 c 0,61,62
 409 246 409 246 415 293 c 0,63,64
 416 301 416 301 417 307 c 0,65,66
 416 428 416 428 416 521.5 c 128,-1,67
 416 615 416 615 416 618 c 2,68,-1
 416 638 l 1,69,-1
 416 645 l 1,70,-1
 521 645 l 1,8,-1
EndSplineSet
EndChar

StartChar: uhungarumlaut
Encoding: 369 369 121
Width: 562
Flags: W
LayerCount: 2
Fore
SplineSet
335 889 m 5,0,-1
 87 668 l 5,1,-1
 184 671 l 5,2,-1
 427 889 l 5,3,-1
 335 889 l 5,0,-1
506 889 m 5,4,-1
 258 668 l 5,5,-1
 355 671 l 5,6,-1
 598 889 l 5,7,-1
 506 889 l 5,4,-1
521 645 m 1,8,-1
 522 639 l 2,9,10
 522 631 522 631 522 620 c 0,11,12
 522 590 522 590 522 549 c 0,13,14
 522 452 522 452 523 335 c 0,15,16
 523 317 523 317 523 310 c 2,17,-1
 523 309 l 2,18,19
 523 300 523 300 523 292 c 0,20,21
 523 258 523 258 523 217 c 0,22,23
 523 201 523 201 523 121 c 2,24,-1
 524 1 l 1,25,-1
 417 -2 l 1,26,-1
 417 49 l 2,27,28
 417 51 417 51 417 62 c 2,29,-1
 417 81 l 1,30,31
 346 21 346 21 238 5 c 0,32,33
 216 1 216 1 184 1 c 2,34,-1
 69 1 l 1,35,-1
 69 11 l 2,36,37
 69 254 69 254 69 282 c 2,38,-1
 69 430 l 2,39,40
 69 442 69 442 69 469.5 c 128,-1,41
 69 497 69 497 69 511.5 c 128,-1,42
 69 526 69 526 67.5 549.5 c 128,-1,43
 66 573 66 573 62.5 585.5 c 128,-1,44
 59 598 59 598 52.5 612.5 c 128,-1,45
 46 627 46 627 35.5 634 c 128,-1,46
 25 641 25 641 11 643 c 1,47,-1
 69 644 l 1,48,-1
 184 644 l 1,49,-1
 184 625 l 1,50,-1
 184 577 l 1,51,-1
 184 430 l 1,52,-1
 184 282 l 1,53,-1
 184 234 l 1,54,-1
 184 215 l 1,55,-1
 184 206 l 1,56,-1
 184 182 l 1,57,-1
 184 108 l 1,58,-1
 184 101 l 1,59,60
 307 116 307 116 370 196 c 0,61,62
 409 246 409 246 415 293 c 0,63,64
 416 301 416 301 417 307 c 0,65,66
 416 428 416 428 416 521.5 c 128,-1,67
 416 615 416 615 416 618 c 2,68,-1
 416 638 l 1,69,-1
 416 645 l 1,70,-1
 521 645 l 1,8,-1
EndSplineSet
EndChar
